G75*
%MOIN*%
%OFA0B0*%
%FSLAX25Y25*%
%IPPOS*%
%LPD*%
%AMOC8*
5,1,8,0,0,1.08239X$1,22.5*
%
%ADD10C,0.05194*%
%ADD11C,0.06394*%
%ADD12C,0.20142*%
D10*
X0011300Y0018700D03*
X0021300Y0018700D03*
X0031300Y0018700D03*
X0041300Y0018700D03*
X0051300Y0018700D03*
X0061300Y0018700D03*
X0071300Y0018700D03*
X0081300Y0018700D03*
X0091300Y0018700D03*
X0101300Y0018700D03*
X0111300Y0018700D03*
X0121300Y0018700D03*
X0131300Y0018700D03*
X0141300Y0018700D03*
X0151300Y0018700D03*
X0161300Y0018700D03*
X0171300Y0018700D03*
X0181300Y0018700D03*
X0191300Y0018700D03*
X0201300Y0018700D03*
X0201300Y0028750D03*
X0191300Y0028750D03*
X0181300Y0028750D03*
X0171300Y0028750D03*
X0161300Y0028750D03*
X0151300Y0028750D03*
X0141300Y0028750D03*
X0131300Y0028750D03*
X0121300Y0028750D03*
X0111300Y0028750D03*
X0101300Y0028750D03*
X0091300Y0028750D03*
X0081300Y0028750D03*
X0071300Y0028750D03*
X0061300Y0028750D03*
X0051300Y0028750D03*
X0041300Y0028750D03*
X0031300Y0028750D03*
X0021300Y0028750D03*
X0011300Y0028750D03*
X0011300Y0078700D03*
X0021300Y0078700D03*
X0031300Y0078700D03*
X0041300Y0078700D03*
X0051300Y0078700D03*
X0061300Y0078700D03*
X0071300Y0078700D03*
X0081300Y0078700D03*
X0091300Y0078700D03*
X0101300Y0078700D03*
X0111300Y0078700D03*
X0121300Y0078700D03*
X0131300Y0078700D03*
X0141300Y0078700D03*
X0151300Y0078700D03*
X0161300Y0078700D03*
X0171300Y0078700D03*
X0181300Y0078700D03*
X0191300Y0078700D03*
X0201300Y0078700D03*
X0201300Y0088750D03*
X0191300Y0088750D03*
X0181300Y0088750D03*
X0171300Y0088750D03*
X0161300Y0088750D03*
X0151300Y0088750D03*
X0141300Y0088750D03*
X0131300Y0088750D03*
X0121300Y0088750D03*
X0111300Y0088750D03*
X0101300Y0088750D03*
X0091300Y0088750D03*
X0081300Y0088750D03*
X0071300Y0088750D03*
X0061300Y0088750D03*
X0051300Y0088750D03*
X0041300Y0088750D03*
X0031300Y0088750D03*
X0021300Y0088750D03*
X0011300Y0088750D03*
X0011300Y0108527D03*
X0021300Y0108527D03*
X0031300Y0108527D03*
X0041300Y0108527D03*
X0051300Y0108527D03*
X0061300Y0108527D03*
X0071300Y0108527D03*
X0081300Y0108527D03*
X0091300Y0108527D03*
X0101300Y0108527D03*
X0111300Y0108527D03*
X0121300Y0108527D03*
X0131300Y0108527D03*
X0141300Y0108527D03*
X0151300Y0108527D03*
X0161300Y0108527D03*
X0171300Y0108527D03*
X0181300Y0108527D03*
X0191300Y0108527D03*
X0201300Y0108527D03*
X0201300Y0118873D03*
X0191300Y0118873D03*
X0181300Y0118873D03*
X0171300Y0118873D03*
X0161300Y0118873D03*
X0151300Y0118873D03*
X0141300Y0118873D03*
X0131300Y0118873D03*
X0121300Y0118873D03*
X0111300Y0118873D03*
X0101300Y0118873D03*
X0091300Y0118873D03*
X0081300Y0118873D03*
X0071300Y0118873D03*
X0061300Y0118873D03*
X0051300Y0118873D03*
X0041300Y0118873D03*
X0031300Y0118873D03*
X0021300Y0118873D03*
X0011300Y0118873D03*
X0011300Y0168527D03*
X0021300Y0168527D03*
X0031300Y0168527D03*
X0041300Y0168527D03*
X0051300Y0168527D03*
X0061300Y0168527D03*
X0071300Y0168527D03*
X0081300Y0168527D03*
X0091300Y0168527D03*
X0101300Y0168527D03*
X0111300Y0168527D03*
X0121300Y0168527D03*
X0131300Y0168527D03*
X0141300Y0168527D03*
X0151300Y0168527D03*
X0161300Y0168527D03*
X0171300Y0168527D03*
X0181300Y0168527D03*
X0191300Y0168527D03*
X0201300Y0168527D03*
X0201300Y0178873D03*
X0191300Y0178873D03*
X0181300Y0178873D03*
X0171300Y0178873D03*
X0161300Y0178873D03*
X0151300Y0178873D03*
X0141300Y0178873D03*
X0131300Y0178873D03*
X0121300Y0178873D03*
X0111300Y0178873D03*
X0101300Y0178873D03*
X0091300Y0178873D03*
X0081300Y0178873D03*
X0071300Y0178873D03*
X0061300Y0178873D03*
X0051300Y0178873D03*
X0041300Y0178873D03*
X0031300Y0178873D03*
X0021300Y0178873D03*
X0011300Y0178873D03*
X0071300Y0193700D03*
X0081300Y0193700D03*
X0091300Y0193700D03*
X0101300Y0193700D03*
X0111300Y0193700D03*
X0121300Y0193700D03*
X0131300Y0193700D03*
X0141300Y0193700D03*
X0151300Y0193700D03*
X0161300Y0193700D03*
X0171300Y0193700D03*
X0181300Y0193700D03*
X0191300Y0193700D03*
X0201300Y0193700D03*
X0216300Y0196200D03*
X0216300Y0186200D03*
X0216300Y0176200D03*
X0216300Y0166200D03*
X0216300Y0156200D03*
X0216300Y0146200D03*
X0216300Y0136200D03*
X0216300Y0126200D03*
X0276300Y0126200D03*
X0276300Y0136200D03*
X0276300Y0146200D03*
X0276300Y0156200D03*
X0276300Y0166200D03*
X0276300Y0176200D03*
X0276300Y0186200D03*
X0276300Y0196200D03*
X0276300Y0206200D03*
X0276300Y0216200D03*
X0276300Y0226200D03*
X0276300Y0236200D03*
X0276300Y0246200D03*
X0276300Y0256200D03*
X0276300Y0266200D03*
X0276300Y0276200D03*
X0276300Y0286200D03*
X0276300Y0296200D03*
X0276300Y0306200D03*
X0276300Y0316200D03*
X0291300Y0316200D03*
X0291300Y0306200D03*
X0291300Y0296200D03*
X0311300Y0274900D03*
X0321300Y0274900D03*
X0321300Y0262450D03*
X0321300Y0252450D03*
X0321300Y0242450D03*
X0321300Y0232450D03*
X0321300Y0222450D03*
X0321300Y0212450D03*
X0321300Y0202450D03*
X0321300Y0190550D03*
X0311300Y0190550D03*
X0321300Y0178700D03*
X0321300Y0168700D03*
X0321300Y0158700D03*
X0321300Y0148700D03*
X0321300Y0138700D03*
X0321300Y0128700D03*
X0321300Y0118700D03*
X0335050Y0118700D03*
X0335050Y0128700D03*
X0335050Y0138700D03*
X0335050Y0148700D03*
X0335050Y0158700D03*
X0335050Y0168700D03*
X0335050Y0178700D03*
X0355050Y0189950D03*
X0365050Y0189950D03*
X0365050Y0178700D03*
X0365050Y0168700D03*
X0365050Y0158700D03*
X0365050Y0148700D03*
X0365050Y0138700D03*
X0365050Y0128700D03*
X0365050Y0118700D03*
X0378800Y0118700D03*
X0378800Y0128700D03*
X0378800Y0138700D03*
X0378800Y0148700D03*
X0378800Y0158700D03*
X0378800Y0168700D03*
X0378800Y0178700D03*
X0378800Y0188700D03*
X0365050Y0202450D03*
X0365050Y0212450D03*
X0365050Y0222450D03*
X0365050Y0232450D03*
X0365050Y0242450D03*
X0365050Y0252450D03*
X0365050Y0262450D03*
X0365050Y0273700D03*
X0355050Y0273700D03*
X0365050Y0286200D03*
X0365050Y0296200D03*
X0365050Y0306200D03*
X0365050Y0316200D03*
X0365050Y0326200D03*
X0365050Y0336200D03*
X0365050Y0346200D03*
X0365050Y0356200D03*
X0365050Y0367450D03*
X0355050Y0367450D03*
X0335050Y0356200D03*
X0335050Y0346200D03*
X0335050Y0336200D03*
X0335050Y0326200D03*
X0335050Y0316200D03*
X0335050Y0306200D03*
X0335050Y0296200D03*
X0335050Y0286200D03*
X0321300Y0296200D03*
X0321300Y0306200D03*
X0321300Y0316200D03*
X0321300Y0326200D03*
X0321300Y0336200D03*
X0321300Y0346200D03*
X0321300Y0356200D03*
X0321300Y0367300D03*
X0311300Y0367300D03*
X0291300Y0356200D03*
X0291300Y0346200D03*
X0291300Y0336200D03*
X0291300Y0326200D03*
X0269100Y0330100D03*
X0259100Y0330100D03*
X0248750Y0336550D03*
X0239550Y0336550D03*
X0230350Y0336550D03*
X0221050Y0336600D03*
X0201300Y0326200D03*
X0191300Y0326200D03*
X0181300Y0326200D03*
X0171300Y0326200D03*
X0161300Y0326200D03*
X0151300Y0326200D03*
X0141300Y0326200D03*
X0131300Y0326200D03*
X0121300Y0326200D03*
X0111300Y0326200D03*
X0101300Y0326200D03*
X0091300Y0326200D03*
X0081300Y0326200D03*
X0071300Y0326200D03*
X0068800Y0337300D03*
X0078800Y0338700D03*
X0078800Y0348700D03*
X0078800Y0358700D03*
X0078800Y0368700D03*
X0068800Y0367300D03*
X0091300Y0368700D03*
X0101300Y0368700D03*
X0111300Y0368700D03*
X0121300Y0368700D03*
X0131300Y0368700D03*
X0141300Y0368700D03*
X0151300Y0368700D03*
X0161300Y0368700D03*
X0183600Y0366600D03*
X0173800Y0349950D03*
X0173800Y0339950D03*
X0183600Y0336600D03*
X0161300Y0338700D03*
X0151300Y0338700D03*
X0141300Y0338700D03*
X0131300Y0338700D03*
X0121300Y0338700D03*
X0111300Y0338700D03*
X0101300Y0338700D03*
X0091300Y0338700D03*
X0087700Y0301500D03*
X0087700Y0291500D03*
X0091300Y0266200D03*
X0081300Y0266200D03*
X0071300Y0266200D03*
X0071300Y0253700D03*
X0081300Y0253700D03*
X0091300Y0253700D03*
X0101300Y0253700D03*
X0111300Y0253700D03*
X0121300Y0253700D03*
X0131300Y0253700D03*
X0141300Y0253700D03*
X0151300Y0253700D03*
X0161300Y0253700D03*
X0171300Y0253700D03*
X0181300Y0253700D03*
X0191300Y0253700D03*
X0201300Y0253700D03*
X0201300Y0266200D03*
X0191300Y0266200D03*
X0181300Y0266200D03*
X0171300Y0266200D03*
X0161300Y0266200D03*
X0151300Y0266200D03*
X0141300Y0266200D03*
X0131300Y0266200D03*
X0121300Y0266200D03*
X0111300Y0266200D03*
X0101300Y0266200D03*
X0086500Y0228900D03*
X0086500Y0218900D03*
X0216300Y0216200D03*
X0216300Y0226200D03*
X0216300Y0236200D03*
X0216300Y0246200D03*
X0216300Y0256200D03*
X0216300Y0266200D03*
X0216300Y0276200D03*
X0216300Y0286200D03*
X0216300Y0296200D03*
X0216300Y0306200D03*
X0216300Y0316200D03*
X0221050Y0366600D03*
X0230350Y0366550D03*
X0239550Y0366550D03*
X0248750Y0366550D03*
X0291300Y0262450D03*
X0291300Y0252450D03*
X0291300Y0242450D03*
X0291300Y0232450D03*
X0291300Y0222450D03*
X0291300Y0212450D03*
X0291300Y0202450D03*
X0291300Y0178700D03*
X0291300Y0168700D03*
X0291300Y0158700D03*
X0291300Y0148700D03*
X0291300Y0138700D03*
X0291300Y0128700D03*
X0291300Y0118700D03*
X0335050Y0202450D03*
X0335050Y0212450D03*
X0335050Y0222450D03*
X0335050Y0232450D03*
X0335050Y0242450D03*
X0335050Y0252450D03*
X0335050Y0262450D03*
X0378800Y0262450D03*
X0378800Y0252450D03*
X0378800Y0242450D03*
X0378800Y0232450D03*
X0378800Y0222450D03*
X0378800Y0212450D03*
X0398800Y0199950D03*
X0408800Y0199950D03*
X0408800Y0188700D03*
X0408800Y0178700D03*
X0408800Y0168700D03*
X0408800Y0158700D03*
X0408800Y0148700D03*
X0408800Y0138700D03*
X0408800Y0128700D03*
X0408800Y0118700D03*
X0398150Y0108700D03*
X0388150Y0108700D03*
X0408800Y0212450D03*
X0408800Y0222450D03*
X0408800Y0232450D03*
X0408800Y0242450D03*
X0408800Y0252450D03*
X0408800Y0262450D03*
X0408800Y0272450D03*
X0408800Y0283700D03*
X0398800Y0283700D03*
X0408800Y0296200D03*
X0408800Y0306200D03*
X0408800Y0316200D03*
X0408800Y0326200D03*
X0408800Y0336200D03*
X0408800Y0346200D03*
X0408800Y0356200D03*
X0408800Y0367450D03*
X0398800Y0367450D03*
X0378800Y0356200D03*
X0378800Y0346200D03*
X0378800Y0336200D03*
X0378800Y0326200D03*
X0378800Y0316200D03*
X0378800Y0306200D03*
X0378800Y0296200D03*
X0378800Y0272450D03*
X0216300Y0206200D03*
D11*
X0245900Y0108700D03*
X0255900Y0108700D03*
X0265900Y0108700D03*
X0275900Y0108700D03*
X0285900Y0108700D03*
X0306300Y0108700D03*
X0316300Y0108700D03*
X0326300Y0108700D03*
X0346500Y0108700D03*
X0356500Y0108700D03*
X0235050Y0084950D03*
X0235050Y0074950D03*
X0235050Y0064950D03*
X0235050Y0054950D03*
X0235050Y0044950D03*
X0235050Y0034950D03*
X0235050Y0024950D03*
X0225050Y0024950D03*
X0225050Y0034950D03*
X0225050Y0044950D03*
X0225050Y0054950D03*
X0225050Y0064950D03*
X0225050Y0074950D03*
X0225050Y0084950D03*
X0201050Y0009300D03*
X0191050Y0009300D03*
X0181050Y0009300D03*
X0171050Y0009300D03*
X0161050Y0009300D03*
X0151050Y0009300D03*
X0141050Y0009300D03*
X0131050Y0009300D03*
X0121050Y0009300D03*
X0111050Y0009300D03*
X0101050Y0009300D03*
X0091050Y0009300D03*
X0276100Y0340550D03*
X0276100Y0350550D03*
D12*
X0427900Y0363109D03*
X0427900Y0114700D03*
M02*
