G75*
%MOIN*%
%OFA0B0*%
%FSLAX25Y25*%
%IPPOS*%
%LPD*%
%AMOC8*
5,1,8,0,0,1.08239X$1,22.5*
%
%ADD10C,0.08661*%
%ADD11C,0.06394*%
D10*
X0010800Y0009950D03*
X0020800Y0009950D03*
X0030800Y0009950D03*
X0040800Y0009950D03*
X0050800Y0009950D03*
X0060800Y0009950D03*
X0070800Y0009950D03*
X0080800Y0009950D03*
X0090800Y0009950D03*
X0100800Y0009950D03*
X0110800Y0009950D03*
X0120800Y0009950D03*
X0130800Y0009950D03*
X0140800Y0009950D03*
X0150800Y0009950D03*
X0160800Y0009950D03*
X0170800Y0009950D03*
X0180800Y0009950D03*
X0190800Y0009950D03*
X0200800Y0009950D03*
X0200800Y0069950D03*
X0190800Y0069950D03*
X0180800Y0069950D03*
X0170800Y0069950D03*
X0160800Y0069950D03*
X0150800Y0069950D03*
X0140800Y0069950D03*
X0130800Y0069950D03*
X0120800Y0069950D03*
X0110800Y0069950D03*
X0100800Y0069950D03*
X0090800Y0069950D03*
X0080800Y0069950D03*
X0070800Y0069950D03*
X0060800Y0069950D03*
X0050800Y0069950D03*
X0040800Y0069950D03*
X0030800Y0069950D03*
X0020800Y0069950D03*
X0010800Y0069950D03*
D11*
X0180800Y0081200D03*
X0190800Y0081200D03*
X0200800Y0081200D03*
M02*
