G75*
%MOIN*%
%OFA0B0*%
%FSLAX25Y25*%
%IPPOS*%
%LPD*%
%AMOC8*
5,1,8,0,0,1.08239X$1,22.5*
%
%ADD10C,0.00600*%
%ADD11C,0.00400*%
%ADD12C,0.00700*%
D10*
X0006300Y0022200D02*
X0006300Y0044200D01*
X0006426Y0044202D01*
X0006551Y0044208D01*
X0006676Y0044218D01*
X0006801Y0044232D01*
X0006926Y0044249D01*
X0007050Y0044271D01*
X0007173Y0044296D01*
X0007295Y0044326D01*
X0007416Y0044359D01*
X0007536Y0044396D01*
X0007655Y0044436D01*
X0007772Y0044481D01*
X0007889Y0044529D01*
X0008003Y0044581D01*
X0008116Y0044636D01*
X0008227Y0044695D01*
X0008336Y0044757D01*
X0008443Y0044823D01*
X0008548Y0044892D01*
X0008651Y0044964D01*
X0008752Y0045039D01*
X0008850Y0045118D01*
X0008945Y0045200D01*
X0009038Y0045284D01*
X0009128Y0045372D01*
X0009216Y0045462D01*
X0009300Y0045555D01*
X0009382Y0045650D01*
X0009461Y0045748D01*
X0009536Y0045849D01*
X0009608Y0045952D01*
X0009677Y0046057D01*
X0009743Y0046164D01*
X0009805Y0046273D01*
X0009864Y0046384D01*
X0009919Y0046497D01*
X0009971Y0046611D01*
X0010019Y0046728D01*
X0010064Y0046845D01*
X0010104Y0046964D01*
X0010141Y0047084D01*
X0010174Y0047205D01*
X0010204Y0047327D01*
X0010229Y0047450D01*
X0010251Y0047574D01*
X0010268Y0047699D01*
X0010282Y0047824D01*
X0010292Y0047949D01*
X0010298Y0048074D01*
X0010300Y0048200D01*
X0010298Y0048326D01*
X0010292Y0048451D01*
X0010282Y0048576D01*
X0010268Y0048701D01*
X0010251Y0048826D01*
X0010229Y0048950D01*
X0010204Y0049073D01*
X0010174Y0049195D01*
X0010141Y0049316D01*
X0010104Y0049436D01*
X0010064Y0049555D01*
X0010019Y0049672D01*
X0009971Y0049789D01*
X0009919Y0049903D01*
X0009864Y0050016D01*
X0009805Y0050127D01*
X0009743Y0050236D01*
X0009677Y0050343D01*
X0009608Y0050448D01*
X0009536Y0050551D01*
X0009461Y0050652D01*
X0009382Y0050750D01*
X0009300Y0050845D01*
X0009216Y0050938D01*
X0009128Y0051028D01*
X0009038Y0051116D01*
X0008945Y0051200D01*
X0008850Y0051282D01*
X0008752Y0051361D01*
X0008651Y0051436D01*
X0008548Y0051508D01*
X0008443Y0051577D01*
X0008336Y0051643D01*
X0008227Y0051705D01*
X0008116Y0051764D01*
X0008003Y0051819D01*
X0007889Y0051871D01*
X0007772Y0051919D01*
X0007655Y0051964D01*
X0007536Y0052004D01*
X0007416Y0052041D01*
X0007295Y0052074D01*
X0007173Y0052104D01*
X0007050Y0052129D01*
X0006926Y0052151D01*
X0006801Y0052168D01*
X0006676Y0052182D01*
X0006551Y0052192D01*
X0006426Y0052198D01*
X0006300Y0052200D01*
X0006300Y0075200D01*
X0206300Y0075200D01*
X0206300Y0022200D01*
X0006300Y0022200D01*
X0006300Y0112027D02*
X0006300Y0134027D01*
X0006426Y0134029D01*
X0006551Y0134035D01*
X0006676Y0134045D01*
X0006801Y0134059D01*
X0006926Y0134076D01*
X0007050Y0134098D01*
X0007173Y0134123D01*
X0007295Y0134153D01*
X0007416Y0134186D01*
X0007536Y0134223D01*
X0007655Y0134263D01*
X0007772Y0134308D01*
X0007889Y0134356D01*
X0008003Y0134408D01*
X0008116Y0134463D01*
X0008227Y0134522D01*
X0008336Y0134584D01*
X0008443Y0134650D01*
X0008548Y0134719D01*
X0008651Y0134791D01*
X0008752Y0134866D01*
X0008850Y0134945D01*
X0008945Y0135027D01*
X0009038Y0135111D01*
X0009128Y0135199D01*
X0009216Y0135289D01*
X0009300Y0135382D01*
X0009382Y0135477D01*
X0009461Y0135575D01*
X0009536Y0135676D01*
X0009608Y0135779D01*
X0009677Y0135884D01*
X0009743Y0135991D01*
X0009805Y0136100D01*
X0009864Y0136211D01*
X0009919Y0136324D01*
X0009971Y0136438D01*
X0010019Y0136555D01*
X0010064Y0136672D01*
X0010104Y0136791D01*
X0010141Y0136911D01*
X0010174Y0137032D01*
X0010204Y0137154D01*
X0010229Y0137277D01*
X0010251Y0137401D01*
X0010268Y0137526D01*
X0010282Y0137651D01*
X0010292Y0137776D01*
X0010298Y0137901D01*
X0010300Y0138027D01*
X0010298Y0138153D01*
X0010292Y0138278D01*
X0010282Y0138403D01*
X0010268Y0138528D01*
X0010251Y0138653D01*
X0010229Y0138777D01*
X0010204Y0138900D01*
X0010174Y0139022D01*
X0010141Y0139143D01*
X0010104Y0139263D01*
X0010064Y0139382D01*
X0010019Y0139499D01*
X0009971Y0139616D01*
X0009919Y0139730D01*
X0009864Y0139843D01*
X0009805Y0139954D01*
X0009743Y0140063D01*
X0009677Y0140170D01*
X0009608Y0140275D01*
X0009536Y0140378D01*
X0009461Y0140479D01*
X0009382Y0140577D01*
X0009300Y0140672D01*
X0009216Y0140765D01*
X0009128Y0140855D01*
X0009038Y0140943D01*
X0008945Y0141027D01*
X0008850Y0141109D01*
X0008752Y0141188D01*
X0008651Y0141263D01*
X0008548Y0141335D01*
X0008443Y0141404D01*
X0008336Y0141470D01*
X0008227Y0141532D01*
X0008116Y0141591D01*
X0008003Y0141646D01*
X0007889Y0141698D01*
X0007772Y0141746D01*
X0007655Y0141791D01*
X0007536Y0141831D01*
X0007416Y0141868D01*
X0007295Y0141901D01*
X0007173Y0141931D01*
X0007050Y0141956D01*
X0006926Y0141978D01*
X0006801Y0141995D01*
X0006676Y0142009D01*
X0006551Y0142019D01*
X0006426Y0142025D01*
X0006300Y0142027D01*
X0006300Y0165027D01*
X0206300Y0165027D01*
X0206300Y0112027D01*
X0006300Y0112027D01*
X0423887Y0142806D02*
X0431294Y0142806D01*
X0423887Y0147744D01*
X0431294Y0147744D01*
X0428825Y0151407D02*
X0427591Y0150173D01*
X0425122Y0150173D01*
X0423887Y0151407D01*
X0423887Y0153876D01*
X0425122Y0155110D01*
X0427591Y0155110D01*
X0428825Y0153876D01*
X0428825Y0151407D01*
X0428825Y0164905D02*
X0423887Y0164905D01*
X0423887Y0167374D02*
X0427591Y0167374D01*
X0428825Y0168608D01*
X0427591Y0169843D01*
X0423887Y0169843D01*
X0425122Y0172271D02*
X0423887Y0173506D01*
X0423887Y0175975D01*
X0425122Y0177209D01*
X0427591Y0177209D01*
X0428825Y0175975D01*
X0428825Y0173506D01*
X0427591Y0172271D01*
X0425122Y0172271D01*
X0427591Y0167374D02*
X0428825Y0166140D01*
X0428825Y0164905D01*
X0428825Y0179638D02*
X0423887Y0179638D01*
X0426356Y0179638D02*
X0428825Y0182107D01*
X0428825Y0183341D01*
X0427591Y0185776D02*
X0428825Y0187011D01*
X0428825Y0189479D01*
X0427591Y0190714D01*
X0426356Y0190714D01*
X0426356Y0185776D01*
X0425122Y0185776D02*
X0427591Y0185776D01*
X0425122Y0185776D02*
X0423887Y0187011D01*
X0423887Y0189479D01*
X0425122Y0200509D02*
X0423887Y0201743D01*
X0423887Y0204212D01*
X0425122Y0205446D01*
X0426356Y0205446D01*
X0427591Y0204212D01*
X0427591Y0201743D01*
X0428825Y0200509D01*
X0430059Y0200509D01*
X0431294Y0201743D01*
X0431294Y0204212D01*
X0430059Y0205446D01*
X0427591Y0207875D02*
X0425122Y0207875D01*
X0423887Y0209110D01*
X0423887Y0212813D01*
X0423887Y0215241D02*
X0431294Y0215241D01*
X0428825Y0216476D02*
X0428825Y0218945D01*
X0427591Y0220179D01*
X0423887Y0220179D01*
X0423887Y0222608D02*
X0428825Y0222608D01*
X0428825Y0226311D01*
X0427591Y0227545D01*
X0423887Y0227545D01*
X0425122Y0229974D02*
X0423887Y0231208D01*
X0423887Y0233677D01*
X0426356Y0234912D02*
X0426356Y0229974D01*
X0425122Y0229974D02*
X0427591Y0229974D01*
X0428825Y0231208D01*
X0428825Y0233677D01*
X0427591Y0234912D01*
X0426356Y0234912D01*
X0425122Y0237340D02*
X0423887Y0238575D01*
X0423887Y0242278D01*
X0423887Y0244707D02*
X0431294Y0244707D01*
X0428825Y0242278D02*
X0428825Y0238575D01*
X0427591Y0237340D01*
X0425122Y0237340D01*
X0426356Y0244707D02*
X0428825Y0248410D01*
X0427591Y0250845D02*
X0428825Y0252080D01*
X0428825Y0254548D01*
X0427591Y0255783D01*
X0426356Y0255783D01*
X0426356Y0250845D01*
X0425122Y0250845D02*
X0427591Y0250845D01*
X0425122Y0250845D02*
X0423887Y0252080D01*
X0423887Y0254548D01*
X0423887Y0258211D02*
X0428825Y0258211D01*
X0428825Y0261915D01*
X0427591Y0263149D01*
X0423887Y0263149D01*
X0423887Y0272944D02*
X0431294Y0272944D01*
X0427591Y0274178D02*
X0423887Y0277882D01*
X0425122Y0280310D02*
X0423887Y0281545D01*
X0423887Y0285248D01*
X0427591Y0285248D01*
X0428825Y0284014D01*
X0428825Y0281545D01*
X0426356Y0281545D02*
X0426356Y0285248D01*
X0426356Y0287677D02*
X0428825Y0290145D01*
X0428825Y0291380D01*
X0428825Y0293815D02*
X0425122Y0293815D01*
X0423887Y0295050D01*
X0423887Y0298753D01*
X0428825Y0298753D01*
X0427591Y0301182D02*
X0426356Y0302416D01*
X0426356Y0304885D01*
X0425122Y0306119D01*
X0423887Y0304885D01*
X0423887Y0301182D01*
X0427591Y0301182D02*
X0428825Y0302416D01*
X0428825Y0306119D01*
X0427591Y0308548D02*
X0428825Y0309782D01*
X0428825Y0313485D01*
X0427591Y0315914D02*
X0428825Y0317148D01*
X0428825Y0319617D01*
X0427591Y0320852D01*
X0426356Y0320852D01*
X0426356Y0315914D01*
X0425122Y0315914D02*
X0427591Y0315914D01*
X0425122Y0315914D02*
X0423887Y0317148D01*
X0423887Y0319617D01*
X0423887Y0323280D02*
X0423887Y0325749D01*
X0423887Y0324515D02*
X0431294Y0324515D01*
X0431294Y0323280D01*
X0431294Y0328191D02*
X0431294Y0329426D01*
X0423887Y0329426D01*
X0423887Y0330660D02*
X0423887Y0328191D01*
X0423887Y0333102D02*
X0425122Y0333102D01*
X0427591Y0333102D02*
X0432528Y0333102D01*
X0425122Y0313485D02*
X0423887Y0312251D01*
X0423887Y0308548D01*
X0426356Y0309782D02*
X0426356Y0312251D01*
X0425122Y0313485D01*
X0426356Y0309782D02*
X0427591Y0308548D01*
X0428825Y0287677D02*
X0423887Y0287677D01*
X0426356Y0281545D02*
X0425122Y0280310D01*
X0431294Y0277882D02*
X0426356Y0272944D01*
X0423887Y0248410D02*
X0426356Y0244707D01*
X0428825Y0216476D02*
X0427591Y0215241D01*
X0428825Y0212813D02*
X0428825Y0209110D01*
X0427591Y0207875D01*
D11*
X0014314Y0163654D02*
X0014314Y0160234D01*
X0013630Y0159550D01*
X0012262Y0159550D01*
X0011578Y0160234D01*
X0011578Y0163654D01*
X0010170Y0162286D02*
X0008802Y0163654D01*
X0008802Y0159550D01*
X0007435Y0159550D02*
X0010170Y0159550D01*
X0009760Y0073904D02*
X0008392Y0073904D01*
X0007708Y0073220D01*
X0007708Y0072536D01*
X0010444Y0069800D01*
X0007708Y0069800D01*
X0011851Y0070484D02*
X0011851Y0073904D01*
X0010444Y0073220D02*
X0009760Y0073904D01*
X0011851Y0070484D02*
X0012535Y0069800D01*
X0013903Y0069800D01*
X0014587Y0070484D01*
X0014587Y0073904D01*
D12*
X0037507Y0048521D02*
X0040143Y0051157D01*
X0042790Y0049839D02*
X0042790Y0048521D01*
X0044108Y0047203D01*
X0042790Y0045886D01*
X0042790Y0044568D01*
X0044108Y0043250D01*
X0046744Y0043250D01*
X0048061Y0044568D01*
X0050709Y0044568D02*
X0052027Y0043250D01*
X0054662Y0043250D01*
X0055980Y0044568D01*
X0055980Y0049839D01*
X0054662Y0051157D01*
X0052027Y0051157D01*
X0050709Y0049839D01*
X0048061Y0049839D02*
X0046744Y0051157D01*
X0044108Y0051157D01*
X0042790Y0049839D01*
X0044108Y0047203D02*
X0045426Y0047203D01*
X0040143Y0043250D02*
X0037507Y0045886D01*
X0037507Y0048521D01*
X0058628Y0051157D02*
X0058628Y0044568D01*
X0059946Y0043250D01*
X0062581Y0043250D01*
X0063899Y0044568D01*
X0063899Y0051157D01*
X0066542Y0051157D02*
X0069178Y0048521D01*
X0069178Y0045886D01*
X0066542Y0043250D01*
X0079740Y0043250D02*
X0082376Y0043250D01*
X0081058Y0043250D02*
X0081058Y0051157D01*
X0082376Y0051157D01*
X0085024Y0047203D02*
X0085024Y0045886D01*
X0090295Y0045886D01*
X0090295Y0047203D02*
X0088977Y0048521D01*
X0086341Y0048521D01*
X0085024Y0047203D01*
X0086341Y0043250D02*
X0088977Y0043250D01*
X0090295Y0044568D01*
X0090295Y0047203D01*
X0092940Y0048521D02*
X0096894Y0045886D01*
X0092940Y0043250D01*
X0096894Y0043250D02*
X0096894Y0051157D01*
X0099541Y0048521D02*
X0103495Y0048521D01*
X0104812Y0047203D01*
X0104812Y0044568D01*
X0103495Y0043250D01*
X0099541Y0043250D01*
X0107460Y0044568D02*
X0107460Y0047203D01*
X0108778Y0048521D01*
X0111413Y0048521D01*
X0112731Y0047203D01*
X0112731Y0044568D01*
X0111413Y0043250D01*
X0108778Y0043250D01*
X0107460Y0044568D01*
X0115379Y0044568D02*
X0116697Y0043250D01*
X0119332Y0043250D01*
X0120650Y0044568D01*
X0119332Y0047203D02*
X0116697Y0047203D01*
X0115379Y0045886D01*
X0115379Y0044568D01*
X0119332Y0047203D02*
X0120650Y0048521D01*
X0120650Y0049839D01*
X0119332Y0051157D01*
X0116697Y0051157D01*
X0115379Y0049839D01*
X0116097Y0134277D02*
X0114779Y0135595D01*
X0114779Y0136912D01*
X0116097Y0138230D01*
X0118732Y0138230D01*
X0120050Y0139548D01*
X0120050Y0140866D01*
X0118732Y0142184D01*
X0116097Y0142184D01*
X0114779Y0140866D01*
X0112131Y0138230D02*
X0112131Y0135595D01*
X0110813Y0134277D01*
X0108178Y0134277D01*
X0106860Y0135595D01*
X0106860Y0138230D01*
X0108178Y0139548D01*
X0110813Y0139548D01*
X0112131Y0138230D01*
X0116097Y0134277D02*
X0118732Y0134277D01*
X0120050Y0135595D01*
X0104212Y0135595D02*
X0102895Y0134277D01*
X0098941Y0134277D01*
X0096294Y0134277D02*
X0096294Y0142184D01*
X0098941Y0139548D02*
X0102895Y0139548D01*
X0104212Y0138230D01*
X0104212Y0135595D01*
X0096294Y0136912D02*
X0092340Y0139548D01*
X0089695Y0138230D02*
X0088377Y0139548D01*
X0085741Y0139548D01*
X0084424Y0138230D01*
X0084424Y0136912D01*
X0089695Y0136912D01*
X0089695Y0135595D02*
X0089695Y0138230D01*
X0089695Y0135595D02*
X0088377Y0134277D01*
X0085741Y0134277D01*
X0081776Y0134277D02*
X0079140Y0134277D01*
X0080458Y0134277D02*
X0080458Y0142184D01*
X0081776Y0142184D01*
X0092340Y0134277D02*
X0096294Y0136912D01*
X0068578Y0136912D02*
X0068578Y0139548D01*
X0065942Y0142184D01*
X0063299Y0142184D02*
X0063299Y0135595D01*
X0061981Y0134277D01*
X0059346Y0134277D01*
X0058028Y0135595D01*
X0058028Y0142184D01*
X0055380Y0140866D02*
X0055380Y0135595D01*
X0054062Y0134277D01*
X0051427Y0134277D01*
X0050109Y0135595D01*
X0047461Y0138230D02*
X0042190Y0138230D01*
X0043508Y0134277D02*
X0043508Y0142184D01*
X0047461Y0138230D01*
X0050109Y0140866D02*
X0051427Y0142184D01*
X0054062Y0142184D01*
X0055380Y0140866D01*
X0065942Y0134277D02*
X0068578Y0136912D01*
X0039543Y0134277D02*
X0036907Y0136912D01*
X0036907Y0139548D01*
X0039543Y0142184D01*
M02*
