G75*
%MOIN*%
%OFA0B0*%
%FSLAX25Y25*%
%IPPOS*%
%LPD*%
%AMOC8*
5,1,8,0,0,1.08239X$1,22.5*
%
%ADD10C,0.08268*%
%ADD11C,0.06000*%
%ADD12OC8,0.02381*%
%ADD13C,0.00600*%
D10*
X0010800Y0009950D03*
X0020800Y0009950D03*
X0030800Y0009950D03*
X0040800Y0009950D03*
X0050800Y0009950D03*
X0060800Y0009950D03*
X0070800Y0009950D03*
X0080800Y0009950D03*
X0090800Y0009950D03*
X0100800Y0009950D03*
X0110800Y0009950D03*
X0120800Y0009950D03*
X0130800Y0009950D03*
X0140800Y0009950D03*
X0150800Y0009950D03*
X0160800Y0009950D03*
X0170800Y0009950D03*
X0180800Y0009950D03*
X0190800Y0009950D03*
X0200800Y0009950D03*
X0200800Y0069950D03*
X0190800Y0069950D03*
X0180800Y0069950D03*
X0170800Y0069950D03*
X0160800Y0069950D03*
X0150800Y0069950D03*
X0140800Y0069950D03*
X0130800Y0069950D03*
X0120800Y0069950D03*
X0110800Y0069950D03*
X0100800Y0069950D03*
X0090800Y0069950D03*
X0080800Y0069950D03*
X0070800Y0069950D03*
X0060800Y0069950D03*
X0050800Y0069950D03*
X0040800Y0069950D03*
X0030800Y0069950D03*
X0020800Y0069950D03*
X0010800Y0069950D03*
D11*
X0180800Y0081200D03*
X0190800Y0081200D03*
X0200800Y0081200D03*
D12*
X0007900Y0054100D03*
X0007300Y0039700D03*
X0007300Y0025900D03*
D13*
X0002683Y0002687D02*
X0002683Y0077917D01*
X0003721Y0077917D01*
X0003725Y0077913D01*
X0103875Y0077913D01*
X0103879Y0077917D01*
X0105721Y0077917D01*
X0105725Y0077913D01*
X0163275Y0077913D01*
X0164087Y0078725D01*
X0171675Y0086313D01*
X0193875Y0086313D01*
X0193879Y0086317D01*
X0195721Y0086317D01*
X0195725Y0086313D01*
X0209313Y0086313D01*
X0209313Y0002687D01*
X0002683Y0002687D01*
X0002683Y0002726D02*
X0209313Y0002726D01*
X0209313Y0003325D02*
X0002683Y0003325D01*
X0002683Y0003923D02*
X0209313Y0003923D01*
X0209313Y0004522D02*
X0002683Y0004522D01*
X0002683Y0005120D02*
X0008816Y0005120D01*
X0009761Y0004729D02*
X0011839Y0004729D01*
X0013758Y0005524D01*
X0015226Y0006992D01*
X0015800Y0008377D01*
X0016374Y0006992D01*
X0017842Y0005524D01*
X0019761Y0004729D01*
X0021839Y0004729D01*
X0023758Y0005524D01*
X0025226Y0006992D01*
X0025800Y0008377D01*
X0026374Y0006992D01*
X0027842Y0005524D01*
X0029761Y0004729D01*
X0031839Y0004729D01*
X0033758Y0005524D01*
X0035226Y0006992D01*
X0035800Y0008377D01*
X0036374Y0006992D01*
X0037842Y0005524D01*
X0039761Y0004729D01*
X0041839Y0004729D01*
X0043758Y0005524D01*
X0045226Y0006992D01*
X0045800Y0008377D01*
X0046374Y0006992D01*
X0047842Y0005524D01*
X0049761Y0004729D01*
X0051839Y0004729D01*
X0053758Y0005524D01*
X0055226Y0006992D01*
X0055800Y0008377D01*
X0056374Y0006992D01*
X0057842Y0005524D01*
X0059761Y0004729D01*
X0061839Y0004729D01*
X0063758Y0005524D01*
X0065226Y0006992D01*
X0065800Y0008377D01*
X0066374Y0006992D01*
X0067842Y0005524D01*
X0069761Y0004729D01*
X0071839Y0004729D01*
X0073758Y0005524D01*
X0075226Y0006992D01*
X0075800Y0008377D01*
X0076374Y0006992D01*
X0077842Y0005524D01*
X0079761Y0004729D01*
X0081839Y0004729D01*
X0083758Y0005524D01*
X0085226Y0006992D01*
X0085800Y0008377D01*
X0086374Y0006992D01*
X0087842Y0005524D01*
X0089761Y0004729D01*
X0091839Y0004729D01*
X0093758Y0005524D01*
X0095226Y0006992D01*
X0095800Y0008377D01*
X0096374Y0006992D01*
X0097842Y0005524D01*
X0099761Y0004729D01*
X0101839Y0004729D01*
X0103758Y0005524D01*
X0105226Y0006992D01*
X0105800Y0008377D01*
X0106374Y0006992D01*
X0107842Y0005524D01*
X0109761Y0004729D01*
X0111839Y0004729D01*
X0113758Y0005524D01*
X0115226Y0006992D01*
X0115800Y0008377D01*
X0116374Y0006992D01*
X0117842Y0005524D01*
X0119761Y0004729D01*
X0121839Y0004729D01*
X0123758Y0005524D01*
X0125226Y0006992D01*
X0125800Y0008377D01*
X0126374Y0006992D01*
X0127842Y0005524D01*
X0129761Y0004729D01*
X0131839Y0004729D01*
X0133758Y0005524D01*
X0135226Y0006992D01*
X0135800Y0008377D01*
X0136374Y0006992D01*
X0137842Y0005524D01*
X0139761Y0004729D01*
X0141839Y0004729D01*
X0143758Y0005524D01*
X0145226Y0006992D01*
X0145800Y0008377D01*
X0146374Y0006992D01*
X0147842Y0005524D01*
X0149761Y0004729D01*
X0151839Y0004729D01*
X0153758Y0005524D01*
X0155226Y0006992D01*
X0155800Y0008377D01*
X0156374Y0006992D01*
X0157842Y0005524D01*
X0159761Y0004729D01*
X0161839Y0004729D01*
X0163758Y0005524D01*
X0165226Y0006992D01*
X0165800Y0008377D01*
X0166374Y0006992D01*
X0167842Y0005524D01*
X0169761Y0004729D01*
X0171839Y0004729D01*
X0173758Y0005524D01*
X0175226Y0006992D01*
X0175800Y0008377D01*
X0176374Y0006992D01*
X0177842Y0005524D01*
X0179761Y0004729D01*
X0181839Y0004729D01*
X0183758Y0005524D01*
X0185226Y0006992D01*
X0185800Y0008377D01*
X0186374Y0006992D01*
X0187842Y0005524D01*
X0189761Y0004729D01*
X0191839Y0004729D01*
X0193758Y0005524D01*
X0195226Y0006992D01*
X0195922Y0008672D01*
X0196135Y0008018D01*
X0196495Y0007312D01*
X0196960Y0006671D01*
X0197521Y0006110D01*
X0198162Y0005645D01*
X0198868Y0005285D01*
X0199621Y0005040D01*
X0200404Y0004916D01*
X0200500Y0004916D01*
X0200500Y0009650D01*
X0201100Y0009650D01*
X0201100Y0010250D01*
X0200500Y0010250D01*
X0200500Y0014984D01*
X0200404Y0014984D01*
X0199621Y0014860D01*
X0198868Y0014615D01*
X0198162Y0014255D01*
X0197521Y0013790D01*
X0196960Y0013229D01*
X0196495Y0012588D01*
X0196135Y0011882D01*
X0195922Y0011228D01*
X0195226Y0012908D01*
X0193758Y0014376D01*
X0191839Y0015171D01*
X0189761Y0015171D01*
X0187842Y0014376D01*
X0186374Y0012908D01*
X0185800Y0011523D01*
X0185226Y0012908D01*
X0183758Y0014376D01*
X0181839Y0015171D01*
X0179761Y0015171D01*
X0177842Y0014376D01*
X0176374Y0012908D01*
X0175800Y0011523D01*
X0175226Y0012908D01*
X0173758Y0014376D01*
X0171839Y0015171D01*
X0169761Y0015171D01*
X0167842Y0014376D01*
X0166374Y0012908D01*
X0165800Y0011523D01*
X0165226Y0012908D01*
X0163758Y0014376D01*
X0161839Y0015171D01*
X0159761Y0015171D01*
X0157842Y0014376D01*
X0156374Y0012908D01*
X0155800Y0011523D01*
X0155226Y0012908D01*
X0153758Y0014376D01*
X0151839Y0015171D01*
X0149761Y0015171D01*
X0147842Y0014376D01*
X0146374Y0012908D01*
X0145800Y0011523D01*
X0145226Y0012908D01*
X0143758Y0014376D01*
X0141839Y0015171D01*
X0139761Y0015171D01*
X0137842Y0014376D01*
X0136374Y0012908D01*
X0135800Y0011523D01*
X0135226Y0012908D01*
X0133758Y0014376D01*
X0131839Y0015171D01*
X0129761Y0015171D01*
X0127842Y0014376D01*
X0126374Y0012908D01*
X0125800Y0011523D01*
X0125226Y0012908D01*
X0123758Y0014376D01*
X0121839Y0015171D01*
X0119761Y0015171D01*
X0117842Y0014376D01*
X0116374Y0012908D01*
X0115800Y0011523D01*
X0115226Y0012908D01*
X0113758Y0014376D01*
X0111839Y0015171D01*
X0109761Y0015171D01*
X0107842Y0014376D01*
X0106374Y0012908D01*
X0105800Y0011523D01*
X0105226Y0012908D01*
X0103758Y0014376D01*
X0101839Y0015171D01*
X0099761Y0015171D01*
X0097842Y0014376D01*
X0096374Y0012908D01*
X0095800Y0011523D01*
X0095226Y0012908D01*
X0093758Y0014376D01*
X0091839Y0015171D01*
X0089761Y0015171D01*
X0087842Y0014376D01*
X0086374Y0012908D01*
X0085800Y0011523D01*
X0085226Y0012908D01*
X0083758Y0014376D01*
X0081839Y0015171D01*
X0079761Y0015171D01*
X0077842Y0014376D01*
X0076374Y0012908D01*
X0075800Y0011523D01*
X0075226Y0012908D01*
X0073758Y0014376D01*
X0071839Y0015171D01*
X0069761Y0015171D01*
X0067842Y0014376D01*
X0066374Y0012908D01*
X0065800Y0011523D01*
X0065226Y0012908D01*
X0063758Y0014376D01*
X0061839Y0015171D01*
X0059761Y0015171D01*
X0057842Y0014376D01*
X0056374Y0012908D01*
X0055800Y0011523D01*
X0055226Y0012908D01*
X0053758Y0014376D01*
X0051839Y0015171D01*
X0049761Y0015171D01*
X0047842Y0014376D01*
X0046374Y0012908D01*
X0045800Y0011523D01*
X0045226Y0012908D01*
X0043758Y0014376D01*
X0041839Y0015171D01*
X0039761Y0015171D01*
X0037842Y0014376D01*
X0036374Y0012908D01*
X0035800Y0011523D01*
X0035226Y0012908D01*
X0033758Y0014376D01*
X0031839Y0015171D01*
X0029761Y0015171D01*
X0027842Y0014376D01*
X0026374Y0012908D01*
X0025800Y0011523D01*
X0025226Y0012908D01*
X0023758Y0014376D01*
X0021839Y0015171D01*
X0019761Y0015171D01*
X0017842Y0014376D01*
X0016374Y0012908D01*
X0015800Y0011523D01*
X0015226Y0012908D01*
X0013758Y0014376D01*
X0011839Y0015171D01*
X0009761Y0015171D01*
X0007842Y0014376D01*
X0006374Y0012908D01*
X0005579Y0010989D01*
X0005579Y0008911D01*
X0006374Y0006992D01*
X0007842Y0005524D01*
X0009761Y0004729D01*
X0007647Y0005719D02*
X0002683Y0005719D01*
X0002683Y0006317D02*
X0007049Y0006317D01*
X0006450Y0006916D02*
X0002683Y0006916D01*
X0002683Y0007514D02*
X0006157Y0007514D01*
X0005909Y0008113D02*
X0002683Y0008113D01*
X0002683Y0008711D02*
X0005662Y0008711D01*
X0005579Y0009310D02*
X0002683Y0009310D01*
X0002683Y0009908D02*
X0005579Y0009908D01*
X0005579Y0010507D02*
X0002683Y0010507D01*
X0002683Y0011105D02*
X0005627Y0011105D01*
X0005875Y0011704D02*
X0002683Y0011704D01*
X0002683Y0012302D02*
X0006123Y0012302D01*
X0006371Y0012901D02*
X0002683Y0012901D01*
X0002683Y0013499D02*
X0006966Y0013499D01*
X0007564Y0014098D02*
X0002683Y0014098D01*
X0002683Y0014697D02*
X0008615Y0014697D01*
X0012985Y0014697D02*
X0018615Y0014697D01*
X0017564Y0014098D02*
X0014036Y0014098D01*
X0014634Y0013499D02*
X0016966Y0013499D01*
X0016371Y0012901D02*
X0015229Y0012901D01*
X0015477Y0012302D02*
X0016123Y0012302D01*
X0015875Y0011704D02*
X0015725Y0011704D01*
X0022985Y0014697D02*
X0028615Y0014697D01*
X0027564Y0014098D02*
X0024036Y0014098D01*
X0024634Y0013499D02*
X0026966Y0013499D01*
X0026371Y0012901D02*
X0025229Y0012901D01*
X0025477Y0012302D02*
X0026123Y0012302D01*
X0025875Y0011704D02*
X0025725Y0011704D01*
X0032985Y0014697D02*
X0038615Y0014697D01*
X0037564Y0014098D02*
X0034036Y0014098D01*
X0034634Y0013499D02*
X0036966Y0013499D01*
X0036371Y0012901D02*
X0035229Y0012901D01*
X0035477Y0012302D02*
X0036123Y0012302D01*
X0035875Y0011704D02*
X0035725Y0011704D01*
X0035690Y0008113D02*
X0035909Y0008113D01*
X0036157Y0007514D02*
X0035443Y0007514D01*
X0035150Y0006916D02*
X0036450Y0006916D01*
X0037049Y0006317D02*
X0034551Y0006317D01*
X0033953Y0005719D02*
X0037647Y0005719D01*
X0038816Y0005120D02*
X0032784Y0005120D01*
X0028816Y0005120D02*
X0022784Y0005120D01*
X0023953Y0005719D02*
X0027647Y0005719D01*
X0027049Y0006317D02*
X0024551Y0006317D01*
X0025150Y0006916D02*
X0026450Y0006916D01*
X0026157Y0007514D02*
X0025443Y0007514D01*
X0025690Y0008113D02*
X0025909Y0008113D01*
X0018816Y0005120D02*
X0012784Y0005120D01*
X0013953Y0005719D02*
X0017647Y0005719D01*
X0017049Y0006317D02*
X0014551Y0006317D01*
X0015150Y0006916D02*
X0016450Y0006916D01*
X0016157Y0007514D02*
X0015443Y0007514D01*
X0015690Y0008113D02*
X0015909Y0008113D01*
X0002683Y0015295D02*
X0209313Y0015295D01*
X0209313Y0014697D02*
X0202482Y0014697D01*
X0202732Y0014615D02*
X0201979Y0014860D01*
X0201196Y0014984D01*
X0201100Y0014984D01*
X0201100Y0010250D01*
X0205834Y0010250D01*
X0205834Y0010346D01*
X0205710Y0011129D01*
X0205465Y0011882D01*
X0205105Y0012588D01*
X0204640Y0013229D01*
X0204079Y0013790D01*
X0203438Y0014255D01*
X0202732Y0014615D01*
X0203655Y0014098D02*
X0209313Y0014098D01*
X0209313Y0013499D02*
X0204369Y0013499D01*
X0204878Y0012901D02*
X0209313Y0012901D01*
X0209313Y0012302D02*
X0205251Y0012302D01*
X0205523Y0011704D02*
X0209313Y0011704D01*
X0209313Y0011105D02*
X0205714Y0011105D01*
X0205808Y0010507D02*
X0209313Y0010507D01*
X0209313Y0009908D02*
X0201100Y0009908D01*
X0201100Y0009650D02*
X0205834Y0009650D01*
X0205834Y0009554D01*
X0205710Y0008771D01*
X0205465Y0008018D01*
X0205105Y0007312D01*
X0204640Y0006671D01*
X0204079Y0006110D01*
X0203438Y0005645D01*
X0202732Y0005285D01*
X0201979Y0005040D01*
X0201196Y0004916D01*
X0201100Y0004916D01*
X0201100Y0009650D01*
X0201100Y0009310D02*
X0200500Y0009310D01*
X0200500Y0008711D02*
X0201100Y0008711D01*
X0201100Y0008113D02*
X0200500Y0008113D01*
X0200500Y0007514D02*
X0201100Y0007514D01*
X0201100Y0006916D02*
X0200500Y0006916D01*
X0200500Y0006317D02*
X0201100Y0006317D01*
X0201100Y0005719D02*
X0200500Y0005719D01*
X0200500Y0005120D02*
X0201100Y0005120D01*
X0202226Y0005120D02*
X0209313Y0005120D01*
X0209313Y0005719D02*
X0203540Y0005719D01*
X0204286Y0006317D02*
X0209313Y0006317D01*
X0209313Y0006916D02*
X0204818Y0006916D01*
X0205209Y0007514D02*
X0209313Y0007514D01*
X0209313Y0008113D02*
X0205496Y0008113D01*
X0205690Y0008711D02*
X0209313Y0008711D01*
X0209313Y0009310D02*
X0205795Y0009310D01*
X0201100Y0010507D02*
X0200500Y0010507D01*
X0200500Y0011105D02*
X0201100Y0011105D01*
X0201100Y0011704D02*
X0200500Y0011704D01*
X0200500Y0012302D02*
X0201100Y0012302D01*
X0201100Y0012901D02*
X0200500Y0012901D01*
X0200500Y0013499D02*
X0201100Y0013499D01*
X0201100Y0014098D02*
X0200500Y0014098D01*
X0200500Y0014697D02*
X0201100Y0014697D01*
X0199118Y0014697D02*
X0192985Y0014697D01*
X0194036Y0014098D02*
X0197945Y0014098D01*
X0197231Y0013499D02*
X0194634Y0013499D01*
X0195229Y0012901D02*
X0196722Y0012901D01*
X0196349Y0012302D02*
X0195477Y0012302D01*
X0195725Y0011704D02*
X0196077Y0011704D01*
X0196104Y0008113D02*
X0195690Y0008113D01*
X0195443Y0007514D02*
X0196391Y0007514D01*
X0196782Y0006916D02*
X0195150Y0006916D01*
X0194551Y0006317D02*
X0197314Y0006317D01*
X0198060Y0005719D02*
X0193953Y0005719D01*
X0192784Y0005120D02*
X0199374Y0005120D01*
X0188816Y0005120D02*
X0182784Y0005120D01*
X0183953Y0005719D02*
X0187647Y0005719D01*
X0187049Y0006317D02*
X0184551Y0006317D01*
X0185150Y0006916D02*
X0186450Y0006916D01*
X0186157Y0007514D02*
X0185443Y0007514D01*
X0185690Y0008113D02*
X0185909Y0008113D01*
X0185875Y0011704D02*
X0185725Y0011704D01*
X0185477Y0012302D02*
X0186123Y0012302D01*
X0186371Y0012901D02*
X0185229Y0012901D01*
X0184634Y0013499D02*
X0186966Y0013499D01*
X0187564Y0014098D02*
X0184036Y0014098D01*
X0182985Y0014697D02*
X0188615Y0014697D01*
X0178615Y0014697D02*
X0172985Y0014697D01*
X0174036Y0014098D02*
X0177564Y0014098D01*
X0176966Y0013499D02*
X0174634Y0013499D01*
X0175229Y0012901D02*
X0176371Y0012901D01*
X0176123Y0012302D02*
X0175477Y0012302D01*
X0175725Y0011704D02*
X0175875Y0011704D01*
X0168615Y0014697D02*
X0162985Y0014697D01*
X0164036Y0014098D02*
X0167564Y0014098D01*
X0166966Y0013499D02*
X0164634Y0013499D01*
X0165229Y0012901D02*
X0166371Y0012901D01*
X0166123Y0012302D02*
X0165477Y0012302D01*
X0165725Y0011704D02*
X0165875Y0011704D01*
X0165909Y0008113D02*
X0165690Y0008113D01*
X0165443Y0007514D02*
X0166157Y0007514D01*
X0166450Y0006916D02*
X0165150Y0006916D01*
X0164551Y0006317D02*
X0167049Y0006317D01*
X0167647Y0005719D02*
X0163953Y0005719D01*
X0162784Y0005120D02*
X0168816Y0005120D01*
X0172784Y0005120D02*
X0178816Y0005120D01*
X0177647Y0005719D02*
X0173953Y0005719D01*
X0174551Y0006317D02*
X0177049Y0006317D01*
X0176450Y0006916D02*
X0175150Y0006916D01*
X0175443Y0007514D02*
X0176157Y0007514D01*
X0175909Y0008113D02*
X0175690Y0008113D01*
X0158816Y0005120D02*
X0152784Y0005120D01*
X0153953Y0005719D02*
X0157647Y0005719D01*
X0157049Y0006317D02*
X0154551Y0006317D01*
X0155150Y0006916D02*
X0156450Y0006916D01*
X0156157Y0007514D02*
X0155443Y0007514D01*
X0155690Y0008113D02*
X0155909Y0008113D01*
X0155875Y0011704D02*
X0155725Y0011704D01*
X0155477Y0012302D02*
X0156123Y0012302D01*
X0156371Y0012901D02*
X0155229Y0012901D01*
X0154634Y0013499D02*
X0156966Y0013499D01*
X0157564Y0014098D02*
X0154036Y0014098D01*
X0152985Y0014697D02*
X0158615Y0014697D01*
X0148615Y0014697D02*
X0142985Y0014697D01*
X0144036Y0014098D02*
X0147564Y0014098D01*
X0146966Y0013499D02*
X0144634Y0013499D01*
X0145229Y0012901D02*
X0146371Y0012901D01*
X0146123Y0012302D02*
X0145477Y0012302D01*
X0145725Y0011704D02*
X0145875Y0011704D01*
X0138615Y0014697D02*
X0132985Y0014697D01*
X0134036Y0014098D02*
X0137564Y0014098D01*
X0136966Y0013499D02*
X0134634Y0013499D01*
X0135229Y0012901D02*
X0136371Y0012901D01*
X0136123Y0012302D02*
X0135477Y0012302D01*
X0135725Y0011704D02*
X0135875Y0011704D01*
X0135909Y0008113D02*
X0135690Y0008113D01*
X0135443Y0007514D02*
X0136157Y0007514D01*
X0136450Y0006916D02*
X0135150Y0006916D01*
X0134551Y0006317D02*
X0137049Y0006317D01*
X0137647Y0005719D02*
X0133953Y0005719D01*
X0132784Y0005120D02*
X0138816Y0005120D01*
X0142784Y0005120D02*
X0148816Y0005120D01*
X0147647Y0005719D02*
X0143953Y0005719D01*
X0144551Y0006317D02*
X0147049Y0006317D01*
X0146450Y0006916D02*
X0145150Y0006916D01*
X0145443Y0007514D02*
X0146157Y0007514D01*
X0145909Y0008113D02*
X0145690Y0008113D01*
X0128816Y0005120D02*
X0122784Y0005120D01*
X0123953Y0005719D02*
X0127647Y0005719D01*
X0127049Y0006317D02*
X0124551Y0006317D01*
X0125150Y0006916D02*
X0126450Y0006916D01*
X0126157Y0007514D02*
X0125443Y0007514D01*
X0125690Y0008113D02*
X0125909Y0008113D01*
X0125875Y0011704D02*
X0125725Y0011704D01*
X0125477Y0012302D02*
X0126123Y0012302D01*
X0126371Y0012901D02*
X0125229Y0012901D01*
X0124634Y0013499D02*
X0126966Y0013499D01*
X0127564Y0014098D02*
X0124036Y0014098D01*
X0122985Y0014697D02*
X0128615Y0014697D01*
X0118615Y0014697D02*
X0112985Y0014697D01*
X0114036Y0014098D02*
X0117564Y0014098D01*
X0116966Y0013499D02*
X0114634Y0013499D01*
X0115229Y0012901D02*
X0116371Y0012901D01*
X0116123Y0012302D02*
X0115477Y0012302D01*
X0115725Y0011704D02*
X0115875Y0011704D01*
X0108615Y0014697D02*
X0102985Y0014697D01*
X0104036Y0014098D02*
X0107564Y0014098D01*
X0106966Y0013499D02*
X0104634Y0013499D01*
X0105229Y0012901D02*
X0106371Y0012901D01*
X0106123Y0012302D02*
X0105477Y0012302D01*
X0105725Y0011704D02*
X0105875Y0011704D01*
X0098615Y0014697D02*
X0092985Y0014697D01*
X0094036Y0014098D02*
X0097564Y0014098D01*
X0096966Y0013499D02*
X0094634Y0013499D01*
X0095229Y0012901D02*
X0096371Y0012901D01*
X0096123Y0012302D02*
X0095477Y0012302D01*
X0095725Y0011704D02*
X0095875Y0011704D01*
X0095909Y0008113D02*
X0095690Y0008113D01*
X0095443Y0007514D02*
X0096157Y0007514D01*
X0096450Y0006916D02*
X0095150Y0006916D01*
X0094551Y0006317D02*
X0097049Y0006317D01*
X0097647Y0005719D02*
X0093953Y0005719D01*
X0092784Y0005120D02*
X0098816Y0005120D01*
X0102784Y0005120D02*
X0108816Y0005120D01*
X0107647Y0005719D02*
X0103953Y0005719D01*
X0104551Y0006317D02*
X0107049Y0006317D01*
X0106450Y0006916D02*
X0105150Y0006916D01*
X0105443Y0007514D02*
X0106157Y0007514D01*
X0105909Y0008113D02*
X0105690Y0008113D01*
X0112784Y0005120D02*
X0118816Y0005120D01*
X0117647Y0005719D02*
X0113953Y0005719D01*
X0114551Y0006317D02*
X0117049Y0006317D01*
X0116450Y0006916D02*
X0115150Y0006916D01*
X0115443Y0007514D02*
X0116157Y0007514D01*
X0115909Y0008113D02*
X0115690Y0008113D01*
X0088816Y0005120D02*
X0082784Y0005120D01*
X0083953Y0005719D02*
X0087647Y0005719D01*
X0087049Y0006317D02*
X0084551Y0006317D01*
X0085150Y0006916D02*
X0086450Y0006916D01*
X0086157Y0007514D02*
X0085443Y0007514D01*
X0085690Y0008113D02*
X0085909Y0008113D01*
X0085875Y0011704D02*
X0085725Y0011704D01*
X0085477Y0012302D02*
X0086123Y0012302D01*
X0086371Y0012901D02*
X0085229Y0012901D01*
X0084634Y0013499D02*
X0086966Y0013499D01*
X0087564Y0014098D02*
X0084036Y0014098D01*
X0082985Y0014697D02*
X0088615Y0014697D01*
X0078615Y0014697D02*
X0072985Y0014697D01*
X0074036Y0014098D02*
X0077564Y0014098D01*
X0076966Y0013499D02*
X0074634Y0013499D01*
X0075229Y0012901D02*
X0076371Y0012901D01*
X0076123Y0012302D02*
X0075477Y0012302D01*
X0075725Y0011704D02*
X0075875Y0011704D01*
X0068615Y0014697D02*
X0062985Y0014697D01*
X0064036Y0014098D02*
X0067564Y0014098D01*
X0066966Y0013499D02*
X0064634Y0013499D01*
X0065229Y0012901D02*
X0066371Y0012901D01*
X0066123Y0012302D02*
X0065477Y0012302D01*
X0065725Y0011704D02*
X0065875Y0011704D01*
X0065909Y0008113D02*
X0065690Y0008113D01*
X0065443Y0007514D02*
X0066157Y0007514D01*
X0066450Y0006916D02*
X0065150Y0006916D01*
X0064551Y0006317D02*
X0067049Y0006317D01*
X0067647Y0005719D02*
X0063953Y0005719D01*
X0062784Y0005120D02*
X0068816Y0005120D01*
X0072784Y0005120D02*
X0078816Y0005120D01*
X0077647Y0005719D02*
X0073953Y0005719D01*
X0074551Y0006317D02*
X0077049Y0006317D01*
X0076450Y0006916D02*
X0075150Y0006916D01*
X0075443Y0007514D02*
X0076157Y0007514D01*
X0075909Y0008113D02*
X0075690Y0008113D01*
X0058816Y0005120D02*
X0052784Y0005120D01*
X0053953Y0005719D02*
X0057647Y0005719D01*
X0057049Y0006317D02*
X0054551Y0006317D01*
X0055150Y0006916D02*
X0056450Y0006916D01*
X0056157Y0007514D02*
X0055443Y0007514D01*
X0055690Y0008113D02*
X0055909Y0008113D01*
X0055875Y0011704D02*
X0055725Y0011704D01*
X0055477Y0012302D02*
X0056123Y0012302D01*
X0056371Y0012901D02*
X0055229Y0012901D01*
X0054634Y0013499D02*
X0056966Y0013499D01*
X0057564Y0014098D02*
X0054036Y0014098D01*
X0052985Y0014697D02*
X0058615Y0014697D01*
X0048615Y0014697D02*
X0042985Y0014697D01*
X0044036Y0014098D02*
X0047564Y0014098D01*
X0046966Y0013499D02*
X0044634Y0013499D01*
X0045229Y0012901D02*
X0046371Y0012901D01*
X0046123Y0012302D02*
X0045477Y0012302D01*
X0045725Y0011704D02*
X0045875Y0011704D01*
X0045909Y0008113D02*
X0045690Y0008113D01*
X0045443Y0007514D02*
X0046157Y0007514D01*
X0046450Y0006916D02*
X0045150Y0006916D01*
X0044551Y0006317D02*
X0047049Y0006317D01*
X0047647Y0005719D02*
X0043953Y0005719D01*
X0042784Y0005120D02*
X0048816Y0005120D01*
X0002683Y0015894D02*
X0209313Y0015894D01*
X0209313Y0016492D02*
X0002683Y0016492D01*
X0002683Y0017091D02*
X0209313Y0017091D01*
X0209313Y0017689D02*
X0002683Y0017689D01*
X0002683Y0018288D02*
X0209313Y0018288D01*
X0209313Y0018886D02*
X0002683Y0018886D01*
X0002683Y0019485D02*
X0209313Y0019485D01*
X0209313Y0020083D02*
X0002683Y0020083D01*
X0002683Y0020682D02*
X0209313Y0020682D01*
X0209313Y0021280D02*
X0002683Y0021280D01*
X0002683Y0021879D02*
X0209313Y0021879D01*
X0209313Y0022477D02*
X0002683Y0022477D01*
X0002683Y0023076D02*
X0209313Y0023076D01*
X0209313Y0023674D02*
X0002683Y0023674D01*
X0002683Y0024273D02*
X0209313Y0024273D01*
X0209313Y0024871D02*
X0002683Y0024871D01*
X0002683Y0025470D02*
X0209313Y0025470D01*
X0209313Y0026068D02*
X0002683Y0026068D01*
X0002683Y0026667D02*
X0209313Y0026667D01*
X0209313Y0027265D02*
X0002683Y0027265D01*
X0002683Y0027864D02*
X0209313Y0027864D01*
X0209313Y0028462D02*
X0002683Y0028462D01*
X0002683Y0029061D02*
X0209313Y0029061D01*
X0209313Y0029659D02*
X0002683Y0029659D01*
X0002683Y0030258D02*
X0209313Y0030258D01*
X0209313Y0030856D02*
X0002683Y0030856D01*
X0002683Y0031455D02*
X0209313Y0031455D01*
X0209313Y0032053D02*
X0002683Y0032053D01*
X0002683Y0032652D02*
X0209313Y0032652D01*
X0209313Y0033250D02*
X0002683Y0033250D01*
X0002683Y0033849D02*
X0209313Y0033849D01*
X0209313Y0034447D02*
X0002683Y0034447D01*
X0002683Y0035046D02*
X0209313Y0035046D01*
X0209313Y0035644D02*
X0002683Y0035644D01*
X0002683Y0036243D02*
X0209313Y0036243D01*
X0209313Y0036841D02*
X0002683Y0036841D01*
X0002683Y0037440D02*
X0209313Y0037440D01*
X0209313Y0038038D02*
X0002683Y0038038D01*
X0002683Y0038637D02*
X0209313Y0038637D01*
X0209313Y0039235D02*
X0002683Y0039235D01*
X0002683Y0039834D02*
X0209313Y0039834D01*
X0209313Y0040432D02*
X0002683Y0040432D01*
X0002683Y0041031D02*
X0209313Y0041031D01*
X0209313Y0041630D02*
X0002683Y0041630D01*
X0002683Y0042228D02*
X0209313Y0042228D01*
X0209313Y0042827D02*
X0002683Y0042827D01*
X0002683Y0043425D02*
X0209313Y0043425D01*
X0209313Y0044024D02*
X0002683Y0044024D01*
X0002683Y0044622D02*
X0209313Y0044622D01*
X0209313Y0045221D02*
X0002683Y0045221D01*
X0002683Y0045819D02*
X0209313Y0045819D01*
X0209313Y0046418D02*
X0002683Y0046418D01*
X0002683Y0047016D02*
X0209313Y0047016D01*
X0209313Y0047615D02*
X0002683Y0047615D01*
X0002683Y0048213D02*
X0209313Y0048213D01*
X0209313Y0048812D02*
X0002683Y0048812D01*
X0002683Y0049410D02*
X0209313Y0049410D01*
X0209313Y0050009D02*
X0002683Y0050009D01*
X0002683Y0050607D02*
X0209313Y0050607D01*
X0209313Y0051206D02*
X0002683Y0051206D01*
X0002683Y0051804D02*
X0209313Y0051804D01*
X0209313Y0052403D02*
X0002683Y0052403D01*
X0002683Y0053001D02*
X0209313Y0053001D01*
X0209313Y0053600D02*
X0002683Y0053600D01*
X0002683Y0054198D02*
X0209313Y0054198D01*
X0209313Y0054797D02*
X0002683Y0054797D01*
X0002683Y0055395D02*
X0209313Y0055395D01*
X0209313Y0055994D02*
X0002683Y0055994D01*
X0002683Y0056592D02*
X0209313Y0056592D01*
X0209313Y0057191D02*
X0002683Y0057191D01*
X0002683Y0057789D02*
X0209313Y0057789D01*
X0209313Y0058388D02*
X0002683Y0058388D01*
X0002683Y0058986D02*
X0209313Y0058986D01*
X0209313Y0059585D02*
X0002683Y0059585D01*
X0002683Y0060183D02*
X0209313Y0060183D01*
X0209313Y0060782D02*
X0002683Y0060782D01*
X0002683Y0061380D02*
X0209313Y0061380D01*
X0209313Y0061979D02*
X0002683Y0061979D01*
X0002683Y0062577D02*
X0209313Y0062577D01*
X0209313Y0063176D02*
X0002683Y0063176D01*
X0002683Y0063774D02*
X0209313Y0063774D01*
X0209313Y0064373D02*
X0002683Y0064373D01*
X0002683Y0064971D02*
X0009175Y0064971D01*
X0009761Y0064729D02*
X0011839Y0064729D01*
X0013758Y0065524D01*
X0015226Y0066992D01*
X0015800Y0068377D01*
X0016374Y0066992D01*
X0017842Y0065524D01*
X0019761Y0064729D01*
X0021839Y0064729D01*
X0023758Y0065524D01*
X0025226Y0066992D01*
X0025800Y0068377D01*
X0026374Y0066992D01*
X0027842Y0065524D01*
X0029761Y0064729D01*
X0031839Y0064729D01*
X0033758Y0065524D01*
X0035226Y0066992D01*
X0035800Y0068377D01*
X0036374Y0066992D01*
X0037842Y0065524D01*
X0039761Y0064729D01*
X0041839Y0064729D01*
X0043758Y0065524D01*
X0045226Y0066992D01*
X0045800Y0068377D01*
X0046374Y0066992D01*
X0047842Y0065524D01*
X0049761Y0064729D01*
X0051839Y0064729D01*
X0053758Y0065524D01*
X0055226Y0066992D01*
X0055800Y0068377D01*
X0056374Y0066992D01*
X0057842Y0065524D01*
X0059761Y0064729D01*
X0061839Y0064729D01*
X0063758Y0065524D01*
X0065226Y0066992D01*
X0065800Y0068377D01*
X0066374Y0066992D01*
X0067842Y0065524D01*
X0069761Y0064729D01*
X0071839Y0064729D01*
X0073758Y0065524D01*
X0075226Y0066992D01*
X0075800Y0068377D01*
X0076374Y0066992D01*
X0077842Y0065524D01*
X0079761Y0064729D01*
X0081839Y0064729D01*
X0083758Y0065524D01*
X0085226Y0066992D01*
X0085800Y0068377D01*
X0086374Y0066992D01*
X0087842Y0065524D01*
X0089761Y0064729D01*
X0091839Y0064729D01*
X0093758Y0065524D01*
X0095226Y0066992D01*
X0095800Y0068377D01*
X0096374Y0066992D01*
X0097842Y0065524D01*
X0099761Y0064729D01*
X0101839Y0064729D01*
X0103758Y0065524D01*
X0105226Y0066992D01*
X0105800Y0068377D01*
X0106374Y0066992D01*
X0107842Y0065524D01*
X0109761Y0064729D01*
X0111839Y0064729D01*
X0113758Y0065524D01*
X0115226Y0066992D01*
X0115800Y0068377D01*
X0116374Y0066992D01*
X0117842Y0065524D01*
X0119761Y0064729D01*
X0121839Y0064729D01*
X0123758Y0065524D01*
X0125226Y0066992D01*
X0125800Y0068377D01*
X0126374Y0066992D01*
X0127842Y0065524D01*
X0129761Y0064729D01*
X0131839Y0064729D01*
X0133758Y0065524D01*
X0135226Y0066992D01*
X0135800Y0068377D01*
X0136374Y0066992D01*
X0137842Y0065524D01*
X0139761Y0064729D01*
X0141839Y0064729D01*
X0143758Y0065524D01*
X0145226Y0066992D01*
X0145800Y0068377D01*
X0146374Y0066992D01*
X0147842Y0065524D01*
X0149761Y0064729D01*
X0151839Y0064729D01*
X0153758Y0065524D01*
X0155226Y0066992D01*
X0155800Y0068377D01*
X0156374Y0066992D01*
X0157842Y0065524D01*
X0159761Y0064729D01*
X0161839Y0064729D01*
X0163758Y0065524D01*
X0165226Y0066992D01*
X0165800Y0068377D01*
X0166374Y0066992D01*
X0167842Y0065524D01*
X0169761Y0064729D01*
X0171839Y0064729D01*
X0173758Y0065524D01*
X0175226Y0066992D01*
X0175800Y0068377D01*
X0176374Y0066992D01*
X0177842Y0065524D01*
X0179761Y0064729D01*
X0181839Y0064729D01*
X0183758Y0065524D01*
X0185226Y0066992D01*
X0185800Y0068377D01*
X0186374Y0066992D01*
X0187842Y0065524D01*
X0189761Y0064729D01*
X0191839Y0064729D01*
X0193758Y0065524D01*
X0195226Y0066992D01*
X0195800Y0068377D01*
X0196374Y0066992D01*
X0197842Y0065524D01*
X0199761Y0064729D01*
X0201839Y0064729D01*
X0203758Y0065524D01*
X0205226Y0066992D01*
X0206021Y0068911D01*
X0206021Y0070989D01*
X0205226Y0072908D01*
X0203758Y0074376D01*
X0201839Y0075171D01*
X0199761Y0075171D01*
X0197842Y0074376D01*
X0196374Y0072908D01*
X0195800Y0071523D01*
X0195226Y0072908D01*
X0193758Y0074376D01*
X0191839Y0075171D01*
X0189761Y0075171D01*
X0187842Y0074376D01*
X0186374Y0072908D01*
X0185800Y0071523D01*
X0185226Y0072908D01*
X0183758Y0074376D01*
X0181839Y0075171D01*
X0179761Y0075171D01*
X0177842Y0074376D01*
X0176374Y0072908D01*
X0175800Y0071523D01*
X0175226Y0072908D01*
X0173758Y0074376D01*
X0171839Y0075171D01*
X0169761Y0075171D01*
X0167842Y0074376D01*
X0166374Y0072908D01*
X0165800Y0071523D01*
X0165226Y0072908D01*
X0163758Y0074376D01*
X0161839Y0075171D01*
X0159761Y0075171D01*
X0157842Y0074376D01*
X0156374Y0072908D01*
X0155800Y0071523D01*
X0155226Y0072908D01*
X0153758Y0074376D01*
X0151839Y0075171D01*
X0149761Y0075171D01*
X0147842Y0074376D01*
X0146374Y0072908D01*
X0145800Y0071523D01*
X0145226Y0072908D01*
X0143758Y0074376D01*
X0141839Y0075171D01*
X0139761Y0075171D01*
X0137842Y0074376D01*
X0136374Y0072908D01*
X0135800Y0071523D01*
X0135226Y0072908D01*
X0133758Y0074376D01*
X0131839Y0075171D01*
X0129761Y0075171D01*
X0127842Y0074376D01*
X0126374Y0072908D01*
X0125800Y0071523D01*
X0125226Y0072908D01*
X0123758Y0074376D01*
X0121839Y0075171D01*
X0119761Y0075171D01*
X0117842Y0074376D01*
X0116374Y0072908D01*
X0115800Y0071523D01*
X0115226Y0072908D01*
X0113758Y0074376D01*
X0111839Y0075171D01*
X0109761Y0075171D01*
X0107842Y0074376D01*
X0106374Y0072908D01*
X0105800Y0071523D01*
X0105226Y0072908D01*
X0103758Y0074376D01*
X0101839Y0075171D01*
X0099761Y0075171D01*
X0097842Y0074376D01*
X0096374Y0072908D01*
X0095800Y0071523D01*
X0095226Y0072908D01*
X0093758Y0074376D01*
X0091839Y0075171D01*
X0089761Y0075171D01*
X0087842Y0074376D01*
X0086374Y0072908D01*
X0085800Y0071523D01*
X0085226Y0072908D01*
X0083758Y0074376D01*
X0081839Y0075171D01*
X0079761Y0075171D01*
X0077842Y0074376D01*
X0076374Y0072908D01*
X0075800Y0071523D01*
X0075226Y0072908D01*
X0073758Y0074376D01*
X0071839Y0075171D01*
X0069761Y0075171D01*
X0067842Y0074376D01*
X0066374Y0072908D01*
X0065800Y0071523D01*
X0065226Y0072908D01*
X0063758Y0074376D01*
X0061839Y0075171D01*
X0059761Y0075171D01*
X0057842Y0074376D01*
X0056374Y0072908D01*
X0055800Y0071523D01*
X0055226Y0072908D01*
X0053758Y0074376D01*
X0051839Y0075171D01*
X0049761Y0075171D01*
X0047842Y0074376D01*
X0046374Y0072908D01*
X0045800Y0071523D01*
X0045226Y0072908D01*
X0043758Y0074376D01*
X0041839Y0075171D01*
X0039761Y0075171D01*
X0037842Y0074376D01*
X0036374Y0072908D01*
X0035800Y0071523D01*
X0035226Y0072908D01*
X0033758Y0074376D01*
X0031839Y0075171D01*
X0029761Y0075171D01*
X0027842Y0074376D01*
X0026374Y0072908D01*
X0025800Y0071523D01*
X0025226Y0072908D01*
X0023758Y0074376D01*
X0021839Y0075171D01*
X0019761Y0075171D01*
X0017842Y0074376D01*
X0016374Y0072908D01*
X0015800Y0071523D01*
X0015226Y0072908D01*
X0013758Y0074376D01*
X0011839Y0075171D01*
X0009761Y0075171D01*
X0007842Y0074376D01*
X0006374Y0072908D01*
X0005579Y0070989D01*
X0005579Y0068911D01*
X0006374Y0066992D01*
X0007842Y0065524D01*
X0009761Y0064729D01*
X0007796Y0065570D02*
X0002683Y0065570D01*
X0002683Y0066168D02*
X0007198Y0066168D01*
X0006599Y0066767D02*
X0002683Y0066767D01*
X0002683Y0067366D02*
X0006219Y0067366D01*
X0005971Y0067964D02*
X0002683Y0067964D01*
X0002683Y0068563D02*
X0005723Y0068563D01*
X0005579Y0069161D02*
X0002683Y0069161D01*
X0002683Y0069760D02*
X0005579Y0069760D01*
X0005579Y0070358D02*
X0002683Y0070358D01*
X0002683Y0070957D02*
X0005579Y0070957D01*
X0005813Y0071555D02*
X0002683Y0071555D01*
X0002683Y0072154D02*
X0006061Y0072154D01*
X0006309Y0072752D02*
X0002683Y0072752D01*
X0002683Y0073351D02*
X0006817Y0073351D01*
X0007415Y0073949D02*
X0002683Y0073949D01*
X0002683Y0074548D02*
X0008256Y0074548D01*
X0009701Y0075146D02*
X0002683Y0075146D01*
X0002683Y0075745D02*
X0209313Y0075745D01*
X0209313Y0076343D02*
X0002683Y0076343D01*
X0002683Y0076942D02*
X0209313Y0076942D01*
X0209313Y0077540D02*
X0202645Y0077540D01*
X0203115Y0077735D02*
X0204265Y0078885D01*
X0204887Y0080387D01*
X0204887Y0082013D01*
X0204265Y0083515D01*
X0203115Y0084665D01*
X0201613Y0085287D01*
X0199987Y0085287D01*
X0198485Y0084665D01*
X0197335Y0083515D01*
X0196713Y0082013D01*
X0196713Y0080387D01*
X0197335Y0078885D01*
X0198485Y0077735D01*
X0199987Y0077113D01*
X0201613Y0077113D01*
X0203115Y0077735D01*
X0203519Y0078139D02*
X0209313Y0078139D01*
X0209313Y0078737D02*
X0204118Y0078737D01*
X0204452Y0079336D02*
X0209313Y0079336D01*
X0209313Y0079934D02*
X0204700Y0079934D01*
X0204887Y0080533D02*
X0209313Y0080533D01*
X0209313Y0081131D02*
X0204887Y0081131D01*
X0204887Y0081730D02*
X0209313Y0081730D01*
X0209313Y0082328D02*
X0204757Y0082328D01*
X0204509Y0082927D02*
X0209313Y0082927D01*
X0209313Y0083525D02*
X0204255Y0083525D01*
X0203657Y0084124D02*
X0209313Y0084124D01*
X0209313Y0084722D02*
X0202977Y0084722D01*
X0198623Y0084722D02*
X0192977Y0084722D01*
X0193115Y0084665D02*
X0191613Y0085287D01*
X0189987Y0085287D01*
X0188485Y0084665D01*
X0187335Y0083515D01*
X0186713Y0082013D01*
X0186713Y0080387D01*
X0187335Y0078885D01*
X0188485Y0077735D01*
X0189987Y0077113D01*
X0191613Y0077113D01*
X0193115Y0077735D01*
X0194265Y0078885D01*
X0194887Y0080387D01*
X0194887Y0082013D01*
X0194265Y0083515D01*
X0193115Y0084665D01*
X0193657Y0084124D02*
X0197943Y0084124D01*
X0197345Y0083525D02*
X0194255Y0083525D01*
X0194509Y0082927D02*
X0197091Y0082927D01*
X0196843Y0082328D02*
X0194757Y0082328D01*
X0194887Y0081730D02*
X0196713Y0081730D01*
X0196713Y0081131D02*
X0194887Y0081131D01*
X0194887Y0080533D02*
X0196713Y0080533D01*
X0196900Y0079934D02*
X0194700Y0079934D01*
X0194452Y0079336D02*
X0197148Y0079336D01*
X0197482Y0078737D02*
X0194118Y0078737D01*
X0193519Y0078139D02*
X0198081Y0078139D01*
X0198955Y0077540D02*
X0192645Y0077540D01*
X0188955Y0077540D02*
X0182645Y0077540D01*
X0183115Y0077735D02*
X0184265Y0078885D01*
X0184887Y0080387D01*
X0184887Y0082013D01*
X0184265Y0083515D01*
X0183115Y0084665D01*
X0181613Y0085287D01*
X0179987Y0085287D01*
X0178485Y0084665D01*
X0177335Y0083515D01*
X0176713Y0082013D01*
X0176713Y0080387D01*
X0177335Y0078885D01*
X0178485Y0077735D01*
X0179987Y0077113D01*
X0181613Y0077113D01*
X0183115Y0077735D01*
X0183519Y0078139D02*
X0188081Y0078139D01*
X0187482Y0078737D02*
X0184118Y0078737D01*
X0184452Y0079336D02*
X0187148Y0079336D01*
X0186900Y0079934D02*
X0184700Y0079934D01*
X0184887Y0080533D02*
X0186713Y0080533D01*
X0186713Y0081131D02*
X0184887Y0081131D01*
X0184887Y0081730D02*
X0186713Y0081730D01*
X0186843Y0082328D02*
X0184757Y0082328D01*
X0184509Y0082927D02*
X0187091Y0082927D01*
X0187345Y0083525D02*
X0184255Y0083525D01*
X0183657Y0084124D02*
X0187943Y0084124D01*
X0188623Y0084722D02*
X0182977Y0084722D01*
X0178623Y0084722D02*
X0170084Y0084722D01*
X0169486Y0084124D02*
X0177943Y0084124D01*
X0177345Y0083525D02*
X0168887Y0083525D01*
X0168289Y0082927D02*
X0177091Y0082927D01*
X0176843Y0082328D02*
X0167690Y0082328D01*
X0167092Y0081730D02*
X0176713Y0081730D01*
X0176713Y0081131D02*
X0166493Y0081131D01*
X0165895Y0080533D02*
X0176713Y0080533D01*
X0176900Y0079934D02*
X0165296Y0079934D01*
X0164698Y0079336D02*
X0177148Y0079336D01*
X0177482Y0078737D02*
X0164099Y0078737D01*
X0163501Y0078139D02*
X0178081Y0078139D01*
X0178955Y0077540D02*
X0002683Y0077540D01*
X0011899Y0075146D02*
X0019701Y0075146D01*
X0018256Y0074548D02*
X0013344Y0074548D01*
X0014185Y0073949D02*
X0017415Y0073949D01*
X0016817Y0073351D02*
X0014783Y0073351D01*
X0015291Y0072752D02*
X0016309Y0072752D01*
X0016061Y0072154D02*
X0015539Y0072154D01*
X0015787Y0071555D02*
X0015813Y0071555D01*
X0015971Y0067964D02*
X0015629Y0067964D01*
X0015381Y0067366D02*
X0016219Y0067366D01*
X0016599Y0066767D02*
X0015001Y0066767D01*
X0014402Y0066168D02*
X0017198Y0066168D01*
X0017796Y0065570D02*
X0013804Y0065570D01*
X0012425Y0064971D02*
X0019175Y0064971D01*
X0022425Y0064971D02*
X0029175Y0064971D01*
X0027796Y0065570D02*
X0023804Y0065570D01*
X0024402Y0066168D02*
X0027198Y0066168D01*
X0026599Y0066767D02*
X0025001Y0066767D01*
X0025381Y0067366D02*
X0026219Y0067366D01*
X0025971Y0067964D02*
X0025629Y0067964D01*
X0032425Y0064971D02*
X0039175Y0064971D01*
X0037796Y0065570D02*
X0033804Y0065570D01*
X0034402Y0066168D02*
X0037198Y0066168D01*
X0036599Y0066767D02*
X0035001Y0066767D01*
X0035381Y0067366D02*
X0036219Y0067366D01*
X0035971Y0067964D02*
X0035629Y0067964D01*
X0035787Y0071555D02*
X0035813Y0071555D01*
X0036061Y0072154D02*
X0035539Y0072154D01*
X0035291Y0072752D02*
X0036309Y0072752D01*
X0036817Y0073351D02*
X0034783Y0073351D01*
X0034185Y0073949D02*
X0037415Y0073949D01*
X0038256Y0074548D02*
X0033344Y0074548D01*
X0031899Y0075146D02*
X0039701Y0075146D01*
X0041899Y0075146D02*
X0049701Y0075146D01*
X0048256Y0074548D02*
X0043344Y0074548D01*
X0044185Y0073949D02*
X0047415Y0073949D01*
X0046817Y0073351D02*
X0044783Y0073351D01*
X0045291Y0072752D02*
X0046309Y0072752D01*
X0046061Y0072154D02*
X0045539Y0072154D01*
X0045787Y0071555D02*
X0045813Y0071555D01*
X0045971Y0067964D02*
X0045629Y0067964D01*
X0045381Y0067366D02*
X0046219Y0067366D01*
X0046599Y0066767D02*
X0045001Y0066767D01*
X0044402Y0066168D02*
X0047198Y0066168D01*
X0047796Y0065570D02*
X0043804Y0065570D01*
X0042425Y0064971D02*
X0049175Y0064971D01*
X0052425Y0064971D02*
X0059175Y0064971D01*
X0057796Y0065570D02*
X0053804Y0065570D01*
X0054402Y0066168D02*
X0057198Y0066168D01*
X0056599Y0066767D02*
X0055001Y0066767D01*
X0055381Y0067366D02*
X0056219Y0067366D01*
X0055971Y0067964D02*
X0055629Y0067964D01*
X0062425Y0064971D02*
X0069175Y0064971D01*
X0067796Y0065570D02*
X0063804Y0065570D01*
X0064402Y0066168D02*
X0067198Y0066168D01*
X0066599Y0066767D02*
X0065001Y0066767D01*
X0065381Y0067366D02*
X0066219Y0067366D01*
X0065971Y0067964D02*
X0065629Y0067964D01*
X0065787Y0071555D02*
X0065813Y0071555D01*
X0066061Y0072154D02*
X0065539Y0072154D01*
X0065291Y0072752D02*
X0066309Y0072752D01*
X0066817Y0073351D02*
X0064783Y0073351D01*
X0064185Y0073949D02*
X0067415Y0073949D01*
X0068256Y0074548D02*
X0063344Y0074548D01*
X0061899Y0075146D02*
X0069701Y0075146D01*
X0071899Y0075146D02*
X0079701Y0075146D01*
X0078256Y0074548D02*
X0073344Y0074548D01*
X0074185Y0073949D02*
X0077415Y0073949D01*
X0076817Y0073351D02*
X0074783Y0073351D01*
X0075291Y0072752D02*
X0076309Y0072752D01*
X0076061Y0072154D02*
X0075539Y0072154D01*
X0075787Y0071555D02*
X0075813Y0071555D01*
X0075971Y0067964D02*
X0075629Y0067964D01*
X0075381Y0067366D02*
X0076219Y0067366D01*
X0076599Y0066767D02*
X0075001Y0066767D01*
X0074402Y0066168D02*
X0077198Y0066168D01*
X0077796Y0065570D02*
X0073804Y0065570D01*
X0072425Y0064971D02*
X0079175Y0064971D01*
X0082425Y0064971D02*
X0089175Y0064971D01*
X0087796Y0065570D02*
X0083804Y0065570D01*
X0084402Y0066168D02*
X0087198Y0066168D01*
X0086599Y0066767D02*
X0085001Y0066767D01*
X0085381Y0067366D02*
X0086219Y0067366D01*
X0085971Y0067964D02*
X0085629Y0067964D01*
X0092425Y0064971D02*
X0099175Y0064971D01*
X0097796Y0065570D02*
X0093804Y0065570D01*
X0094402Y0066168D02*
X0097198Y0066168D01*
X0096599Y0066767D02*
X0095001Y0066767D01*
X0095381Y0067366D02*
X0096219Y0067366D01*
X0095971Y0067964D02*
X0095629Y0067964D01*
X0102425Y0064971D02*
X0109175Y0064971D01*
X0107796Y0065570D02*
X0103804Y0065570D01*
X0104402Y0066168D02*
X0107198Y0066168D01*
X0106599Y0066767D02*
X0105001Y0066767D01*
X0105381Y0067366D02*
X0106219Y0067366D01*
X0105971Y0067964D02*
X0105629Y0067964D01*
X0105787Y0071555D02*
X0105813Y0071555D01*
X0106061Y0072154D02*
X0105539Y0072154D01*
X0105291Y0072752D02*
X0106309Y0072752D01*
X0106817Y0073351D02*
X0104783Y0073351D01*
X0104185Y0073949D02*
X0107415Y0073949D01*
X0108256Y0074548D02*
X0103344Y0074548D01*
X0101899Y0075146D02*
X0109701Y0075146D01*
X0111899Y0075146D02*
X0119701Y0075146D01*
X0118256Y0074548D02*
X0113344Y0074548D01*
X0114185Y0073949D02*
X0117415Y0073949D01*
X0116817Y0073351D02*
X0114783Y0073351D01*
X0115291Y0072752D02*
X0116309Y0072752D01*
X0116061Y0072154D02*
X0115539Y0072154D01*
X0115787Y0071555D02*
X0115813Y0071555D01*
X0115971Y0067964D02*
X0115629Y0067964D01*
X0115381Y0067366D02*
X0116219Y0067366D01*
X0116599Y0066767D02*
X0115001Y0066767D01*
X0114402Y0066168D02*
X0117198Y0066168D01*
X0117796Y0065570D02*
X0113804Y0065570D01*
X0112425Y0064971D02*
X0119175Y0064971D01*
X0122425Y0064971D02*
X0129175Y0064971D01*
X0127796Y0065570D02*
X0123804Y0065570D01*
X0124402Y0066168D02*
X0127198Y0066168D01*
X0126599Y0066767D02*
X0125001Y0066767D01*
X0125381Y0067366D02*
X0126219Y0067366D01*
X0125971Y0067964D02*
X0125629Y0067964D01*
X0132425Y0064971D02*
X0139175Y0064971D01*
X0137796Y0065570D02*
X0133804Y0065570D01*
X0134402Y0066168D02*
X0137198Y0066168D01*
X0136599Y0066767D02*
X0135001Y0066767D01*
X0135381Y0067366D02*
X0136219Y0067366D01*
X0135971Y0067964D02*
X0135629Y0067964D01*
X0135787Y0071555D02*
X0135813Y0071555D01*
X0136061Y0072154D02*
X0135539Y0072154D01*
X0135291Y0072752D02*
X0136309Y0072752D01*
X0136817Y0073351D02*
X0134783Y0073351D01*
X0134185Y0073949D02*
X0137415Y0073949D01*
X0138256Y0074548D02*
X0133344Y0074548D01*
X0131899Y0075146D02*
X0139701Y0075146D01*
X0141899Y0075146D02*
X0149701Y0075146D01*
X0148256Y0074548D02*
X0143344Y0074548D01*
X0144185Y0073949D02*
X0147415Y0073949D01*
X0146817Y0073351D02*
X0144783Y0073351D01*
X0145291Y0072752D02*
X0146309Y0072752D01*
X0146061Y0072154D02*
X0145539Y0072154D01*
X0145787Y0071555D02*
X0145813Y0071555D01*
X0145971Y0067964D02*
X0145629Y0067964D01*
X0145381Y0067366D02*
X0146219Y0067366D01*
X0146599Y0066767D02*
X0145001Y0066767D01*
X0144402Y0066168D02*
X0147198Y0066168D01*
X0147796Y0065570D02*
X0143804Y0065570D01*
X0142425Y0064971D02*
X0149175Y0064971D01*
X0152425Y0064971D02*
X0159175Y0064971D01*
X0157796Y0065570D02*
X0153804Y0065570D01*
X0154402Y0066168D02*
X0157198Y0066168D01*
X0156599Y0066767D02*
X0155001Y0066767D01*
X0155381Y0067366D02*
X0156219Y0067366D01*
X0155971Y0067964D02*
X0155629Y0067964D01*
X0162425Y0064971D02*
X0169175Y0064971D01*
X0167796Y0065570D02*
X0163804Y0065570D01*
X0164402Y0066168D02*
X0167198Y0066168D01*
X0166599Y0066767D02*
X0165001Y0066767D01*
X0165381Y0067366D02*
X0166219Y0067366D01*
X0165971Y0067964D02*
X0165629Y0067964D01*
X0172425Y0064971D02*
X0179175Y0064971D01*
X0177796Y0065570D02*
X0173804Y0065570D01*
X0174402Y0066168D02*
X0177198Y0066168D01*
X0176599Y0066767D02*
X0175001Y0066767D01*
X0175381Y0067366D02*
X0176219Y0067366D01*
X0175971Y0067964D02*
X0175629Y0067964D01*
X0175787Y0071555D02*
X0175813Y0071555D01*
X0176061Y0072154D02*
X0175539Y0072154D01*
X0175291Y0072752D02*
X0176309Y0072752D01*
X0176817Y0073351D02*
X0174783Y0073351D01*
X0174185Y0073949D02*
X0177415Y0073949D01*
X0178256Y0074548D02*
X0173344Y0074548D01*
X0171899Y0075146D02*
X0179701Y0075146D01*
X0181899Y0075146D02*
X0189701Y0075146D01*
X0188256Y0074548D02*
X0183344Y0074548D01*
X0184185Y0073949D02*
X0187415Y0073949D01*
X0186817Y0073351D02*
X0184783Y0073351D01*
X0185291Y0072752D02*
X0186309Y0072752D01*
X0186061Y0072154D02*
X0185539Y0072154D01*
X0185787Y0071555D02*
X0185813Y0071555D01*
X0185971Y0067964D02*
X0185629Y0067964D01*
X0185381Y0067366D02*
X0186219Y0067366D01*
X0186599Y0066767D02*
X0185001Y0066767D01*
X0184402Y0066168D02*
X0187198Y0066168D01*
X0187796Y0065570D02*
X0183804Y0065570D01*
X0182425Y0064971D02*
X0189175Y0064971D01*
X0192425Y0064971D02*
X0199175Y0064971D01*
X0197796Y0065570D02*
X0193804Y0065570D01*
X0194402Y0066168D02*
X0197198Y0066168D01*
X0196599Y0066767D02*
X0195001Y0066767D01*
X0195381Y0067366D02*
X0196219Y0067366D01*
X0195971Y0067964D02*
X0195629Y0067964D01*
X0202425Y0064971D02*
X0209313Y0064971D01*
X0209313Y0065570D02*
X0203804Y0065570D01*
X0204402Y0066168D02*
X0209313Y0066168D01*
X0209313Y0066767D02*
X0205001Y0066767D01*
X0205381Y0067366D02*
X0209313Y0067366D01*
X0209313Y0067964D02*
X0205629Y0067964D01*
X0205877Y0068563D02*
X0209313Y0068563D01*
X0209313Y0069161D02*
X0206021Y0069161D01*
X0206021Y0069760D02*
X0209313Y0069760D01*
X0209313Y0070358D02*
X0206021Y0070358D01*
X0206021Y0070957D02*
X0209313Y0070957D01*
X0209313Y0071555D02*
X0205787Y0071555D01*
X0205539Y0072154D02*
X0209313Y0072154D01*
X0209313Y0072752D02*
X0205291Y0072752D01*
X0204783Y0073351D02*
X0209313Y0073351D01*
X0209313Y0073949D02*
X0204185Y0073949D01*
X0203344Y0074548D02*
X0209313Y0074548D01*
X0209313Y0075146D02*
X0201899Y0075146D01*
X0199701Y0075146D02*
X0191899Y0075146D01*
X0193344Y0074548D02*
X0198256Y0074548D01*
X0197415Y0073949D02*
X0194185Y0073949D01*
X0194783Y0073351D02*
X0196817Y0073351D01*
X0196309Y0072752D02*
X0195291Y0072752D01*
X0195539Y0072154D02*
X0196061Y0072154D01*
X0195813Y0071555D02*
X0195787Y0071555D01*
X0169701Y0075146D02*
X0161899Y0075146D01*
X0163344Y0074548D02*
X0168256Y0074548D01*
X0167415Y0073949D02*
X0164185Y0073949D01*
X0164783Y0073351D02*
X0166817Y0073351D01*
X0166309Y0072752D02*
X0165291Y0072752D01*
X0165539Y0072154D02*
X0166061Y0072154D01*
X0165813Y0071555D02*
X0165787Y0071555D01*
X0159701Y0075146D02*
X0151899Y0075146D01*
X0153344Y0074548D02*
X0158256Y0074548D01*
X0157415Y0073949D02*
X0154185Y0073949D01*
X0154783Y0073351D02*
X0156817Y0073351D01*
X0156309Y0072752D02*
X0155291Y0072752D01*
X0155539Y0072154D02*
X0156061Y0072154D01*
X0155813Y0071555D02*
X0155787Y0071555D01*
X0129701Y0075146D02*
X0121899Y0075146D01*
X0123344Y0074548D02*
X0128256Y0074548D01*
X0127415Y0073949D02*
X0124185Y0073949D01*
X0124783Y0073351D02*
X0126817Y0073351D01*
X0126309Y0072752D02*
X0125291Y0072752D01*
X0125539Y0072154D02*
X0126061Y0072154D01*
X0125813Y0071555D02*
X0125787Y0071555D01*
X0099701Y0075146D02*
X0091899Y0075146D01*
X0093344Y0074548D02*
X0098256Y0074548D01*
X0097415Y0073949D02*
X0094185Y0073949D01*
X0094783Y0073351D02*
X0096817Y0073351D01*
X0096309Y0072752D02*
X0095291Y0072752D01*
X0095539Y0072154D02*
X0096061Y0072154D01*
X0095813Y0071555D02*
X0095787Y0071555D01*
X0089701Y0075146D02*
X0081899Y0075146D01*
X0083344Y0074548D02*
X0088256Y0074548D01*
X0087415Y0073949D02*
X0084185Y0073949D01*
X0084783Y0073351D02*
X0086817Y0073351D01*
X0086309Y0072752D02*
X0085291Y0072752D01*
X0085539Y0072154D02*
X0086061Y0072154D01*
X0085813Y0071555D02*
X0085787Y0071555D01*
X0059701Y0075146D02*
X0051899Y0075146D01*
X0053344Y0074548D02*
X0058256Y0074548D01*
X0057415Y0073949D02*
X0054185Y0073949D01*
X0054783Y0073351D02*
X0056817Y0073351D01*
X0056309Y0072752D02*
X0055291Y0072752D01*
X0055539Y0072154D02*
X0056061Y0072154D01*
X0055813Y0071555D02*
X0055787Y0071555D01*
X0029701Y0075146D02*
X0021899Y0075146D01*
X0023344Y0074548D02*
X0028256Y0074548D01*
X0027415Y0073949D02*
X0024185Y0073949D01*
X0024783Y0073351D02*
X0026817Y0073351D01*
X0026309Y0072752D02*
X0025291Y0072752D01*
X0025539Y0072154D02*
X0026061Y0072154D01*
X0025813Y0071555D02*
X0025787Y0071555D01*
X0170683Y0085321D02*
X0209313Y0085321D01*
X0209313Y0085919D02*
X0171281Y0085919D01*
M02*
