%
M48
M72
T01C0.0118
T02C0.0400
T03C0.0551
%
T01
X730Y2590
X730Y3970
X790Y5410
T02
X18080Y8120
X19080Y8120
X20080Y8120
T03
X1080Y995
X2080Y995
X3080Y995
X4080Y995
X5080Y995
X6080Y995
X7080Y995
X8080Y995
X9080Y995
X10080Y995
X11080Y995
X12080Y995
X13080Y995
X14080Y995
X15080Y995
X16080Y995
X17080Y995
X18080Y995
X19080Y995
X20080Y995
X20080Y6995
X19080Y6995
X18080Y6995
X17080Y6995
X16080Y6995
X15080Y6995
X14080Y6995
X13080Y6995
X12080Y6995
X11080Y6995
X10080Y6995
X9080Y6995
X8080Y6995
X7080Y6995
X6080Y6995
X5080Y6995
X4080Y6995
X3080Y6995
X2080Y6995
X1080Y6995
M30
