G75*
%MOIN*%
%OFA0B0*%
%FSLAX25Y25*%
%IPPOS*%
%LPD*%
%AMOC8*
5,1,8,0,0,1.08239X$1,22.5*
%
%ADD10C,0.00500*%
%ADD11C,0.00700*%
%ADD12C,0.00600*%
D10*
X0001800Y0013950D02*
X0209800Y0013950D01*
X0209800Y0065950D01*
X0001800Y0065950D01*
X0001800Y0044950D01*
X0001940Y0044948D01*
X0002080Y0044942D01*
X0002220Y0044932D01*
X0002360Y0044919D01*
X0002499Y0044901D01*
X0002638Y0044879D01*
X0002775Y0044854D01*
X0002913Y0044825D01*
X0003049Y0044792D01*
X0003184Y0044755D01*
X0003318Y0044714D01*
X0003451Y0044669D01*
X0003583Y0044621D01*
X0003713Y0044569D01*
X0003842Y0044514D01*
X0003969Y0044455D01*
X0004095Y0044392D01*
X0004219Y0044326D01*
X0004340Y0044257D01*
X0004460Y0044184D01*
X0004578Y0044107D01*
X0004693Y0044028D01*
X0004807Y0043945D01*
X0004917Y0043859D01*
X0005026Y0043770D01*
X0005132Y0043678D01*
X0005235Y0043583D01*
X0005336Y0043486D01*
X0005433Y0043385D01*
X0005528Y0043282D01*
X0005620Y0043176D01*
X0005709Y0043067D01*
X0005795Y0042957D01*
X0005878Y0042843D01*
X0005957Y0042728D01*
X0006034Y0042610D01*
X0006107Y0042490D01*
X0006176Y0042369D01*
X0006242Y0042245D01*
X0006305Y0042119D01*
X0006364Y0041992D01*
X0006419Y0041863D01*
X0006471Y0041733D01*
X0006519Y0041601D01*
X0006564Y0041468D01*
X0006605Y0041334D01*
X0006642Y0041199D01*
X0006675Y0041063D01*
X0006704Y0040925D01*
X0006729Y0040788D01*
X0006751Y0040649D01*
X0006769Y0040510D01*
X0006782Y0040370D01*
X0006792Y0040230D01*
X0006798Y0040090D01*
X0006800Y0039950D01*
X0006798Y0039810D01*
X0006792Y0039670D01*
X0006782Y0039530D01*
X0006769Y0039390D01*
X0006751Y0039251D01*
X0006729Y0039112D01*
X0006704Y0038975D01*
X0006675Y0038837D01*
X0006642Y0038701D01*
X0006605Y0038566D01*
X0006564Y0038432D01*
X0006519Y0038299D01*
X0006471Y0038167D01*
X0006419Y0038037D01*
X0006364Y0037908D01*
X0006305Y0037781D01*
X0006242Y0037655D01*
X0006176Y0037531D01*
X0006107Y0037410D01*
X0006034Y0037290D01*
X0005957Y0037172D01*
X0005878Y0037057D01*
X0005795Y0036943D01*
X0005709Y0036833D01*
X0005620Y0036724D01*
X0005528Y0036618D01*
X0005433Y0036515D01*
X0005336Y0036414D01*
X0005235Y0036317D01*
X0005132Y0036222D01*
X0005026Y0036130D01*
X0004917Y0036041D01*
X0004807Y0035955D01*
X0004693Y0035872D01*
X0004578Y0035793D01*
X0004460Y0035716D01*
X0004340Y0035643D01*
X0004219Y0035574D01*
X0004095Y0035508D01*
X0003969Y0035445D01*
X0003842Y0035386D01*
X0003713Y0035331D01*
X0003583Y0035279D01*
X0003451Y0035231D01*
X0003318Y0035186D01*
X0003184Y0035145D01*
X0003049Y0035108D01*
X0002913Y0035075D01*
X0002775Y0035046D01*
X0002638Y0035021D01*
X0002499Y0034999D01*
X0002360Y0034981D01*
X0002220Y0034968D01*
X0002080Y0034958D01*
X0001940Y0034952D01*
X0001800Y0034950D01*
X0001800Y0013950D01*
X0166542Y0077650D02*
X0166542Y0082154D01*
X0168794Y0082154D01*
X0169545Y0081403D01*
X0169545Y0079902D01*
X0168794Y0079151D01*
X0166542Y0079151D01*
X0171146Y0077650D02*
X0174149Y0077650D01*
X0172647Y0077650D02*
X0172647Y0082154D01*
X0171146Y0080653D01*
D11*
X0169012Y0043205D02*
X0169012Y0036900D01*
X0165859Y0036900D01*
X0164808Y0037951D01*
X0164808Y0040053D01*
X0165859Y0041104D01*
X0169012Y0041104D01*
X0172305Y0041104D02*
X0174407Y0041104D01*
X0175458Y0040053D01*
X0175458Y0036900D01*
X0172305Y0036900D01*
X0171254Y0037951D01*
X0172305Y0039002D01*
X0175458Y0039002D01*
X0177699Y0036900D02*
X0180852Y0036900D01*
X0181903Y0037951D01*
X0181903Y0040053D01*
X0180852Y0041104D01*
X0177699Y0041104D01*
X0177699Y0034798D01*
X0185196Y0037951D02*
X0186247Y0036900D01*
X0185196Y0037951D02*
X0185196Y0042154D01*
X0184145Y0041104D02*
X0186247Y0041104D01*
X0188442Y0040053D02*
X0188442Y0037951D01*
X0189493Y0036900D01*
X0191595Y0036900D01*
X0192646Y0037951D01*
X0192646Y0040053D01*
X0191595Y0041104D01*
X0189493Y0041104D01*
X0188442Y0040053D01*
X0194887Y0041104D02*
X0194887Y0036900D01*
X0194887Y0039002D02*
X0196989Y0041104D01*
X0198040Y0041104D01*
X0162567Y0041104D02*
X0162567Y0036900D01*
X0158363Y0036900D02*
X0158363Y0041104D01*
X0160465Y0043205D01*
X0162567Y0041104D01*
X0162567Y0040053D02*
X0158363Y0040053D01*
X0149722Y0039002D02*
X0149722Y0041104D01*
X0147620Y0043205D01*
X0143277Y0043205D02*
X0143277Y0036900D01*
X0141175Y0036900D02*
X0145379Y0036900D01*
X0147620Y0036900D02*
X0149722Y0039002D01*
X0143277Y0043205D02*
X0141175Y0041104D01*
X0138933Y0042154D02*
X0137882Y0043205D01*
X0135780Y0043205D01*
X0134729Y0042154D01*
X0134729Y0037951D01*
X0135780Y0036900D01*
X0137882Y0036900D01*
X0138933Y0037951D01*
X0132488Y0037951D02*
X0132488Y0043205D01*
X0128284Y0043205D02*
X0128284Y0037951D01*
X0129335Y0036900D01*
X0131437Y0036900D01*
X0132488Y0037951D01*
X0126089Y0036900D02*
X0123987Y0039002D01*
X0123987Y0041104D01*
X0126089Y0043205D01*
X0113198Y0043205D02*
X0113198Y0036900D01*
X0111096Y0036900D02*
X0115300Y0036900D01*
X0108854Y0037951D02*
X0107803Y0036900D01*
X0105701Y0036900D01*
X0104650Y0037951D01*
X0108854Y0042154D01*
X0108854Y0037951D01*
X0104650Y0037951D02*
X0104650Y0042154D01*
X0105701Y0043205D01*
X0107803Y0043205D01*
X0108854Y0042154D01*
X0111096Y0041104D02*
X0113198Y0043205D01*
X0102409Y0040053D02*
X0098205Y0040053D01*
X0095963Y0041104D02*
X0095963Y0042154D01*
X0094912Y0043205D01*
X0092810Y0043205D01*
X0091759Y0042154D01*
X0089518Y0042154D02*
X0089518Y0043205D01*
X0085314Y0043205D01*
X0083072Y0043205D02*
X0078868Y0043205D01*
X0078868Y0040053D01*
X0080970Y0041104D01*
X0082021Y0041104D01*
X0083072Y0040053D01*
X0083072Y0037951D01*
X0082021Y0036900D01*
X0079919Y0036900D01*
X0078868Y0037951D01*
X0076627Y0037951D02*
X0075576Y0036900D01*
X0073474Y0036900D01*
X0072423Y0037951D01*
X0070181Y0036900D02*
X0065977Y0036900D01*
X0070181Y0041104D01*
X0070181Y0042154D01*
X0069130Y0043205D01*
X0067028Y0043205D01*
X0065977Y0042154D01*
X0063736Y0042154D02*
X0063736Y0041104D01*
X0062685Y0040053D01*
X0063736Y0039002D01*
X0063736Y0037951D01*
X0062685Y0036900D01*
X0060583Y0036900D01*
X0059532Y0037951D01*
X0061634Y0040053D02*
X0062685Y0040053D01*
X0063736Y0042154D02*
X0062685Y0043205D01*
X0060583Y0043205D01*
X0059532Y0042154D01*
X0057290Y0040053D02*
X0053086Y0040053D01*
X0050845Y0039002D02*
X0050845Y0037951D01*
X0049794Y0036900D01*
X0047692Y0036900D01*
X0046641Y0037951D01*
X0049794Y0040053D02*
X0050845Y0039002D01*
X0049794Y0040053D02*
X0047692Y0040053D01*
X0046641Y0041104D01*
X0046641Y0042154D01*
X0047692Y0043205D01*
X0049794Y0043205D01*
X0050845Y0042154D01*
X0044399Y0042154D02*
X0043348Y0043205D01*
X0041246Y0043205D01*
X0040195Y0042154D01*
X0040195Y0037951D01*
X0041246Y0036900D01*
X0043348Y0036900D01*
X0044399Y0037951D01*
X0044399Y0042154D01*
X0037954Y0043205D02*
X0037954Y0036900D01*
X0033750Y0036900D02*
X0033750Y0043205D01*
X0035852Y0041104D01*
X0037954Y0043205D01*
X0072423Y0043205D02*
X0072423Y0040053D01*
X0074525Y0041104D01*
X0075576Y0041104D01*
X0076627Y0040053D01*
X0076627Y0037951D01*
X0085314Y0037951D02*
X0085314Y0036900D01*
X0085314Y0037951D02*
X0089518Y0042154D01*
X0091759Y0036900D02*
X0095963Y0041104D01*
X0095963Y0036900D02*
X0091759Y0036900D01*
X0076627Y0043205D02*
X0072423Y0043205D01*
D12*
X0175800Y0078700D02*
X0175800Y0083700D01*
X0178300Y0086200D01*
X0183300Y0086200D01*
X0185800Y0083700D01*
X0188300Y0086200D01*
X0193300Y0086200D01*
X0195800Y0083700D01*
X0198300Y0086200D01*
X0203300Y0086200D01*
X0205800Y0083700D01*
X0205800Y0078700D01*
X0203300Y0076200D01*
X0198300Y0076200D01*
X0195800Y0078700D01*
X0193300Y0076200D01*
X0188300Y0076200D01*
X0185800Y0078700D01*
X0183300Y0076200D01*
X0178300Y0076200D01*
X0175800Y0078700D01*
X0185800Y0078700D02*
X0185800Y0083700D01*
X0195800Y0083700D02*
X0195800Y0078700D01*
M02*
