G75*
%MOIN*%
%OFA0B0*%
%FSLAX25Y25*%
%IPPOS*%
%LPD*%
%AMOC8*
5,1,8,0,0,1.08239X$1,22.5*
%
%ADD10C,0.00400*%
%ADD11C,0.00500*%
%ADD12C,0.00300*%
%ADD13C,0.00600*%
%ADD14C,0.01200*%
%ADD15C,0.00900*%
%ADD16C,0.00700*%
%ADD17R,0.02000X0.01500*%
D10*
X0008173Y0183400D02*
X0009541Y0183400D01*
X0008857Y0183400D02*
X0008857Y0187504D01*
X0008173Y0187504D02*
X0009541Y0187504D01*
X0010936Y0186820D02*
X0010936Y0184084D01*
X0011619Y0183400D01*
X0012987Y0183400D01*
X0013671Y0184084D01*
X0015079Y0183400D02*
X0017815Y0183400D01*
X0016447Y0183400D02*
X0016447Y0187504D01*
X0015079Y0186136D01*
X0013671Y0186820D02*
X0012987Y0187504D01*
X0011619Y0187504D01*
X0010936Y0186820D01*
X0060496Y0197900D02*
X0060496Y0199268D01*
X0060496Y0198584D02*
X0064600Y0198584D01*
X0064600Y0197900D02*
X0064600Y0199268D01*
X0063916Y0200662D02*
X0061180Y0200662D01*
X0060496Y0201346D01*
X0060496Y0202714D01*
X0061180Y0203398D01*
X0062548Y0204806D02*
X0060496Y0206858D01*
X0064600Y0206858D01*
X0062548Y0207542D02*
X0062548Y0204806D01*
X0063916Y0203398D02*
X0064600Y0202714D01*
X0064600Y0201346D01*
X0063916Y0200662D01*
X0064600Y0270400D02*
X0064600Y0271768D01*
X0064600Y0271084D02*
X0060496Y0271084D01*
X0060496Y0270400D02*
X0060496Y0271768D01*
X0061180Y0273162D02*
X0063916Y0273162D01*
X0064600Y0273846D01*
X0064600Y0275214D01*
X0063916Y0275898D01*
X0063916Y0277306D02*
X0064600Y0277990D01*
X0064600Y0279358D01*
X0063916Y0280042D01*
X0062548Y0280042D01*
X0061864Y0279358D01*
X0061864Y0278674D01*
X0062548Y0277306D01*
X0060496Y0277306D01*
X0060496Y0280042D01*
X0061180Y0275898D02*
X0060496Y0275214D01*
X0060496Y0273846D01*
X0061180Y0273162D01*
X0220250Y0115386D02*
X0221618Y0116754D01*
X0221618Y0112650D01*
X0220250Y0112650D02*
X0222986Y0112650D01*
X0298206Y0105786D02*
X0299574Y0107154D01*
X0299574Y0103050D01*
X0298206Y0103050D02*
X0300942Y0103050D01*
X0329000Y0111400D02*
X0331736Y0111400D01*
X0330368Y0111400D02*
X0330368Y0115504D01*
X0329000Y0114136D01*
X0239118Y0020454D02*
X0237750Y0019086D01*
X0239118Y0020454D02*
X0239118Y0016350D01*
X0237750Y0016350D02*
X0240486Y0016350D01*
X0423032Y0236994D02*
X0423032Y0239296D01*
X0423800Y0240063D01*
X0425334Y0240063D01*
X0426102Y0239296D01*
X0426102Y0236994D01*
X0427636Y0236994D02*
X0423032Y0236994D01*
X0426102Y0238528D02*
X0427636Y0240063D01*
X0426869Y0241598D02*
X0425334Y0241598D01*
X0424567Y0242365D01*
X0424567Y0243900D01*
X0425334Y0244667D01*
X0426102Y0244667D01*
X0426102Y0241598D01*
X0426869Y0241598D02*
X0427636Y0242365D01*
X0427636Y0243900D01*
X0430532Y0241598D02*
X0435136Y0241598D01*
X0432834Y0241598D02*
X0432067Y0242365D01*
X0432067Y0243900D01*
X0432834Y0244667D01*
X0435136Y0244667D01*
X0434369Y0246202D02*
X0432834Y0246202D01*
X0432067Y0246969D01*
X0432067Y0248504D01*
X0432834Y0249271D01*
X0434369Y0249271D01*
X0435136Y0248504D01*
X0435136Y0246969D01*
X0434369Y0246202D01*
X0435136Y0250805D02*
X0432067Y0250805D01*
X0432067Y0251573D01*
X0432834Y0252340D01*
X0432067Y0253107D01*
X0432834Y0253875D01*
X0435136Y0253875D01*
X0435136Y0252340D02*
X0432834Y0252340D01*
X0434369Y0255409D02*
X0433602Y0256177D01*
X0433602Y0258479D01*
X0432834Y0258479D02*
X0435136Y0258479D01*
X0435136Y0256177D01*
X0434369Y0255409D01*
X0432067Y0256177D02*
X0432067Y0257711D01*
X0432834Y0258479D01*
X0432834Y0260013D02*
X0432067Y0260781D01*
X0432067Y0263083D01*
X0433602Y0262315D02*
X0433602Y0260781D01*
X0432834Y0260013D01*
X0435136Y0260013D02*
X0435136Y0262315D01*
X0434369Y0263083D01*
X0433602Y0262315D01*
X0427636Y0260781D02*
X0427636Y0259246D01*
X0426869Y0258479D01*
X0425334Y0258479D01*
X0424567Y0259246D01*
X0424567Y0260781D01*
X0425334Y0261548D01*
X0426102Y0261548D01*
X0426102Y0258479D01*
X0426869Y0256944D02*
X0426102Y0256177D01*
X0426102Y0254642D01*
X0425334Y0253875D01*
X0424567Y0254642D01*
X0424567Y0256944D01*
X0426869Y0256944D02*
X0427636Y0256177D01*
X0427636Y0253875D01*
X0427636Y0252340D02*
X0427636Y0250805D01*
X0427636Y0251573D02*
X0424567Y0251573D01*
X0424567Y0250805D01*
X0424567Y0249271D02*
X0427636Y0247736D01*
X0424567Y0246202D01*
X0423032Y0251573D02*
X0422265Y0251573D01*
X0425334Y0263083D02*
X0424567Y0263850D01*
X0424567Y0266152D01*
X0423032Y0266152D02*
X0427636Y0266152D01*
X0427636Y0263850D01*
X0426869Y0263083D01*
X0425334Y0263083D01*
X0430532Y0269221D02*
X0435136Y0269221D01*
X0435136Y0272290D01*
X0435136Y0273825D02*
X0435136Y0275360D01*
X0435136Y0274592D02*
X0432067Y0274592D01*
X0432067Y0273825D01*
X0430532Y0274592D02*
X0429765Y0274592D01*
X0427636Y0273825D02*
X0427636Y0272290D01*
X0427636Y0273058D02*
X0424567Y0273058D01*
X0424567Y0272290D01*
X0423032Y0273058D02*
X0422265Y0273058D01*
X0424567Y0275360D02*
X0424567Y0277662D01*
X0425334Y0278429D01*
X0427636Y0278429D01*
X0427636Y0275360D02*
X0424567Y0275360D01*
X0432067Y0276894D02*
X0432067Y0279196D01*
X0432834Y0279964D01*
X0435136Y0279964D01*
X0435136Y0281498D02*
X0430532Y0281498D01*
X0432067Y0283800D02*
X0433602Y0281498D01*
X0435136Y0283800D01*
X0434369Y0285335D02*
X0432834Y0285335D01*
X0432067Y0286102D01*
X0432067Y0287637D01*
X0432834Y0288404D01*
X0433602Y0288404D01*
X0433602Y0285335D01*
X0434369Y0285335D02*
X0435136Y0286102D01*
X0435136Y0287637D01*
X0434369Y0294543D02*
X0433602Y0295310D01*
X0433602Y0297612D01*
X0432834Y0297612D02*
X0435136Y0297612D01*
X0435136Y0295310D01*
X0434369Y0294543D01*
X0432067Y0295310D02*
X0432067Y0296845D01*
X0432834Y0297612D01*
X0433602Y0299147D02*
X0432067Y0301449D01*
X0432067Y0303751D02*
X0432067Y0305285D01*
X0432834Y0306053D01*
X0435136Y0306053D01*
X0435136Y0303751D01*
X0434369Y0302983D01*
X0433602Y0303751D01*
X0433602Y0306053D01*
X0435136Y0301449D02*
X0433602Y0299147D01*
X0435136Y0299147D02*
X0430532Y0299147D01*
X0427636Y0298379D02*
X0424567Y0301449D01*
X0423800Y0301449D01*
X0423032Y0300681D01*
X0423032Y0299147D01*
X0423800Y0298379D01*
X0423800Y0296845D02*
X0423032Y0296077D01*
X0423032Y0294543D01*
X0423800Y0293775D01*
X0423800Y0292241D02*
X0426869Y0289172D01*
X0427636Y0289939D01*
X0427636Y0291473D01*
X0426869Y0292241D01*
X0423800Y0292241D01*
X0423032Y0291473D01*
X0423032Y0289939D01*
X0423800Y0289172D01*
X0426869Y0289172D01*
X0427636Y0287637D02*
X0427636Y0284568D01*
X0424567Y0287637D01*
X0423800Y0287637D01*
X0423032Y0286870D01*
X0423032Y0285335D01*
X0423800Y0284568D01*
X0427636Y0293775D02*
X0424567Y0296845D01*
X0423800Y0296845D01*
X0427636Y0296845D02*
X0427636Y0293775D01*
X0427636Y0298379D02*
X0427636Y0301449D01*
X0427636Y0307587D02*
X0423032Y0307587D01*
X0424567Y0307587D02*
X0424567Y0309889D01*
X0425334Y0310656D01*
X0426869Y0310656D01*
X0427636Y0309889D01*
X0427636Y0307587D01*
X0426869Y0312191D02*
X0427636Y0312958D01*
X0427636Y0315260D01*
X0428404Y0315260D02*
X0429171Y0314493D01*
X0429171Y0313726D01*
X0430532Y0313726D02*
X0435136Y0313726D01*
X0434369Y0316795D02*
X0435136Y0317562D01*
X0435136Y0319097D01*
X0434369Y0319864D01*
X0432834Y0319864D01*
X0432067Y0319097D01*
X0432067Y0317562D01*
X0432834Y0316795D01*
X0434369Y0316795D01*
X0430532Y0315260D02*
X0430532Y0312191D01*
X0426869Y0312191D02*
X0424567Y0312191D01*
X0424567Y0315260D02*
X0428404Y0315260D01*
X0432067Y0321399D02*
X0432067Y0322166D01*
X0432834Y0322934D01*
X0432067Y0323701D01*
X0432834Y0324468D01*
X0435136Y0324468D01*
X0435136Y0322934D02*
X0432834Y0322934D01*
X0432067Y0321399D02*
X0435136Y0321399D01*
X0435136Y0326003D02*
X0432067Y0326003D01*
X0432067Y0326770D01*
X0432834Y0327538D01*
X0432067Y0328305D01*
X0432834Y0329072D01*
X0435136Y0329072D01*
X0435136Y0327538D02*
X0432834Y0327538D01*
X0432067Y0330607D02*
X0432067Y0331374D01*
X0435136Y0331374D01*
X0435136Y0330607D02*
X0435136Y0332141D01*
X0435904Y0333676D02*
X0435904Y0336745D01*
X0435136Y0338280D02*
X0432067Y0338280D01*
X0432067Y0340582D01*
X0432834Y0341349D01*
X0435136Y0341349D01*
X0435136Y0342884D02*
X0432067Y0342884D01*
X0432067Y0344419D02*
X0432067Y0345186D01*
X0432067Y0344419D02*
X0433602Y0342884D01*
X0434369Y0346721D02*
X0432067Y0346721D01*
X0434369Y0346721D02*
X0435136Y0347488D01*
X0434369Y0348255D01*
X0435136Y0349023D01*
X0434369Y0349790D01*
X0432067Y0349790D01*
X0430532Y0331374D02*
X0429765Y0331374D01*
X0432067Y0276894D02*
X0435136Y0276894D01*
X0430532Y0240063D02*
X0430532Y0236994D01*
X0430532Y0238528D02*
X0435136Y0238528D01*
D11*
X0010384Y0009000D02*
X0009050Y0009000D01*
X0009717Y0009000D02*
X0009717Y0013003D01*
X0009050Y0013003D02*
X0010384Y0013003D01*
X0011812Y0012336D02*
X0011812Y0009667D01*
X0012480Y0009000D01*
X0013814Y0009000D01*
X0014481Y0009667D01*
X0015956Y0009000D02*
X0018625Y0011669D01*
X0018625Y0012336D01*
X0017958Y0013003D01*
X0016623Y0013003D01*
X0015956Y0012336D01*
X0014481Y0012336D02*
X0013814Y0013003D01*
X0012480Y0013003D01*
X0011812Y0012336D01*
X0015956Y0009000D02*
X0018625Y0009000D01*
X0073119Y0007267D02*
X0073787Y0006600D01*
X0074454Y0006600D01*
X0075121Y0007267D01*
X0075121Y0010603D01*
X0074454Y0010603D02*
X0075788Y0010603D01*
X0077263Y0010603D02*
X0079265Y0010603D01*
X0079932Y0009936D01*
X0079932Y0008602D01*
X0079265Y0007934D01*
X0077263Y0007934D01*
X0077263Y0006600D02*
X0077263Y0010603D01*
X0081406Y0009936D02*
X0082074Y0010603D01*
X0083408Y0010603D01*
X0084075Y0009936D01*
X0084075Y0009269D01*
X0083408Y0008602D01*
X0084075Y0007934D01*
X0084075Y0007267D01*
X0083408Y0006600D01*
X0082074Y0006600D01*
X0081406Y0007267D01*
X0082741Y0008602D02*
X0083408Y0008602D01*
X0225250Y0010317D02*
X0225917Y0009650D01*
X0226584Y0009650D01*
X0227252Y0010317D01*
X0227252Y0013653D01*
X0227919Y0013653D02*
X0226584Y0013653D01*
X0229394Y0013653D02*
X0231395Y0013653D01*
X0232062Y0012986D01*
X0232062Y0011652D01*
X0231395Y0010984D01*
X0229394Y0010984D01*
X0229394Y0009650D02*
X0229394Y0013653D01*
X0233537Y0012319D02*
X0234872Y0013653D01*
X0234872Y0009650D01*
X0236206Y0009650D02*
X0233537Y0009650D01*
X0331900Y0103850D02*
X0331900Y0107853D01*
X0333902Y0107853D01*
X0334569Y0107186D01*
X0334569Y0105852D01*
X0333902Y0105184D01*
X0331900Y0105184D01*
X0336044Y0104517D02*
X0336711Y0103850D01*
X0338045Y0103850D01*
X0338712Y0104517D01*
X0338712Y0105184D01*
X0338045Y0105852D01*
X0337378Y0105852D01*
X0338045Y0105852D02*
X0338712Y0106519D01*
X0338712Y0107186D01*
X0338045Y0107853D01*
X0336711Y0107853D01*
X0336044Y0107186D01*
X0362450Y0107853D02*
X0362450Y0103850D01*
X0363784Y0105184D01*
X0365119Y0103850D01*
X0365119Y0107853D01*
X0366594Y0107853D02*
X0368595Y0107853D01*
X0369262Y0107186D01*
X0369262Y0105852D01*
X0368595Y0105184D01*
X0366594Y0105184D01*
X0366594Y0103850D02*
X0366594Y0107853D01*
X0376363Y0107486D02*
X0376363Y0104817D01*
X0377030Y0104150D01*
X0378365Y0104150D01*
X0379032Y0104817D01*
X0380506Y0104150D02*
X0380506Y0108153D01*
X0379032Y0107486D02*
X0378365Y0108153D01*
X0377030Y0108153D01*
X0376363Y0107486D01*
X0380506Y0104150D02*
X0381841Y0105484D01*
X0383175Y0104150D01*
X0383175Y0108153D01*
X0352400Y0134445D02*
X0351733Y0134445D01*
X0349064Y0137114D01*
X0348397Y0137114D01*
X0348397Y0134445D01*
X0350398Y0138589D02*
X0350398Y0141258D01*
X0348397Y0140590D02*
X0352400Y0140590D01*
X0352400Y0142732D02*
X0352400Y0145401D01*
X0351733Y0146876D02*
X0352400Y0147543D01*
X0352400Y0148878D01*
X0351733Y0149545D01*
X0351066Y0149545D01*
X0350398Y0148878D01*
X0350398Y0147543D01*
X0349731Y0146876D01*
X0349064Y0146876D01*
X0348397Y0147543D01*
X0348397Y0148878D01*
X0349064Y0149545D01*
X0349064Y0151019D02*
X0348397Y0151687D01*
X0348397Y0153021D01*
X0349064Y0153688D01*
X0351733Y0151019D01*
X0352400Y0151687D01*
X0352400Y0153021D01*
X0351733Y0153688D01*
X0349064Y0153688D01*
X0349064Y0155163D02*
X0348397Y0155830D01*
X0348397Y0157165D01*
X0349064Y0157832D01*
X0349731Y0157832D01*
X0350398Y0157165D01*
X0350398Y0155830D01*
X0349731Y0155163D01*
X0349064Y0155163D01*
X0350398Y0155830D02*
X0351066Y0155163D01*
X0351733Y0155163D01*
X0352400Y0155830D01*
X0352400Y0157165D01*
X0351733Y0157832D01*
X0351066Y0157832D01*
X0350398Y0157165D01*
X0348397Y0159306D02*
X0352400Y0161975D01*
X0348397Y0161975D01*
X0348397Y0159306D02*
X0352400Y0159306D01*
X0351733Y0151019D02*
X0349064Y0151019D01*
X0348397Y0142732D02*
X0352400Y0142732D01*
X0348397Y0140590D02*
X0350398Y0138589D01*
X0392147Y0139171D02*
X0392814Y0139171D01*
X0395483Y0136502D01*
X0396150Y0136502D01*
X0392147Y0136502D02*
X0392147Y0139171D01*
X0394148Y0140645D02*
X0392147Y0142647D01*
X0396150Y0142647D01*
X0394148Y0143314D02*
X0394148Y0140645D01*
X0392147Y0144789D02*
X0396150Y0144789D01*
X0396150Y0147458D01*
X0395483Y0148932D02*
X0396150Y0149600D01*
X0396150Y0150934D01*
X0395483Y0151601D01*
X0394816Y0151601D01*
X0394148Y0150934D01*
X0394148Y0149600D01*
X0393481Y0148932D01*
X0392814Y0148932D01*
X0392147Y0149600D01*
X0392147Y0150934D01*
X0392814Y0151601D01*
X0393481Y0153076D02*
X0392147Y0154410D01*
X0396150Y0154410D01*
X0396150Y0153076D02*
X0396150Y0155745D01*
X0395483Y0157219D02*
X0396150Y0157887D01*
X0396150Y0159221D01*
X0395483Y0159888D01*
X0392814Y0159888D01*
X0392147Y0159221D01*
X0392147Y0157887D01*
X0392814Y0157219D01*
X0393481Y0157219D01*
X0394148Y0157887D01*
X0394148Y0159888D01*
X0392814Y0161363D02*
X0392147Y0162030D01*
X0392147Y0163365D01*
X0392814Y0164032D01*
X0393481Y0164032D01*
X0394148Y0163365D01*
X0394816Y0164032D01*
X0395483Y0164032D01*
X0396150Y0163365D01*
X0396150Y0162030D01*
X0395483Y0161363D01*
X0394148Y0162697D02*
X0394148Y0163365D01*
X0392147Y0165506D02*
X0396150Y0165506D01*
X0396150Y0168175D02*
X0392147Y0168175D01*
X0392147Y0165506D02*
X0396150Y0168175D01*
X0422143Y0167785D02*
X0430650Y0167785D01*
X0426396Y0167785D02*
X0424978Y0169203D01*
X0424978Y0172039D01*
X0426396Y0173457D01*
X0430650Y0173457D01*
X0429232Y0176072D02*
X0427814Y0177490D01*
X0427814Y0181744D01*
X0426396Y0181744D02*
X0430650Y0181744D01*
X0430650Y0177490D01*
X0429232Y0176072D01*
X0424978Y0177490D02*
X0424978Y0180326D01*
X0426396Y0181744D01*
X0424978Y0184360D02*
X0424978Y0188613D01*
X0426396Y0190031D01*
X0430650Y0190031D01*
X0429232Y0194065D02*
X0430650Y0195482D01*
X0429232Y0194065D02*
X0423561Y0194065D01*
X0424978Y0195482D02*
X0424978Y0192647D01*
X0426396Y0198171D02*
X0429232Y0198171D01*
X0430650Y0199589D01*
X0430650Y0202425D01*
X0429232Y0203843D01*
X0426396Y0203843D01*
X0424978Y0202425D01*
X0424978Y0199589D01*
X0426396Y0198171D01*
X0424978Y0206458D02*
X0424978Y0207876D01*
X0426396Y0209294D01*
X0424978Y0210712D01*
X0426396Y0212130D01*
X0430650Y0212130D01*
X0430650Y0209294D02*
X0426396Y0209294D01*
X0424978Y0206458D02*
X0430650Y0206458D01*
X0418706Y0206452D02*
X0418706Y0205117D01*
X0418039Y0204450D01*
X0416704Y0204450D01*
X0416037Y0205117D01*
X0416037Y0206452D02*
X0417372Y0207119D01*
X0418039Y0207119D01*
X0418706Y0206452D01*
X0418706Y0208453D02*
X0416037Y0208453D01*
X0416037Y0206452D01*
X0414562Y0204450D02*
X0411894Y0204450D01*
X0413228Y0204450D02*
X0413228Y0208453D01*
X0411894Y0207119D01*
X0410419Y0207786D02*
X0409752Y0208453D01*
X0408417Y0208453D01*
X0407750Y0207786D01*
X0407750Y0205117D01*
X0408417Y0204450D01*
X0409752Y0204450D01*
X0410419Y0205117D01*
X0396268Y0199453D02*
X0393599Y0199453D01*
X0393599Y0197452D01*
X0394934Y0198119D01*
X0395601Y0198119D01*
X0396268Y0197452D01*
X0396268Y0196117D01*
X0395601Y0195450D01*
X0394267Y0195450D01*
X0393599Y0196117D01*
X0392125Y0195450D02*
X0389456Y0195450D01*
X0390790Y0195450D02*
X0390790Y0199453D01*
X0389456Y0198119D01*
X0387981Y0198786D02*
X0387314Y0199453D01*
X0385980Y0199453D01*
X0385312Y0198786D01*
X0385312Y0196117D01*
X0385980Y0195450D01*
X0387314Y0195450D01*
X0387981Y0196117D01*
X0383884Y0195450D02*
X0382550Y0195450D01*
X0383217Y0195450D02*
X0383217Y0199453D01*
X0382550Y0199453D02*
X0383884Y0199453D01*
X0377939Y0197803D02*
X0375937Y0195802D01*
X0378606Y0195802D01*
X0377939Y0197803D02*
X0377939Y0193800D01*
X0374462Y0193800D02*
X0371794Y0193800D01*
X0373128Y0193800D02*
X0373128Y0197803D01*
X0371794Y0196469D01*
X0370319Y0197136D02*
X0369652Y0197803D01*
X0368317Y0197803D01*
X0367650Y0197136D01*
X0367650Y0194467D01*
X0368317Y0193800D01*
X0369652Y0193800D01*
X0370319Y0194467D01*
X0352018Y0187452D02*
X0349349Y0187452D01*
X0351351Y0189453D01*
X0351351Y0185450D01*
X0347875Y0185450D02*
X0345206Y0185450D01*
X0346540Y0185450D02*
X0346540Y0189453D01*
X0345206Y0188119D01*
X0343731Y0188786D02*
X0343064Y0189453D01*
X0341730Y0189453D01*
X0341062Y0188786D01*
X0341062Y0186117D01*
X0341730Y0185450D01*
X0343064Y0185450D01*
X0343731Y0186117D01*
X0339634Y0185450D02*
X0338300Y0185450D01*
X0338967Y0185450D02*
X0338967Y0189453D01*
X0338300Y0189453D02*
X0339634Y0189453D01*
X0333639Y0194950D02*
X0332304Y0194950D01*
X0331637Y0195617D01*
X0330162Y0194950D02*
X0327494Y0194950D01*
X0328828Y0194950D02*
X0328828Y0198953D01*
X0327494Y0197619D01*
X0326019Y0198286D02*
X0325352Y0198953D01*
X0324017Y0198953D01*
X0323350Y0198286D01*
X0323350Y0195617D01*
X0324017Y0194950D01*
X0325352Y0194950D01*
X0326019Y0195617D01*
X0331637Y0198286D02*
X0332304Y0198953D01*
X0333639Y0198953D01*
X0334306Y0198286D01*
X0334306Y0197619D01*
X0333639Y0196952D01*
X0334306Y0196284D01*
X0334306Y0195617D01*
X0333639Y0194950D01*
X0333639Y0196952D02*
X0332972Y0196952D01*
X0348397Y0218795D02*
X0348397Y0221464D01*
X0349064Y0221464D01*
X0351733Y0218795D01*
X0352400Y0218795D01*
X0350398Y0222939D02*
X0350398Y0225608D01*
X0348397Y0224940D02*
X0352400Y0224940D01*
X0352400Y0227082D02*
X0348397Y0227082D01*
X0348397Y0224940D02*
X0350398Y0222939D01*
X0352400Y0227082D02*
X0352400Y0229751D01*
X0351733Y0231226D02*
X0352400Y0231893D01*
X0352400Y0233228D01*
X0351733Y0233895D01*
X0351066Y0233895D01*
X0350398Y0233228D01*
X0350398Y0231893D01*
X0349731Y0231226D01*
X0349064Y0231226D01*
X0348397Y0231893D01*
X0348397Y0233228D01*
X0349064Y0233895D01*
X0349064Y0235369D02*
X0348397Y0236037D01*
X0348397Y0237371D01*
X0349064Y0238038D01*
X0351733Y0235369D01*
X0352400Y0236037D01*
X0352400Y0237371D01*
X0351733Y0238038D01*
X0349064Y0238038D01*
X0350398Y0239513D02*
X0348397Y0241515D01*
X0352400Y0241515D01*
X0350398Y0242182D02*
X0350398Y0239513D01*
X0351733Y0235369D02*
X0349064Y0235369D01*
X0348397Y0243656D02*
X0352400Y0246325D01*
X0348397Y0246325D01*
X0348397Y0243656D02*
X0352400Y0243656D01*
X0352018Y0269200D02*
X0349349Y0269200D01*
X0350684Y0269200D02*
X0350684Y0273203D01*
X0349349Y0271869D01*
X0347875Y0269200D02*
X0345206Y0269200D01*
X0346540Y0269200D02*
X0346540Y0273203D01*
X0345206Y0271869D01*
X0343731Y0272536D02*
X0343064Y0273203D01*
X0341730Y0273203D01*
X0341062Y0272536D01*
X0341062Y0269867D01*
X0341730Y0269200D01*
X0343064Y0269200D01*
X0343731Y0269867D01*
X0339634Y0269200D02*
X0338300Y0269200D01*
X0338967Y0269200D02*
X0338967Y0273203D01*
X0338300Y0273203D02*
X0339634Y0273203D01*
X0330706Y0280567D02*
X0330039Y0279900D01*
X0328704Y0279900D01*
X0328037Y0280567D01*
X0330706Y0283236D01*
X0330706Y0280567D01*
X0328037Y0280567D02*
X0328037Y0283236D01*
X0328704Y0283903D01*
X0330039Y0283903D01*
X0330706Y0283236D01*
X0326562Y0279900D02*
X0323894Y0279900D01*
X0325228Y0279900D02*
X0325228Y0283903D01*
X0323894Y0282569D01*
X0322419Y0283236D02*
X0321752Y0283903D01*
X0320417Y0283903D01*
X0319750Y0283236D01*
X0319750Y0280567D01*
X0320417Y0279900D01*
X0321752Y0279900D01*
X0322419Y0280567D01*
X0305768Y0272536D02*
X0305768Y0269867D01*
X0305101Y0269200D01*
X0303767Y0269200D01*
X0303099Y0269867D01*
X0305768Y0272536D01*
X0305101Y0273203D01*
X0303767Y0273203D01*
X0303099Y0272536D01*
X0303099Y0269867D01*
X0301625Y0269200D02*
X0298956Y0269200D01*
X0300290Y0269200D02*
X0300290Y0273203D01*
X0298956Y0271869D01*
X0297481Y0272536D02*
X0296814Y0273203D01*
X0295480Y0273203D01*
X0294812Y0272536D01*
X0294812Y0269867D01*
X0295480Y0269200D01*
X0296814Y0269200D01*
X0297481Y0269867D01*
X0293384Y0269200D02*
X0292050Y0269200D01*
X0292717Y0269200D02*
X0292717Y0273203D01*
X0292050Y0273203D02*
X0293384Y0273203D01*
X0304647Y0247525D02*
X0308650Y0247525D01*
X0304647Y0244856D01*
X0308650Y0244856D01*
X0308650Y0242715D02*
X0304647Y0242715D01*
X0306648Y0240713D01*
X0306648Y0243382D01*
X0307316Y0239238D02*
X0306648Y0238571D01*
X0306648Y0236569D01*
X0307983Y0236569D01*
X0308650Y0237237D01*
X0308650Y0238571D01*
X0307983Y0239238D01*
X0307316Y0239238D01*
X0305314Y0237904D02*
X0306648Y0236569D01*
X0305314Y0237904D02*
X0304647Y0239238D01*
X0308650Y0235095D02*
X0308650Y0232426D01*
X0308650Y0233760D02*
X0304647Y0233760D01*
X0305981Y0232426D01*
X0305314Y0230951D02*
X0304647Y0230284D01*
X0304647Y0228950D01*
X0305314Y0228282D01*
X0305981Y0228282D01*
X0306648Y0228950D01*
X0306648Y0230284D01*
X0307316Y0230951D01*
X0307983Y0230951D01*
X0308650Y0230284D01*
X0308650Y0228950D01*
X0307983Y0228282D01*
X0308650Y0226808D02*
X0308650Y0224139D01*
X0304647Y0224139D01*
X0304647Y0221997D02*
X0306648Y0219995D01*
X0306648Y0222664D01*
X0304647Y0221997D02*
X0308650Y0221997D01*
X0305314Y0218521D02*
X0304647Y0218521D01*
X0304647Y0215852D01*
X0305314Y0218521D02*
X0307983Y0215852D01*
X0308650Y0215852D01*
X0307601Y0189453D02*
X0308268Y0188786D01*
X0308268Y0188119D01*
X0307601Y0187452D01*
X0308268Y0186784D01*
X0308268Y0186117D01*
X0307601Y0185450D01*
X0306267Y0185450D01*
X0305599Y0186117D01*
X0304125Y0185450D02*
X0301456Y0185450D01*
X0302790Y0185450D02*
X0302790Y0189453D01*
X0301456Y0188119D01*
X0299981Y0188786D02*
X0299314Y0189453D01*
X0297980Y0189453D01*
X0297312Y0188786D01*
X0297312Y0186117D01*
X0297980Y0185450D01*
X0299314Y0185450D01*
X0299981Y0186117D01*
X0295884Y0185450D02*
X0294550Y0185450D01*
X0295217Y0185450D02*
X0295217Y0189453D01*
X0294550Y0189453D02*
X0295884Y0189453D01*
X0305599Y0188786D02*
X0306267Y0189453D01*
X0307601Y0189453D01*
X0307601Y0187452D02*
X0306934Y0187452D01*
X0308050Y0163175D02*
X0304047Y0163175D01*
X0304047Y0160506D02*
X0308050Y0163175D01*
X0308050Y0160506D02*
X0304047Y0160506D01*
X0304047Y0158365D02*
X0306048Y0156363D01*
X0306048Y0159032D01*
X0304047Y0158365D02*
X0308050Y0158365D01*
X0307383Y0154888D02*
X0306716Y0154888D01*
X0306048Y0154221D01*
X0306048Y0152219D01*
X0307383Y0152219D01*
X0308050Y0152887D01*
X0308050Y0154221D01*
X0307383Y0154888D01*
X0304714Y0153554D02*
X0306048Y0152219D01*
X0304714Y0153554D02*
X0304047Y0154888D01*
X0304047Y0149410D02*
X0308050Y0149410D01*
X0308050Y0148076D02*
X0308050Y0150745D01*
X0305381Y0148076D02*
X0304047Y0149410D01*
X0304714Y0146601D02*
X0304047Y0145934D01*
X0304047Y0144600D01*
X0304714Y0143932D01*
X0305381Y0143932D01*
X0306048Y0144600D01*
X0306048Y0145934D01*
X0306716Y0146601D01*
X0307383Y0146601D01*
X0308050Y0145934D01*
X0308050Y0144600D01*
X0307383Y0143932D01*
X0308050Y0142458D02*
X0308050Y0139789D01*
X0304047Y0139789D01*
X0304047Y0137647D02*
X0306048Y0135645D01*
X0306048Y0138314D01*
X0304047Y0137647D02*
X0308050Y0137647D01*
X0304714Y0134171D02*
X0307383Y0131502D01*
X0308050Y0131502D01*
X0304047Y0131502D02*
X0304047Y0134171D01*
X0304714Y0134171D01*
X0239375Y0110453D02*
X0236706Y0106450D01*
X0235232Y0108452D02*
X0234565Y0107784D01*
X0232563Y0107784D01*
X0232563Y0106450D02*
X0232563Y0110453D01*
X0234565Y0110453D01*
X0235232Y0109786D01*
X0235232Y0108452D01*
X0236706Y0110453D02*
X0239375Y0106450D01*
X0392147Y0227595D02*
X0392147Y0230264D01*
X0392814Y0230264D01*
X0395483Y0227595D01*
X0396150Y0227595D01*
X0394148Y0231739D02*
X0392147Y0233740D01*
X0396150Y0233740D01*
X0394148Y0234408D02*
X0394148Y0231739D01*
X0392147Y0235882D02*
X0396150Y0235882D01*
X0396150Y0238551D01*
X0395483Y0240026D02*
X0396150Y0240693D01*
X0396150Y0242028D01*
X0395483Y0242695D01*
X0394816Y0242695D01*
X0394148Y0242028D01*
X0394148Y0240693D01*
X0393481Y0240026D01*
X0392814Y0240026D01*
X0392147Y0240693D01*
X0392147Y0242028D01*
X0392814Y0242695D01*
X0392814Y0244169D02*
X0392147Y0244837D01*
X0392147Y0246171D01*
X0392814Y0246838D01*
X0393481Y0246838D01*
X0394148Y0246171D01*
X0394816Y0246838D01*
X0395483Y0246838D01*
X0396150Y0246171D01*
X0396150Y0244837D01*
X0395483Y0244169D01*
X0394148Y0245504D02*
X0394148Y0246171D01*
X0392814Y0248313D02*
X0392147Y0248980D01*
X0392147Y0250315D01*
X0392814Y0250982D01*
X0393481Y0250982D01*
X0396150Y0248313D01*
X0396150Y0250982D01*
X0396150Y0252456D02*
X0392147Y0252456D01*
X0396150Y0255125D01*
X0392147Y0255125D01*
X0391625Y0279200D02*
X0388956Y0279200D01*
X0390290Y0279200D02*
X0390290Y0283203D01*
X0388956Y0281869D01*
X0387481Y0282536D02*
X0386814Y0283203D01*
X0385480Y0283203D01*
X0384812Y0282536D01*
X0384812Y0279867D01*
X0385480Y0279200D01*
X0386814Y0279200D01*
X0387481Y0279867D01*
X0383384Y0279200D02*
X0382050Y0279200D01*
X0382717Y0279200D02*
X0382717Y0283203D01*
X0382050Y0283203D02*
X0383384Y0283203D01*
X0376206Y0278150D02*
X0373537Y0278150D01*
X0374872Y0278150D02*
X0374872Y0282153D01*
X0373537Y0280819D01*
X0372062Y0278150D02*
X0369394Y0278150D01*
X0370728Y0278150D02*
X0370728Y0282153D01*
X0369394Y0280819D01*
X0367919Y0281486D02*
X0367252Y0282153D01*
X0365917Y0282153D01*
X0365250Y0281486D01*
X0365250Y0278817D01*
X0365917Y0278150D01*
X0367252Y0278150D01*
X0367919Y0278817D01*
X0393099Y0279200D02*
X0395768Y0281869D01*
X0395768Y0282536D01*
X0395101Y0283203D01*
X0393767Y0283203D01*
X0393099Y0282536D01*
X0393099Y0279200D02*
X0395768Y0279200D01*
X0407800Y0288817D02*
X0408467Y0288150D01*
X0409802Y0288150D01*
X0410469Y0288817D01*
X0411944Y0288150D02*
X0414612Y0288150D01*
X0413278Y0288150D02*
X0413278Y0292153D01*
X0411944Y0290819D01*
X0410469Y0291486D02*
X0409802Y0292153D01*
X0408467Y0292153D01*
X0407800Y0291486D01*
X0407800Y0288817D01*
X0416087Y0288150D02*
X0418756Y0290819D01*
X0418756Y0291486D01*
X0418089Y0292153D01*
X0416754Y0292153D01*
X0416087Y0291486D01*
X0416087Y0288150D02*
X0418756Y0288150D01*
X0396150Y0310145D02*
X0395483Y0310145D01*
X0392814Y0312814D01*
X0392147Y0312814D01*
X0392147Y0310145D01*
X0394148Y0314289D02*
X0392147Y0316290D01*
X0396150Y0316290D01*
X0394148Y0316958D02*
X0394148Y0314289D01*
X0392147Y0318432D02*
X0396150Y0318432D01*
X0396150Y0321101D01*
X0395483Y0322576D02*
X0396150Y0323243D01*
X0396150Y0324578D01*
X0395483Y0325245D01*
X0394816Y0325245D01*
X0394148Y0324578D01*
X0394148Y0323243D01*
X0393481Y0322576D01*
X0392814Y0322576D01*
X0392147Y0323243D01*
X0392147Y0324578D01*
X0392814Y0325245D01*
X0392814Y0326719D02*
X0392147Y0327387D01*
X0392147Y0328721D01*
X0392814Y0329388D01*
X0395483Y0326719D01*
X0396150Y0327387D01*
X0396150Y0328721D01*
X0395483Y0329388D01*
X0392814Y0329388D01*
X0392814Y0330863D02*
X0392147Y0331530D01*
X0392147Y0332865D01*
X0392814Y0333532D01*
X0395483Y0330863D01*
X0396150Y0331530D01*
X0396150Y0332865D01*
X0395483Y0333532D01*
X0392814Y0333532D01*
X0392147Y0335006D02*
X0396150Y0337675D01*
X0392147Y0337675D01*
X0392147Y0335006D02*
X0396150Y0335006D01*
X0395483Y0330863D02*
X0392814Y0330863D01*
X0392814Y0326719D02*
X0395483Y0326719D01*
X0390958Y0362950D02*
X0391625Y0363617D01*
X0391625Y0366286D01*
X0390958Y0366953D01*
X0389623Y0366953D01*
X0388956Y0366286D01*
X0388956Y0365619D01*
X0389623Y0364952D01*
X0391625Y0364952D01*
X0390958Y0362950D02*
X0389623Y0362950D01*
X0388956Y0363617D01*
X0387481Y0363617D02*
X0386814Y0362950D01*
X0385480Y0362950D01*
X0384812Y0363617D01*
X0384812Y0366286D01*
X0385480Y0366953D01*
X0386814Y0366953D01*
X0387481Y0366286D01*
X0383384Y0366953D02*
X0382050Y0366953D01*
X0382717Y0366953D02*
X0382717Y0362950D01*
X0382050Y0362950D02*
X0383384Y0362950D01*
X0374512Y0371317D02*
X0373845Y0370650D01*
X0372511Y0370650D01*
X0371844Y0371317D01*
X0371844Y0371984D01*
X0372511Y0372652D01*
X0373845Y0372652D01*
X0374512Y0371984D01*
X0374512Y0371317D01*
X0373845Y0372652D02*
X0374512Y0373319D01*
X0374512Y0373986D01*
X0373845Y0374653D01*
X0372511Y0374653D01*
X0371844Y0373986D01*
X0371844Y0373319D01*
X0372511Y0372652D01*
X0370369Y0373986D02*
X0369702Y0374653D01*
X0368367Y0374653D01*
X0367700Y0373986D01*
X0367700Y0371317D01*
X0368367Y0370650D01*
X0369702Y0370650D01*
X0370369Y0371317D01*
X0345875Y0366286D02*
X0345875Y0365619D01*
X0345208Y0364952D01*
X0343873Y0364952D01*
X0343206Y0365619D01*
X0343206Y0366286D01*
X0343873Y0366953D01*
X0345208Y0366953D01*
X0345875Y0366286D01*
X0345208Y0364952D02*
X0345875Y0364284D01*
X0345875Y0363617D01*
X0345208Y0362950D01*
X0343873Y0362950D01*
X0343206Y0363617D01*
X0343206Y0364284D01*
X0343873Y0364952D01*
X0341731Y0366286D02*
X0341064Y0366953D01*
X0339730Y0366953D01*
X0339062Y0366286D01*
X0339062Y0363617D01*
X0339730Y0362950D01*
X0341064Y0362950D01*
X0341731Y0363617D01*
X0337634Y0362950D02*
X0336300Y0362950D01*
X0336967Y0362950D02*
X0336967Y0366953D01*
X0336300Y0366953D02*
X0337634Y0366953D01*
X0330762Y0373836D02*
X0330762Y0374503D01*
X0328094Y0374503D01*
X0326619Y0373836D02*
X0325952Y0374503D01*
X0324617Y0374503D01*
X0323950Y0373836D01*
X0323950Y0371167D01*
X0324617Y0370500D01*
X0325952Y0370500D01*
X0326619Y0371167D01*
X0328094Y0371167D02*
X0328094Y0370500D01*
X0328094Y0371167D02*
X0330762Y0373836D01*
X0301625Y0366953D02*
X0301625Y0366286D01*
X0298956Y0363617D01*
X0298956Y0362950D01*
X0297481Y0363617D02*
X0296814Y0362950D01*
X0295480Y0362950D01*
X0294812Y0363617D01*
X0294812Y0366286D01*
X0295480Y0366953D01*
X0296814Y0366953D01*
X0297481Y0366286D01*
X0298956Y0366953D02*
X0301625Y0366953D01*
X0293384Y0366953D02*
X0292050Y0366953D01*
X0292717Y0366953D02*
X0292717Y0362950D01*
X0292050Y0362950D02*
X0293384Y0362950D01*
X0270100Y0361730D02*
X0267431Y0364399D01*
X0266764Y0364399D01*
X0266097Y0363732D01*
X0266097Y0362397D01*
X0266764Y0361730D01*
X0266764Y0360255D02*
X0267431Y0360255D01*
X0268098Y0359588D01*
X0268098Y0357587D01*
X0266764Y0356112D02*
X0266097Y0355445D01*
X0266097Y0354110D01*
X0266764Y0353443D01*
X0269433Y0353443D01*
X0270100Y0354110D01*
X0270100Y0355445D01*
X0269433Y0356112D01*
X0270100Y0357587D02*
X0266097Y0357587D01*
X0266097Y0359588D01*
X0266764Y0360255D01*
X0268098Y0359588D02*
X0268766Y0360255D01*
X0269433Y0360255D01*
X0270100Y0359588D01*
X0270100Y0357587D01*
X0270100Y0361730D02*
X0270100Y0364399D01*
X0266097Y0351968D02*
X0270100Y0349299D01*
X0269433Y0347825D02*
X0270100Y0347158D01*
X0270100Y0345823D01*
X0269433Y0345156D01*
X0269433Y0343681D02*
X0270100Y0343014D01*
X0270100Y0341680D01*
X0269433Y0341012D01*
X0266764Y0341012D01*
X0266097Y0341680D01*
X0266097Y0343014D01*
X0266764Y0343681D01*
X0266764Y0345156D02*
X0266097Y0345823D01*
X0266097Y0347158D01*
X0266764Y0347825D01*
X0267431Y0347825D01*
X0268098Y0347158D01*
X0268766Y0347825D01*
X0269433Y0347825D01*
X0268098Y0347158D02*
X0268098Y0346490D01*
X0266097Y0339584D02*
X0266097Y0338250D01*
X0266097Y0338917D02*
X0270100Y0338917D01*
X0270100Y0338250D02*
X0270100Y0339584D01*
X0274217Y0331453D02*
X0273550Y0330786D01*
X0273550Y0328117D01*
X0274217Y0327450D01*
X0275552Y0327450D01*
X0276219Y0328117D01*
X0277694Y0328117D02*
X0278361Y0327450D01*
X0279695Y0327450D01*
X0280362Y0328117D01*
X0280362Y0328784D01*
X0279695Y0329452D01*
X0279028Y0329452D01*
X0279695Y0329452D02*
X0280362Y0330119D01*
X0280362Y0330786D01*
X0279695Y0331453D01*
X0278361Y0331453D01*
X0277694Y0330786D01*
X0276219Y0330786D02*
X0275552Y0331453D01*
X0274217Y0331453D01*
X0304647Y0332130D02*
X0304647Y0333465D01*
X0305314Y0334132D01*
X0305981Y0334132D01*
X0306648Y0333465D01*
X0306648Y0332130D01*
X0305981Y0331463D01*
X0305314Y0331463D01*
X0304647Y0332130D01*
X0306648Y0332130D02*
X0307316Y0331463D01*
X0307983Y0331463D01*
X0308650Y0332130D01*
X0308650Y0333465D01*
X0307983Y0334132D01*
X0307316Y0334132D01*
X0306648Y0333465D01*
X0304647Y0335606D02*
X0308650Y0335606D01*
X0308650Y0338275D02*
X0304647Y0338275D01*
X0304647Y0335606D02*
X0308650Y0338275D01*
X0307983Y0329988D02*
X0308650Y0329321D01*
X0308650Y0327987D01*
X0307983Y0327319D01*
X0305314Y0329988D01*
X0307983Y0329988D01*
X0307983Y0327319D02*
X0305314Y0327319D01*
X0304647Y0327987D01*
X0304647Y0329321D01*
X0305314Y0329988D01*
X0305314Y0325845D02*
X0304647Y0325178D01*
X0304647Y0323843D01*
X0305314Y0323176D01*
X0305981Y0323176D01*
X0306648Y0323843D01*
X0306648Y0325178D01*
X0307316Y0325845D01*
X0307983Y0325845D01*
X0308650Y0325178D01*
X0308650Y0323843D01*
X0307983Y0323176D01*
X0308650Y0321701D02*
X0308650Y0319032D01*
X0304647Y0319032D01*
X0304647Y0316890D02*
X0306648Y0314889D01*
X0306648Y0317558D01*
X0304647Y0316890D02*
X0308650Y0316890D01*
X0305314Y0313414D02*
X0304647Y0313414D01*
X0304647Y0310745D01*
X0305314Y0313414D02*
X0307983Y0310745D01*
X0308650Y0310745D01*
X0348397Y0311689D02*
X0352400Y0311689D01*
X0352400Y0314358D01*
X0351733Y0315832D02*
X0352400Y0316500D01*
X0352400Y0317834D01*
X0351733Y0318501D01*
X0351066Y0318501D01*
X0350398Y0317834D01*
X0350398Y0316500D01*
X0349731Y0315832D01*
X0349064Y0315832D01*
X0348397Y0316500D01*
X0348397Y0317834D01*
X0349064Y0318501D01*
X0349731Y0319976D02*
X0348397Y0321310D01*
X0352400Y0321310D01*
X0352400Y0319976D02*
X0352400Y0322645D01*
X0351733Y0324119D02*
X0352400Y0324787D01*
X0352400Y0326121D01*
X0351733Y0326788D01*
X0349064Y0326788D01*
X0348397Y0326121D01*
X0348397Y0324787D01*
X0349064Y0324119D01*
X0349731Y0324119D01*
X0350398Y0324787D01*
X0350398Y0326788D01*
X0349064Y0328263D02*
X0348397Y0328930D01*
X0348397Y0330265D01*
X0349064Y0330932D01*
X0349731Y0330932D01*
X0350398Y0330265D01*
X0351066Y0330932D01*
X0351733Y0330932D01*
X0352400Y0330265D01*
X0352400Y0328930D01*
X0351733Y0328263D01*
X0350398Y0329597D02*
X0350398Y0330265D01*
X0348397Y0332406D02*
X0352400Y0332406D01*
X0352400Y0335075D02*
X0348397Y0335075D01*
X0348397Y0332406D02*
X0352400Y0335075D01*
X0350398Y0310214D02*
X0350398Y0307545D01*
X0348397Y0309547D01*
X0352400Y0309547D01*
X0349064Y0306071D02*
X0348397Y0306071D01*
X0348397Y0303402D01*
X0349064Y0306071D02*
X0351733Y0303402D01*
X0352400Y0303402D01*
X0412717Y0370650D02*
X0414052Y0370650D01*
X0414719Y0371317D01*
X0416194Y0371317D02*
X0416861Y0370650D01*
X0418195Y0370650D01*
X0418862Y0371317D01*
X0418862Y0373986D01*
X0418195Y0374653D01*
X0416861Y0374653D01*
X0416194Y0373986D01*
X0416194Y0373319D01*
X0416861Y0372652D01*
X0418862Y0372652D01*
X0414719Y0373986D02*
X0414052Y0374653D01*
X0412717Y0374653D01*
X0412050Y0373986D01*
X0412050Y0371317D01*
X0412717Y0370650D01*
X0252712Y0370767D02*
X0252045Y0370100D01*
X0250711Y0370100D01*
X0250044Y0370767D01*
X0250044Y0372102D01*
X0252045Y0372102D01*
X0252712Y0371434D01*
X0252712Y0370767D01*
X0251378Y0373436D02*
X0250044Y0372102D01*
X0248569Y0372102D02*
X0247902Y0371434D01*
X0245900Y0371434D01*
X0245900Y0370100D02*
X0245900Y0374103D01*
X0247902Y0374103D01*
X0248569Y0373436D01*
X0248569Y0372102D01*
X0247234Y0371434D02*
X0248569Y0370100D01*
X0251378Y0373436D02*
X0252712Y0374103D01*
X0243512Y0374103D02*
X0240844Y0374103D01*
X0240844Y0372102D01*
X0242178Y0372769D01*
X0242845Y0372769D01*
X0243512Y0372102D01*
X0243512Y0370767D01*
X0242845Y0370100D01*
X0241511Y0370100D01*
X0240844Y0370767D01*
X0239369Y0370100D02*
X0238034Y0371434D01*
X0238702Y0371434D02*
X0236700Y0371434D01*
X0236700Y0370100D02*
X0236700Y0374103D01*
X0238702Y0374103D01*
X0239369Y0373436D01*
X0239369Y0372102D01*
X0238702Y0371434D01*
X0234012Y0371852D02*
X0231344Y0371852D01*
X0233345Y0373853D01*
X0233345Y0369850D01*
X0229869Y0369850D02*
X0228534Y0371184D01*
X0229202Y0371184D02*
X0227200Y0371184D01*
X0227200Y0369850D02*
X0227200Y0373853D01*
X0229202Y0373853D01*
X0229869Y0373186D01*
X0229869Y0371852D01*
X0229202Y0371184D01*
X0224962Y0371384D02*
X0224962Y0370717D01*
X0224295Y0370050D01*
X0222961Y0370050D01*
X0222294Y0370717D01*
X0220819Y0370050D02*
X0219484Y0371384D01*
X0220152Y0371384D02*
X0218150Y0371384D01*
X0218150Y0370050D02*
X0218150Y0374053D01*
X0220152Y0374053D01*
X0220819Y0373386D01*
X0220819Y0372052D01*
X0220152Y0371384D01*
X0222294Y0373386D02*
X0222961Y0374053D01*
X0224295Y0374053D01*
X0224962Y0373386D01*
X0224962Y0372719D01*
X0224295Y0372052D01*
X0224962Y0371384D01*
X0224295Y0372052D02*
X0223628Y0372052D01*
X0195262Y0353036D02*
X0194595Y0353703D01*
X0193261Y0353703D01*
X0192594Y0353036D01*
X0191119Y0353036D02*
X0191119Y0351702D01*
X0190452Y0351034D01*
X0188450Y0351034D01*
X0188450Y0349700D02*
X0188450Y0353703D01*
X0190452Y0353703D01*
X0191119Y0353036D01*
X0189784Y0351034D02*
X0191119Y0349700D01*
X0192594Y0349700D02*
X0195262Y0352369D01*
X0195262Y0353036D01*
X0195262Y0349700D02*
X0192594Y0349700D01*
X0179358Y0335453D02*
X0180025Y0334786D01*
X0180025Y0334119D01*
X0179358Y0333452D01*
X0177356Y0333452D01*
X0175882Y0332784D02*
X0175882Y0332117D01*
X0175215Y0331450D01*
X0173880Y0331450D01*
X0173213Y0332117D01*
X0173213Y0333452D01*
X0175215Y0333452D01*
X0175882Y0332784D01*
X0177356Y0331450D02*
X0179358Y0331450D01*
X0180025Y0332117D01*
X0180025Y0332784D01*
X0179358Y0333452D01*
X0179358Y0335453D02*
X0177356Y0335453D01*
X0177356Y0331450D01*
X0175882Y0335453D02*
X0174547Y0334786D01*
X0173213Y0333452D01*
X0171738Y0334786D02*
X0171071Y0335453D01*
X0169737Y0335453D01*
X0169069Y0334786D01*
X0169069Y0332117D01*
X0169737Y0331450D01*
X0171071Y0331450D01*
X0171738Y0332117D01*
X0142524Y0351450D02*
X0142524Y0355453D01*
X0139855Y0355453D02*
X0142524Y0351450D01*
X0139855Y0351450D02*
X0139855Y0355453D01*
X0138380Y0354786D02*
X0137713Y0355453D01*
X0136378Y0355453D01*
X0135711Y0354786D01*
X0134237Y0354786D02*
X0133569Y0355453D01*
X0132235Y0355453D01*
X0131568Y0354786D01*
X0134237Y0354786D02*
X0134237Y0354119D01*
X0131568Y0351450D01*
X0134237Y0351450D01*
X0135711Y0352117D02*
X0136378Y0351450D01*
X0137713Y0351450D01*
X0138380Y0352117D01*
X0138380Y0352784D01*
X0137713Y0353452D01*
X0137046Y0353452D01*
X0137713Y0353452D02*
X0138380Y0354119D01*
X0138380Y0354786D01*
X0130093Y0351450D02*
X0127424Y0351450D01*
X0128759Y0351450D02*
X0128759Y0355453D01*
X0127424Y0354119D01*
X0125950Y0354786D02*
X0125282Y0355453D01*
X0123948Y0355453D01*
X0123281Y0354786D01*
X0123281Y0354119D01*
X0123948Y0353452D01*
X0125282Y0353452D01*
X0125950Y0352784D01*
X0125950Y0352117D01*
X0125282Y0351450D01*
X0123948Y0351450D01*
X0123281Y0352117D01*
X0121806Y0351450D02*
X0119137Y0351450D01*
X0119137Y0355453D01*
X0116995Y0355453D02*
X0114994Y0353452D01*
X0117662Y0353452D01*
X0116995Y0355453D02*
X0116995Y0351450D01*
X0113519Y0354786D02*
X0110850Y0352117D01*
X0110850Y0351450D01*
X0113519Y0354786D02*
X0113519Y0355453D01*
X0110850Y0355453D01*
X0087700Y0336495D02*
X0087700Y0335161D01*
X0087033Y0334494D01*
X0085698Y0334494D01*
X0085698Y0336495D01*
X0086366Y0337162D01*
X0087033Y0337162D01*
X0087700Y0336495D01*
X0085698Y0334494D02*
X0084364Y0335828D01*
X0083697Y0337162D01*
X0084364Y0333019D02*
X0083697Y0332352D01*
X0083697Y0331017D01*
X0084364Y0330350D01*
X0087033Y0330350D01*
X0087700Y0331017D01*
X0087700Y0332352D01*
X0087033Y0333019D01*
X0064375Y0354700D02*
X0061706Y0354700D01*
X0063041Y0354700D02*
X0063041Y0358703D01*
X0061706Y0357369D01*
X0060232Y0358036D02*
X0060232Y0356702D01*
X0059565Y0356034D01*
X0057563Y0356034D01*
X0057563Y0354700D02*
X0057563Y0358703D01*
X0059565Y0358703D01*
X0060232Y0358036D01*
X0058897Y0356034D02*
X0060232Y0354700D01*
X0060352Y0370000D02*
X0061019Y0370667D01*
X0060352Y0370000D02*
X0059017Y0370000D01*
X0058350Y0370667D01*
X0058350Y0373336D01*
X0059017Y0374003D01*
X0060352Y0374003D01*
X0061019Y0373336D01*
X0062494Y0372002D02*
X0064495Y0372002D01*
X0065162Y0371334D01*
X0065162Y0370667D01*
X0064495Y0370000D01*
X0063161Y0370000D01*
X0062494Y0370667D01*
X0062494Y0372002D01*
X0063828Y0373336D01*
X0065162Y0374003D01*
X0066637Y0372669D02*
X0066637Y0370000D01*
X0066637Y0372002D02*
X0069306Y0372002D01*
X0069306Y0372669D02*
X0069306Y0370000D01*
X0069306Y0372669D02*
X0067972Y0374003D01*
X0066637Y0372669D01*
X0084617Y0309853D02*
X0083950Y0309186D01*
X0083950Y0306517D01*
X0084617Y0305850D01*
X0085952Y0305850D01*
X0086619Y0306517D01*
X0088094Y0306517D02*
X0088761Y0305850D01*
X0090095Y0305850D01*
X0090762Y0306517D01*
X0090762Y0307852D01*
X0090095Y0308519D01*
X0089428Y0308519D01*
X0088094Y0307852D01*
X0088094Y0309853D01*
X0090762Y0309853D01*
X0086619Y0309186D02*
X0085952Y0309853D01*
X0084617Y0309853D01*
X0084752Y0237253D02*
X0083417Y0237253D01*
X0082750Y0236586D01*
X0082750Y0233917D01*
X0083417Y0233250D01*
X0084752Y0233250D01*
X0085419Y0233917D01*
X0086894Y0235252D02*
X0089562Y0235252D01*
X0088895Y0237253D02*
X0086894Y0235252D01*
X0085419Y0236586D02*
X0084752Y0237253D01*
X0088895Y0237253D02*
X0088895Y0233250D01*
X0221650Y0326050D02*
X0222984Y0326050D01*
X0222317Y0326050D02*
X0222317Y0330053D01*
X0221650Y0330053D02*
X0222984Y0330053D01*
X0224412Y0329386D02*
X0224412Y0326717D01*
X0225080Y0326050D01*
X0226414Y0326050D01*
X0227081Y0326717D01*
X0228556Y0326717D02*
X0229223Y0326050D01*
X0230558Y0326050D01*
X0231225Y0326717D01*
X0231225Y0327384D01*
X0230558Y0328052D01*
X0229890Y0328052D01*
X0230558Y0328052D02*
X0231225Y0328719D01*
X0231225Y0329386D01*
X0230558Y0330053D01*
X0229223Y0330053D01*
X0228556Y0329386D01*
X0227081Y0329386D02*
X0226414Y0330053D01*
X0225080Y0330053D01*
X0224412Y0329386D01*
X0172050Y0357450D02*
X0172050Y0358784D01*
X0172050Y0358117D02*
X0168047Y0358117D01*
X0168047Y0357450D02*
X0168047Y0358784D01*
X0168714Y0360212D02*
X0171383Y0360212D01*
X0172050Y0360880D01*
X0172050Y0362214D01*
X0171383Y0362881D01*
X0171383Y0364356D02*
X0172050Y0365023D01*
X0172050Y0366358D01*
X0171383Y0367025D01*
X0170716Y0367025D01*
X0170048Y0366358D01*
X0170048Y0364356D01*
X0171383Y0364356D01*
X0170048Y0364356D02*
X0168714Y0365690D01*
X0168047Y0367025D01*
X0168714Y0362881D02*
X0168047Y0362214D01*
X0168047Y0360880D01*
X0168714Y0360212D01*
X0422143Y0163752D02*
X0422143Y0159498D01*
X0430650Y0159498D01*
X0427814Y0159498D02*
X0427814Y0163752D01*
X0426396Y0165170D01*
X0423561Y0165170D01*
X0422143Y0163752D01*
X0426396Y0148596D02*
X0427814Y0148596D01*
X0427814Y0142924D01*
X0426396Y0142924D02*
X0424978Y0144342D01*
X0424978Y0147178D01*
X0426396Y0148596D01*
X0430650Y0147178D02*
X0430650Y0144342D01*
X0429232Y0142924D01*
X0426396Y0142924D01*
X0426396Y0140309D02*
X0430650Y0140309D01*
X0426396Y0140309D02*
X0424978Y0138891D01*
X0424978Y0136055D01*
X0426396Y0134637D01*
X0422143Y0134637D02*
X0430650Y0134637D01*
X0430650Y0129186D02*
X0422143Y0129186D01*
X0422143Y0126350D02*
X0422143Y0132022D01*
X0424978Y0184360D02*
X0430650Y0184360D01*
D12*
X0429142Y0219184D02*
X0426674Y0219184D01*
X0429142Y0219184D02*
X0430377Y0220418D01*
X0429142Y0221653D01*
X0426674Y0221653D01*
X0427908Y0222867D02*
X0426674Y0224101D01*
X0430377Y0224101D01*
X0430377Y0222867D02*
X0430377Y0225336D01*
X0430377Y0226550D02*
X0430377Y0227167D01*
X0429760Y0227167D01*
X0429760Y0226550D01*
X0430377Y0226550D01*
X0430377Y0228392D02*
X0430377Y0230860D01*
X0430377Y0229626D02*
X0426674Y0229626D01*
X0427908Y0228392D01*
X0183275Y0214974D02*
X0183275Y0213122D01*
X0183275Y0214974D02*
X0182657Y0215591D01*
X0180806Y0215591D01*
X0180806Y0213122D01*
X0179591Y0214357D02*
X0177123Y0214357D01*
X0177123Y0214974D02*
X0177740Y0215591D01*
X0178974Y0215591D01*
X0179591Y0214974D01*
X0179591Y0214357D01*
X0178974Y0213122D02*
X0177740Y0213122D01*
X0177123Y0213740D01*
X0177123Y0214974D01*
X0175908Y0215591D02*
X0174674Y0213122D01*
X0173440Y0215591D01*
X0172225Y0214974D02*
X0172225Y0213122D01*
X0170374Y0213122D01*
X0169756Y0213740D01*
X0170374Y0214357D01*
X0172225Y0214357D01*
X0172225Y0214974D02*
X0171608Y0215591D01*
X0170374Y0215591D01*
X0168539Y0215591D02*
X0167922Y0215591D01*
X0166687Y0214357D01*
X0166687Y0215591D02*
X0166687Y0213122D01*
X0165473Y0213740D02*
X0165473Y0216208D01*
X0164856Y0216826D01*
X0163004Y0216826D01*
X0163004Y0213122D01*
X0164856Y0213122D01*
X0165473Y0213740D01*
X0158103Y0215591D02*
X0157486Y0215591D01*
X0156252Y0214357D01*
X0156252Y0215591D02*
X0156252Y0213122D01*
X0155037Y0213740D02*
X0155037Y0214974D01*
X0154420Y0215591D01*
X0153186Y0215591D01*
X0152568Y0214974D01*
X0152568Y0213740D01*
X0153186Y0213122D01*
X0154420Y0213122D01*
X0155037Y0213740D01*
X0151347Y0214974D02*
X0150113Y0214974D01*
X0150730Y0216208D02*
X0151347Y0216826D01*
X0150730Y0216208D02*
X0150730Y0213122D01*
D13*
X0206300Y0197200D02*
X0206300Y0250200D01*
X0066300Y0250200D01*
X0066300Y0227700D01*
X0066426Y0227698D01*
X0066551Y0227692D01*
X0066676Y0227682D01*
X0066801Y0227668D01*
X0066926Y0227651D01*
X0067050Y0227629D01*
X0067173Y0227604D01*
X0067295Y0227574D01*
X0067416Y0227541D01*
X0067536Y0227504D01*
X0067655Y0227464D01*
X0067772Y0227419D01*
X0067889Y0227371D01*
X0068003Y0227319D01*
X0068116Y0227264D01*
X0068227Y0227205D01*
X0068336Y0227143D01*
X0068443Y0227077D01*
X0068548Y0227008D01*
X0068651Y0226936D01*
X0068752Y0226861D01*
X0068850Y0226782D01*
X0068945Y0226700D01*
X0069038Y0226616D01*
X0069128Y0226528D01*
X0069216Y0226438D01*
X0069300Y0226345D01*
X0069382Y0226250D01*
X0069461Y0226152D01*
X0069536Y0226051D01*
X0069608Y0225948D01*
X0069677Y0225843D01*
X0069743Y0225736D01*
X0069805Y0225627D01*
X0069864Y0225516D01*
X0069919Y0225403D01*
X0069971Y0225289D01*
X0070019Y0225172D01*
X0070064Y0225055D01*
X0070104Y0224936D01*
X0070141Y0224816D01*
X0070174Y0224695D01*
X0070204Y0224573D01*
X0070229Y0224450D01*
X0070251Y0224326D01*
X0070268Y0224201D01*
X0070282Y0224076D01*
X0070292Y0223951D01*
X0070298Y0223826D01*
X0070300Y0223700D01*
X0070298Y0223574D01*
X0070292Y0223449D01*
X0070282Y0223324D01*
X0070268Y0223199D01*
X0070251Y0223074D01*
X0070229Y0222950D01*
X0070204Y0222827D01*
X0070174Y0222705D01*
X0070141Y0222584D01*
X0070104Y0222464D01*
X0070064Y0222345D01*
X0070019Y0222228D01*
X0069971Y0222111D01*
X0069919Y0221997D01*
X0069864Y0221884D01*
X0069805Y0221773D01*
X0069743Y0221664D01*
X0069677Y0221557D01*
X0069608Y0221452D01*
X0069536Y0221349D01*
X0069461Y0221248D01*
X0069382Y0221150D01*
X0069300Y0221055D01*
X0069216Y0220962D01*
X0069128Y0220872D01*
X0069038Y0220784D01*
X0068945Y0220700D01*
X0068850Y0220618D01*
X0068752Y0220539D01*
X0068651Y0220464D01*
X0068548Y0220392D01*
X0068443Y0220323D01*
X0068336Y0220257D01*
X0068227Y0220195D01*
X0068116Y0220136D01*
X0068003Y0220081D01*
X0067889Y0220029D01*
X0067772Y0219981D01*
X0067655Y0219936D01*
X0067536Y0219896D01*
X0067416Y0219859D01*
X0067295Y0219826D01*
X0067173Y0219796D01*
X0067050Y0219771D01*
X0066926Y0219749D01*
X0066801Y0219732D01*
X0066676Y0219718D01*
X0066551Y0219708D01*
X0066426Y0219702D01*
X0066300Y0219700D01*
X0066300Y0197200D01*
X0206300Y0197200D01*
X0206300Y0175373D02*
X0206300Y0122373D01*
X0006300Y0122373D01*
X0006300Y0144373D01*
X0006426Y0144375D01*
X0006551Y0144381D01*
X0006676Y0144391D01*
X0006801Y0144405D01*
X0006926Y0144422D01*
X0007050Y0144444D01*
X0007173Y0144469D01*
X0007295Y0144499D01*
X0007416Y0144532D01*
X0007536Y0144569D01*
X0007655Y0144609D01*
X0007772Y0144654D01*
X0007889Y0144702D01*
X0008003Y0144754D01*
X0008116Y0144809D01*
X0008227Y0144868D01*
X0008336Y0144930D01*
X0008443Y0144996D01*
X0008548Y0145065D01*
X0008651Y0145137D01*
X0008752Y0145212D01*
X0008850Y0145291D01*
X0008945Y0145373D01*
X0009038Y0145457D01*
X0009128Y0145545D01*
X0009216Y0145635D01*
X0009300Y0145728D01*
X0009382Y0145823D01*
X0009461Y0145921D01*
X0009536Y0146022D01*
X0009608Y0146125D01*
X0009677Y0146230D01*
X0009743Y0146337D01*
X0009805Y0146446D01*
X0009864Y0146557D01*
X0009919Y0146670D01*
X0009971Y0146784D01*
X0010019Y0146901D01*
X0010064Y0147018D01*
X0010104Y0147137D01*
X0010141Y0147257D01*
X0010174Y0147378D01*
X0010204Y0147500D01*
X0010229Y0147623D01*
X0010251Y0147747D01*
X0010268Y0147872D01*
X0010282Y0147997D01*
X0010292Y0148122D01*
X0010298Y0148247D01*
X0010300Y0148373D01*
X0010298Y0148499D01*
X0010292Y0148624D01*
X0010282Y0148749D01*
X0010268Y0148874D01*
X0010251Y0148999D01*
X0010229Y0149123D01*
X0010204Y0149246D01*
X0010174Y0149368D01*
X0010141Y0149489D01*
X0010104Y0149609D01*
X0010064Y0149728D01*
X0010019Y0149845D01*
X0009971Y0149962D01*
X0009919Y0150076D01*
X0009864Y0150189D01*
X0009805Y0150300D01*
X0009743Y0150409D01*
X0009677Y0150516D01*
X0009608Y0150621D01*
X0009536Y0150724D01*
X0009461Y0150825D01*
X0009382Y0150923D01*
X0009300Y0151018D01*
X0009216Y0151111D01*
X0009128Y0151201D01*
X0009038Y0151289D01*
X0008945Y0151373D01*
X0008850Y0151455D01*
X0008752Y0151534D01*
X0008651Y0151609D01*
X0008548Y0151681D01*
X0008443Y0151750D01*
X0008336Y0151816D01*
X0008227Y0151878D01*
X0008116Y0151937D01*
X0008003Y0151992D01*
X0007889Y0152044D01*
X0007772Y0152092D01*
X0007655Y0152137D01*
X0007536Y0152177D01*
X0007416Y0152214D01*
X0007295Y0152247D01*
X0007173Y0152277D01*
X0007050Y0152302D01*
X0006926Y0152324D01*
X0006801Y0152341D01*
X0006676Y0152355D01*
X0006551Y0152365D01*
X0006426Y0152371D01*
X0006300Y0152373D01*
X0006300Y0175373D01*
X0206300Y0175373D01*
X0219800Y0118700D02*
X0241300Y0118700D01*
X0243400Y0113700D02*
X0240900Y0111200D01*
X0240900Y0106200D01*
X0243400Y0103700D01*
X0248400Y0103700D01*
X0250900Y0106200D01*
X0253400Y0103700D01*
X0258400Y0103700D01*
X0260900Y0106200D01*
X0260900Y0111200D01*
X0258400Y0113700D01*
X0253400Y0113700D01*
X0250900Y0111200D01*
X0250900Y0106200D01*
X0250900Y0111200D02*
X0248400Y0113700D01*
X0243400Y0113700D01*
X0241300Y0118700D02*
X0241302Y0118848D01*
X0241308Y0118997D01*
X0241318Y0119145D01*
X0241331Y0119293D01*
X0241349Y0119440D01*
X0241370Y0119587D01*
X0241396Y0119734D01*
X0241425Y0119879D01*
X0241458Y0120024D01*
X0241495Y0120168D01*
X0241536Y0120311D01*
X0241580Y0120452D01*
X0241628Y0120593D01*
X0241680Y0120732D01*
X0241735Y0120870D01*
X0241794Y0121006D01*
X0241857Y0121141D01*
X0241923Y0121274D01*
X0241993Y0121405D01*
X0242066Y0121534D01*
X0242143Y0121661D01*
X0242222Y0121786D01*
X0242305Y0121909D01*
X0242392Y0122030D01*
X0242481Y0122149D01*
X0242574Y0122265D01*
X0242669Y0122378D01*
X0242768Y0122490D01*
X0242870Y0122598D01*
X0242974Y0122704D01*
X0243081Y0122807D01*
X0243191Y0122907D01*
X0243303Y0123004D01*
X0243418Y0123098D01*
X0243535Y0123189D01*
X0243655Y0123277D01*
X0243777Y0123361D01*
X0243901Y0123443D01*
X0244027Y0123521D01*
X0244155Y0123596D01*
X0244286Y0123667D01*
X0244418Y0123735D01*
X0244552Y0123800D01*
X0244687Y0123861D01*
X0244824Y0123918D01*
X0244962Y0123972D01*
X0245102Y0124021D01*
X0245243Y0124068D01*
X0245386Y0124110D01*
X0245529Y0124149D01*
X0245673Y0124184D01*
X0245819Y0124215D01*
X0245964Y0124242D01*
X0246111Y0124266D01*
X0246258Y0124285D01*
X0246406Y0124301D01*
X0246554Y0124313D01*
X0246702Y0124321D01*
X0246851Y0124325D01*
X0246999Y0124325D01*
X0247148Y0124321D01*
X0247296Y0124313D01*
X0247444Y0124301D01*
X0247592Y0124285D01*
X0247739Y0124266D01*
X0247886Y0124242D01*
X0248031Y0124215D01*
X0248177Y0124184D01*
X0248321Y0124149D01*
X0248464Y0124110D01*
X0248607Y0124068D01*
X0248748Y0124021D01*
X0248888Y0123972D01*
X0249026Y0123918D01*
X0249163Y0123861D01*
X0249298Y0123800D01*
X0249432Y0123735D01*
X0249564Y0123667D01*
X0249695Y0123596D01*
X0249823Y0123521D01*
X0249949Y0123443D01*
X0250073Y0123361D01*
X0250195Y0123277D01*
X0250315Y0123189D01*
X0250432Y0123098D01*
X0250547Y0123004D01*
X0250659Y0122907D01*
X0250769Y0122807D01*
X0250876Y0122704D01*
X0250980Y0122598D01*
X0251082Y0122490D01*
X0251181Y0122378D01*
X0251276Y0122265D01*
X0251369Y0122149D01*
X0251458Y0122030D01*
X0251545Y0121909D01*
X0251628Y0121786D01*
X0251707Y0121661D01*
X0251784Y0121534D01*
X0251857Y0121405D01*
X0251927Y0121274D01*
X0251993Y0121141D01*
X0252056Y0121006D01*
X0252115Y0120870D01*
X0252170Y0120732D01*
X0252222Y0120593D01*
X0252270Y0120452D01*
X0252314Y0120311D01*
X0252355Y0120168D01*
X0252392Y0120024D01*
X0252425Y0119879D01*
X0252454Y0119734D01*
X0252480Y0119587D01*
X0252501Y0119440D01*
X0252519Y0119293D01*
X0252532Y0119145D01*
X0252542Y0118997D01*
X0252548Y0118848D01*
X0252550Y0118700D01*
X0272800Y0118700D01*
X0272800Y0323700D01*
X0219800Y0323700D01*
X0219800Y0118700D01*
X0222550Y0089950D02*
X0220050Y0087450D01*
X0220050Y0082450D01*
X0222550Y0079950D01*
X0237550Y0079950D01*
X0240050Y0082450D01*
X0240050Y0087450D01*
X0237550Y0089950D01*
X0222550Y0089950D01*
X0222550Y0079950D02*
X0220050Y0077450D01*
X0220050Y0072450D01*
X0222550Y0069950D01*
X0237550Y0069950D01*
X0240050Y0072450D01*
X0240050Y0077450D01*
X0237550Y0079950D01*
X0237550Y0069950D02*
X0240050Y0067450D01*
X0240050Y0062450D01*
X0237550Y0059950D01*
X0222550Y0059950D01*
X0220050Y0062450D01*
X0220050Y0067450D01*
X0222550Y0069950D01*
X0222550Y0059950D02*
X0220050Y0057450D01*
X0220050Y0052450D01*
X0222550Y0049950D01*
X0237550Y0049950D01*
X0240050Y0052450D01*
X0240050Y0057450D01*
X0237550Y0059950D01*
X0237550Y0049950D02*
X0240050Y0047450D01*
X0240050Y0042450D01*
X0237550Y0039950D01*
X0222550Y0039950D01*
X0220050Y0042450D01*
X0220050Y0047450D01*
X0222550Y0049950D01*
X0222550Y0039950D02*
X0220050Y0037450D01*
X0220050Y0032450D01*
X0222550Y0029950D01*
X0237550Y0029950D01*
X0240050Y0032450D01*
X0240050Y0037450D01*
X0237550Y0039950D01*
X0237550Y0029950D02*
X0240050Y0027450D01*
X0240050Y0022450D01*
X0237550Y0019950D01*
X0222550Y0019950D01*
X0220050Y0022450D01*
X0220050Y0027450D01*
X0222550Y0029950D01*
X0208800Y0032250D02*
X0208800Y0085250D01*
X0003800Y0085250D01*
X0003800Y0063750D01*
X0003948Y0063748D01*
X0004097Y0063742D01*
X0004245Y0063732D01*
X0004393Y0063719D01*
X0004540Y0063701D01*
X0004687Y0063680D01*
X0004834Y0063654D01*
X0004979Y0063625D01*
X0005124Y0063592D01*
X0005268Y0063555D01*
X0005411Y0063514D01*
X0005552Y0063470D01*
X0005693Y0063422D01*
X0005832Y0063370D01*
X0005970Y0063315D01*
X0006106Y0063256D01*
X0006241Y0063193D01*
X0006374Y0063127D01*
X0006505Y0063057D01*
X0006634Y0062984D01*
X0006761Y0062907D01*
X0006886Y0062828D01*
X0007009Y0062745D01*
X0007130Y0062658D01*
X0007249Y0062569D01*
X0007365Y0062476D01*
X0007478Y0062381D01*
X0007590Y0062282D01*
X0007698Y0062180D01*
X0007804Y0062076D01*
X0007907Y0061969D01*
X0008007Y0061859D01*
X0008104Y0061747D01*
X0008198Y0061632D01*
X0008289Y0061515D01*
X0008377Y0061395D01*
X0008461Y0061273D01*
X0008543Y0061149D01*
X0008621Y0061023D01*
X0008696Y0060895D01*
X0008767Y0060764D01*
X0008835Y0060632D01*
X0008900Y0060498D01*
X0008961Y0060363D01*
X0009018Y0060226D01*
X0009072Y0060088D01*
X0009121Y0059948D01*
X0009168Y0059807D01*
X0009210Y0059664D01*
X0009249Y0059521D01*
X0009284Y0059377D01*
X0009315Y0059231D01*
X0009342Y0059086D01*
X0009366Y0058939D01*
X0009385Y0058792D01*
X0009401Y0058644D01*
X0009413Y0058496D01*
X0009421Y0058348D01*
X0009425Y0058199D01*
X0009425Y0058051D01*
X0009421Y0057902D01*
X0009413Y0057754D01*
X0009401Y0057606D01*
X0009385Y0057458D01*
X0009366Y0057311D01*
X0009342Y0057164D01*
X0009315Y0057019D01*
X0009284Y0056873D01*
X0009249Y0056729D01*
X0009210Y0056586D01*
X0009168Y0056443D01*
X0009121Y0056302D01*
X0009072Y0056162D01*
X0009018Y0056024D01*
X0008961Y0055887D01*
X0008900Y0055752D01*
X0008835Y0055618D01*
X0008767Y0055486D01*
X0008696Y0055355D01*
X0008621Y0055227D01*
X0008543Y0055101D01*
X0008461Y0054977D01*
X0008377Y0054855D01*
X0008289Y0054735D01*
X0008198Y0054618D01*
X0008104Y0054503D01*
X0008007Y0054391D01*
X0007907Y0054281D01*
X0007804Y0054174D01*
X0007698Y0054070D01*
X0007590Y0053968D01*
X0007478Y0053869D01*
X0007365Y0053774D01*
X0007249Y0053681D01*
X0007130Y0053592D01*
X0007009Y0053505D01*
X0006886Y0053422D01*
X0006761Y0053343D01*
X0006634Y0053266D01*
X0006505Y0053193D01*
X0006374Y0053123D01*
X0006241Y0053057D01*
X0006106Y0052994D01*
X0005970Y0052935D01*
X0005832Y0052880D01*
X0005693Y0052828D01*
X0005552Y0052780D01*
X0005411Y0052736D01*
X0005268Y0052695D01*
X0005124Y0052658D01*
X0004979Y0052625D01*
X0004834Y0052596D01*
X0004687Y0052570D01*
X0004540Y0052549D01*
X0004393Y0052531D01*
X0004245Y0052518D01*
X0004097Y0052508D01*
X0003948Y0052502D01*
X0003800Y0052500D01*
X0003800Y0032250D01*
X0208800Y0032250D01*
X0203550Y0014300D02*
X0198550Y0014300D01*
X0196050Y0011800D01*
X0193550Y0014300D01*
X0188550Y0014300D01*
X0186050Y0011800D01*
X0186050Y0006800D01*
X0188550Y0004300D01*
X0193550Y0004300D01*
X0196050Y0006800D01*
X0196050Y0011800D01*
X0196050Y0006800D02*
X0198550Y0004300D01*
X0203550Y0004300D01*
X0206050Y0006800D01*
X0206050Y0011800D01*
X0203550Y0014300D01*
X0186050Y0011800D02*
X0183550Y0014300D01*
X0178550Y0014300D01*
X0176050Y0011800D01*
X0173550Y0014300D01*
X0168550Y0014300D01*
X0166050Y0011800D01*
X0163550Y0014300D01*
X0158550Y0014300D01*
X0156050Y0011800D01*
X0156050Y0006800D01*
X0158550Y0004300D01*
X0163550Y0004300D01*
X0166050Y0006800D01*
X0166050Y0011800D01*
X0166050Y0006800D02*
X0168550Y0004300D01*
X0173550Y0004300D01*
X0176050Y0006800D01*
X0176050Y0011800D01*
X0176050Y0006800D02*
X0178550Y0004300D01*
X0183550Y0004300D01*
X0186050Y0006800D01*
X0156050Y0006800D02*
X0153550Y0004300D01*
X0148550Y0004300D01*
X0146050Y0006800D01*
X0143550Y0004300D01*
X0138550Y0004300D01*
X0136050Y0006800D01*
X0133550Y0004300D01*
X0128550Y0004300D01*
X0126050Y0006800D01*
X0126050Y0011800D01*
X0128550Y0014300D01*
X0133550Y0014300D01*
X0136050Y0011800D01*
X0138550Y0014300D01*
X0143550Y0014300D01*
X0146050Y0011800D01*
X0148550Y0014300D01*
X0153550Y0014300D01*
X0156050Y0011800D01*
X0146050Y0011800D02*
X0146050Y0006800D01*
X0136050Y0006800D02*
X0136050Y0011800D01*
X0126050Y0011800D02*
X0123550Y0014300D01*
X0118550Y0014300D01*
X0116050Y0011800D01*
X0113550Y0014300D01*
X0108550Y0014300D01*
X0106050Y0011800D01*
X0103550Y0014300D01*
X0098550Y0014300D01*
X0096050Y0011800D01*
X0093550Y0014300D01*
X0088550Y0014300D01*
X0086050Y0011800D01*
X0086050Y0006800D01*
X0088550Y0004300D01*
X0093550Y0004300D01*
X0096050Y0006800D01*
X0096050Y0011800D01*
X0096050Y0006800D02*
X0098550Y0004300D01*
X0103550Y0004300D01*
X0106050Y0006800D01*
X0106050Y0011800D01*
X0106050Y0006800D02*
X0108550Y0004300D01*
X0113550Y0004300D01*
X0116050Y0006800D01*
X0116050Y0011800D01*
X0116050Y0006800D02*
X0118550Y0004300D01*
X0123550Y0004300D01*
X0126050Y0006800D01*
X0260900Y0106200D02*
X0263400Y0103700D01*
X0268400Y0103700D01*
X0270900Y0106200D01*
X0273400Y0103700D01*
X0278400Y0103700D01*
X0280900Y0106200D01*
X0283400Y0103700D01*
X0288400Y0103700D01*
X0290900Y0106200D01*
X0290900Y0111200D01*
X0288400Y0113700D01*
X0283400Y0113700D01*
X0280900Y0111200D01*
X0280900Y0106200D01*
X0280900Y0111200D02*
X0278400Y0113700D01*
X0273400Y0113700D01*
X0270900Y0111200D01*
X0270900Y0106200D01*
X0270900Y0111200D02*
X0268400Y0113700D01*
X0263400Y0113700D01*
X0260900Y0111200D01*
X0294800Y0113700D02*
X0317800Y0113700D01*
X0317800Y0183700D01*
X0310300Y0183700D01*
X0309800Y0186050D02*
X0322800Y0186050D01*
X0322887Y0186052D01*
X0322974Y0186058D01*
X0323061Y0186067D01*
X0323147Y0186080D01*
X0323233Y0186097D01*
X0323318Y0186118D01*
X0323401Y0186143D01*
X0323484Y0186171D01*
X0323565Y0186202D01*
X0323645Y0186237D01*
X0323723Y0186276D01*
X0323800Y0186318D01*
X0323875Y0186363D01*
X0323947Y0186412D01*
X0324018Y0186463D01*
X0324086Y0186518D01*
X0324151Y0186575D01*
X0324214Y0186636D01*
X0324275Y0186699D01*
X0324332Y0186764D01*
X0324387Y0186832D01*
X0324438Y0186903D01*
X0324487Y0186975D01*
X0324532Y0187050D01*
X0324574Y0187127D01*
X0324613Y0187205D01*
X0324648Y0187285D01*
X0324679Y0187366D01*
X0324707Y0187449D01*
X0324732Y0187532D01*
X0324753Y0187617D01*
X0324770Y0187703D01*
X0324783Y0187789D01*
X0324792Y0187876D01*
X0324798Y0187963D01*
X0324800Y0188050D01*
X0324800Y0193050D01*
X0324798Y0193137D01*
X0324792Y0193224D01*
X0324783Y0193311D01*
X0324770Y0193397D01*
X0324753Y0193483D01*
X0324732Y0193568D01*
X0324707Y0193651D01*
X0324679Y0193734D01*
X0324648Y0193815D01*
X0324613Y0193895D01*
X0324574Y0193973D01*
X0324532Y0194050D01*
X0324487Y0194125D01*
X0324438Y0194197D01*
X0324387Y0194268D01*
X0324332Y0194336D01*
X0324275Y0194401D01*
X0324214Y0194464D01*
X0324151Y0194525D01*
X0324086Y0194582D01*
X0324018Y0194637D01*
X0323947Y0194688D01*
X0323875Y0194737D01*
X0323800Y0194782D01*
X0323723Y0194824D01*
X0323645Y0194863D01*
X0323565Y0194898D01*
X0323484Y0194929D01*
X0323401Y0194957D01*
X0323318Y0194982D01*
X0323233Y0195003D01*
X0323147Y0195020D01*
X0323061Y0195033D01*
X0322974Y0195042D01*
X0322887Y0195048D01*
X0322800Y0195050D01*
X0309800Y0195050D01*
X0309713Y0195048D01*
X0309626Y0195042D01*
X0309539Y0195033D01*
X0309453Y0195020D01*
X0309367Y0195003D01*
X0309282Y0194982D01*
X0309199Y0194957D01*
X0309116Y0194929D01*
X0309035Y0194898D01*
X0308955Y0194863D01*
X0308877Y0194824D01*
X0308800Y0194782D01*
X0308725Y0194737D01*
X0308653Y0194688D01*
X0308582Y0194637D01*
X0308514Y0194582D01*
X0308449Y0194525D01*
X0308386Y0194464D01*
X0308325Y0194401D01*
X0308268Y0194336D01*
X0308213Y0194268D01*
X0308162Y0194197D01*
X0308113Y0194125D01*
X0308068Y0194050D01*
X0308026Y0193973D01*
X0307987Y0193895D01*
X0307952Y0193815D01*
X0307921Y0193734D01*
X0307893Y0193651D01*
X0307868Y0193568D01*
X0307847Y0193483D01*
X0307830Y0193397D01*
X0307817Y0193311D01*
X0307808Y0193224D01*
X0307802Y0193137D01*
X0307800Y0193050D01*
X0307800Y0188050D01*
X0307802Y0187963D01*
X0307808Y0187876D01*
X0307817Y0187789D01*
X0307830Y0187703D01*
X0307847Y0187617D01*
X0307868Y0187532D01*
X0307893Y0187449D01*
X0307921Y0187366D01*
X0307952Y0187285D01*
X0307987Y0187205D01*
X0308026Y0187127D01*
X0308068Y0187050D01*
X0308113Y0186975D01*
X0308162Y0186903D01*
X0308213Y0186832D01*
X0308268Y0186764D01*
X0308325Y0186699D01*
X0308386Y0186636D01*
X0308449Y0186575D01*
X0308514Y0186518D01*
X0308582Y0186463D01*
X0308653Y0186412D01*
X0308725Y0186363D01*
X0308800Y0186318D01*
X0308877Y0186276D01*
X0308955Y0186237D01*
X0309035Y0186202D01*
X0309116Y0186171D01*
X0309199Y0186143D01*
X0309282Y0186118D01*
X0309367Y0186097D01*
X0309453Y0186080D01*
X0309539Y0186067D01*
X0309626Y0186058D01*
X0309713Y0186052D01*
X0309800Y0186050D01*
X0310300Y0183700D02*
X0310298Y0183574D01*
X0310292Y0183449D01*
X0310282Y0183324D01*
X0310268Y0183199D01*
X0310251Y0183074D01*
X0310229Y0182950D01*
X0310204Y0182827D01*
X0310174Y0182705D01*
X0310141Y0182584D01*
X0310104Y0182464D01*
X0310064Y0182345D01*
X0310019Y0182228D01*
X0309971Y0182111D01*
X0309919Y0181997D01*
X0309864Y0181884D01*
X0309805Y0181773D01*
X0309743Y0181664D01*
X0309677Y0181557D01*
X0309608Y0181452D01*
X0309536Y0181349D01*
X0309461Y0181248D01*
X0309382Y0181150D01*
X0309300Y0181055D01*
X0309216Y0180962D01*
X0309128Y0180872D01*
X0309038Y0180784D01*
X0308945Y0180700D01*
X0308850Y0180618D01*
X0308752Y0180539D01*
X0308651Y0180464D01*
X0308548Y0180392D01*
X0308443Y0180323D01*
X0308336Y0180257D01*
X0308227Y0180195D01*
X0308116Y0180136D01*
X0308003Y0180081D01*
X0307889Y0180029D01*
X0307772Y0179981D01*
X0307655Y0179936D01*
X0307536Y0179896D01*
X0307416Y0179859D01*
X0307295Y0179826D01*
X0307173Y0179796D01*
X0307050Y0179771D01*
X0306926Y0179749D01*
X0306801Y0179732D01*
X0306676Y0179718D01*
X0306551Y0179708D01*
X0306426Y0179702D01*
X0306300Y0179700D01*
X0306174Y0179702D01*
X0306049Y0179708D01*
X0305924Y0179718D01*
X0305799Y0179732D01*
X0305674Y0179749D01*
X0305550Y0179771D01*
X0305427Y0179796D01*
X0305305Y0179826D01*
X0305184Y0179859D01*
X0305064Y0179896D01*
X0304945Y0179936D01*
X0304828Y0179981D01*
X0304711Y0180029D01*
X0304597Y0180081D01*
X0304484Y0180136D01*
X0304373Y0180195D01*
X0304264Y0180257D01*
X0304157Y0180323D01*
X0304052Y0180392D01*
X0303949Y0180464D01*
X0303848Y0180539D01*
X0303750Y0180618D01*
X0303655Y0180700D01*
X0303562Y0180784D01*
X0303472Y0180872D01*
X0303384Y0180962D01*
X0303300Y0181055D01*
X0303218Y0181150D01*
X0303139Y0181248D01*
X0303064Y0181349D01*
X0302992Y0181452D01*
X0302923Y0181557D01*
X0302857Y0181664D01*
X0302795Y0181773D01*
X0302736Y0181884D01*
X0302681Y0181997D01*
X0302629Y0182111D01*
X0302581Y0182228D01*
X0302536Y0182345D01*
X0302496Y0182464D01*
X0302459Y0182584D01*
X0302426Y0182705D01*
X0302396Y0182827D01*
X0302371Y0182950D01*
X0302349Y0183074D01*
X0302332Y0183199D01*
X0302318Y0183324D01*
X0302308Y0183449D01*
X0302302Y0183574D01*
X0302300Y0183700D01*
X0294800Y0183700D01*
X0294800Y0113700D01*
X0301300Y0111200D02*
X0301300Y0106200D01*
X0303800Y0103700D01*
X0308800Y0103700D01*
X0311300Y0106200D01*
X0311300Y0111200D01*
X0308800Y0113700D01*
X0303800Y0113700D01*
X0301300Y0111200D01*
X0311300Y0111200D02*
X0313800Y0113700D01*
X0318800Y0113700D01*
X0321300Y0111200D01*
X0323800Y0113700D01*
X0328800Y0113700D01*
X0331300Y0111200D01*
X0331300Y0106200D01*
X0328800Y0103700D01*
X0323800Y0103700D01*
X0321300Y0106200D01*
X0318800Y0103700D01*
X0313800Y0103700D01*
X0311300Y0106200D01*
X0321300Y0106200D02*
X0321300Y0111200D01*
X0338550Y0113700D02*
X0361550Y0113700D01*
X0361550Y0183700D01*
X0354050Y0183700D01*
X0353550Y0185450D02*
X0366550Y0185450D01*
X0366637Y0185452D01*
X0366724Y0185458D01*
X0366811Y0185467D01*
X0366897Y0185480D01*
X0366983Y0185497D01*
X0367068Y0185518D01*
X0367151Y0185543D01*
X0367234Y0185571D01*
X0367315Y0185602D01*
X0367395Y0185637D01*
X0367473Y0185676D01*
X0367550Y0185718D01*
X0367625Y0185763D01*
X0367697Y0185812D01*
X0367768Y0185863D01*
X0367836Y0185918D01*
X0367901Y0185975D01*
X0367964Y0186036D01*
X0368025Y0186099D01*
X0368082Y0186164D01*
X0368137Y0186232D01*
X0368188Y0186303D01*
X0368237Y0186375D01*
X0368282Y0186450D01*
X0368324Y0186527D01*
X0368363Y0186605D01*
X0368398Y0186685D01*
X0368429Y0186766D01*
X0368457Y0186849D01*
X0368482Y0186932D01*
X0368503Y0187017D01*
X0368520Y0187103D01*
X0368533Y0187189D01*
X0368542Y0187276D01*
X0368548Y0187363D01*
X0368550Y0187450D01*
X0368550Y0192450D01*
X0368548Y0192537D01*
X0368542Y0192624D01*
X0368533Y0192711D01*
X0368520Y0192797D01*
X0368503Y0192883D01*
X0368482Y0192968D01*
X0368457Y0193051D01*
X0368429Y0193134D01*
X0368398Y0193215D01*
X0368363Y0193295D01*
X0368324Y0193373D01*
X0368282Y0193450D01*
X0368237Y0193525D01*
X0368188Y0193597D01*
X0368137Y0193668D01*
X0368082Y0193736D01*
X0368025Y0193801D01*
X0367964Y0193864D01*
X0367901Y0193925D01*
X0367836Y0193982D01*
X0367768Y0194037D01*
X0367697Y0194088D01*
X0367625Y0194137D01*
X0367550Y0194182D01*
X0367473Y0194224D01*
X0367395Y0194263D01*
X0367315Y0194298D01*
X0367234Y0194329D01*
X0367151Y0194357D01*
X0367068Y0194382D01*
X0366983Y0194403D01*
X0366897Y0194420D01*
X0366811Y0194433D01*
X0366724Y0194442D01*
X0366637Y0194448D01*
X0366550Y0194450D01*
X0353550Y0194450D01*
X0353463Y0194448D01*
X0353376Y0194442D01*
X0353289Y0194433D01*
X0353203Y0194420D01*
X0353117Y0194403D01*
X0353032Y0194382D01*
X0352949Y0194357D01*
X0352866Y0194329D01*
X0352785Y0194298D01*
X0352705Y0194263D01*
X0352627Y0194224D01*
X0352550Y0194182D01*
X0352475Y0194137D01*
X0352403Y0194088D01*
X0352332Y0194037D01*
X0352264Y0193982D01*
X0352199Y0193925D01*
X0352136Y0193864D01*
X0352075Y0193801D01*
X0352018Y0193736D01*
X0351963Y0193668D01*
X0351912Y0193597D01*
X0351863Y0193525D01*
X0351818Y0193450D01*
X0351776Y0193373D01*
X0351737Y0193295D01*
X0351702Y0193215D01*
X0351671Y0193134D01*
X0351643Y0193051D01*
X0351618Y0192968D01*
X0351597Y0192883D01*
X0351580Y0192797D01*
X0351567Y0192711D01*
X0351558Y0192624D01*
X0351552Y0192537D01*
X0351550Y0192450D01*
X0351550Y0187450D01*
X0351552Y0187363D01*
X0351558Y0187276D01*
X0351567Y0187189D01*
X0351580Y0187103D01*
X0351597Y0187017D01*
X0351618Y0186932D01*
X0351643Y0186849D01*
X0351671Y0186766D01*
X0351702Y0186685D01*
X0351737Y0186605D01*
X0351776Y0186527D01*
X0351818Y0186450D01*
X0351863Y0186375D01*
X0351912Y0186303D01*
X0351963Y0186232D01*
X0352018Y0186164D01*
X0352075Y0186099D01*
X0352136Y0186036D01*
X0352199Y0185975D01*
X0352264Y0185918D01*
X0352332Y0185863D01*
X0352403Y0185812D01*
X0352475Y0185763D01*
X0352550Y0185718D01*
X0352627Y0185676D01*
X0352705Y0185637D01*
X0352785Y0185602D01*
X0352866Y0185571D01*
X0352949Y0185543D01*
X0353032Y0185518D01*
X0353117Y0185497D01*
X0353203Y0185480D01*
X0353289Y0185467D01*
X0353376Y0185458D01*
X0353463Y0185452D01*
X0353550Y0185450D01*
X0354050Y0183700D02*
X0354048Y0183574D01*
X0354042Y0183449D01*
X0354032Y0183324D01*
X0354018Y0183199D01*
X0354001Y0183074D01*
X0353979Y0182950D01*
X0353954Y0182827D01*
X0353924Y0182705D01*
X0353891Y0182584D01*
X0353854Y0182464D01*
X0353814Y0182345D01*
X0353769Y0182228D01*
X0353721Y0182111D01*
X0353669Y0181997D01*
X0353614Y0181884D01*
X0353555Y0181773D01*
X0353493Y0181664D01*
X0353427Y0181557D01*
X0353358Y0181452D01*
X0353286Y0181349D01*
X0353211Y0181248D01*
X0353132Y0181150D01*
X0353050Y0181055D01*
X0352966Y0180962D01*
X0352878Y0180872D01*
X0352788Y0180784D01*
X0352695Y0180700D01*
X0352600Y0180618D01*
X0352502Y0180539D01*
X0352401Y0180464D01*
X0352298Y0180392D01*
X0352193Y0180323D01*
X0352086Y0180257D01*
X0351977Y0180195D01*
X0351866Y0180136D01*
X0351753Y0180081D01*
X0351639Y0180029D01*
X0351522Y0179981D01*
X0351405Y0179936D01*
X0351286Y0179896D01*
X0351166Y0179859D01*
X0351045Y0179826D01*
X0350923Y0179796D01*
X0350800Y0179771D01*
X0350676Y0179749D01*
X0350551Y0179732D01*
X0350426Y0179718D01*
X0350301Y0179708D01*
X0350176Y0179702D01*
X0350050Y0179700D01*
X0349924Y0179702D01*
X0349799Y0179708D01*
X0349674Y0179718D01*
X0349549Y0179732D01*
X0349424Y0179749D01*
X0349300Y0179771D01*
X0349177Y0179796D01*
X0349055Y0179826D01*
X0348934Y0179859D01*
X0348814Y0179896D01*
X0348695Y0179936D01*
X0348578Y0179981D01*
X0348461Y0180029D01*
X0348347Y0180081D01*
X0348234Y0180136D01*
X0348123Y0180195D01*
X0348014Y0180257D01*
X0347907Y0180323D01*
X0347802Y0180392D01*
X0347699Y0180464D01*
X0347598Y0180539D01*
X0347500Y0180618D01*
X0347405Y0180700D01*
X0347312Y0180784D01*
X0347222Y0180872D01*
X0347134Y0180962D01*
X0347050Y0181055D01*
X0346968Y0181150D01*
X0346889Y0181248D01*
X0346814Y0181349D01*
X0346742Y0181452D01*
X0346673Y0181557D01*
X0346607Y0181664D01*
X0346545Y0181773D01*
X0346486Y0181884D01*
X0346431Y0181997D01*
X0346379Y0182111D01*
X0346331Y0182228D01*
X0346286Y0182345D01*
X0346246Y0182464D01*
X0346209Y0182584D01*
X0346176Y0182705D01*
X0346146Y0182827D01*
X0346121Y0182950D01*
X0346099Y0183074D01*
X0346082Y0183199D01*
X0346068Y0183324D01*
X0346058Y0183449D01*
X0346052Y0183574D01*
X0346050Y0183700D01*
X0338550Y0183700D01*
X0338550Y0113700D01*
X0341500Y0111200D02*
X0344000Y0113700D01*
X0349000Y0113700D01*
X0351500Y0111200D01*
X0354000Y0113700D01*
X0359000Y0113700D01*
X0361500Y0111200D01*
X0361500Y0106200D01*
X0359000Y0103700D01*
X0354000Y0103700D01*
X0351500Y0106200D01*
X0349000Y0103700D01*
X0344000Y0103700D01*
X0341500Y0106200D01*
X0341500Y0111200D01*
X0351500Y0111200D02*
X0351500Y0106200D01*
X0382300Y0113700D02*
X0405300Y0113700D01*
X0405300Y0193700D01*
X0397800Y0193700D01*
X0397300Y0195450D02*
X0410300Y0195450D01*
X0410387Y0195452D01*
X0410474Y0195458D01*
X0410561Y0195467D01*
X0410647Y0195480D01*
X0410733Y0195497D01*
X0410818Y0195518D01*
X0410901Y0195543D01*
X0410984Y0195571D01*
X0411065Y0195602D01*
X0411145Y0195637D01*
X0411223Y0195676D01*
X0411300Y0195718D01*
X0411375Y0195763D01*
X0411447Y0195812D01*
X0411518Y0195863D01*
X0411586Y0195918D01*
X0411651Y0195975D01*
X0411714Y0196036D01*
X0411775Y0196099D01*
X0411832Y0196164D01*
X0411887Y0196232D01*
X0411938Y0196303D01*
X0411987Y0196375D01*
X0412032Y0196450D01*
X0412074Y0196527D01*
X0412113Y0196605D01*
X0412148Y0196685D01*
X0412179Y0196766D01*
X0412207Y0196849D01*
X0412232Y0196932D01*
X0412253Y0197017D01*
X0412270Y0197103D01*
X0412283Y0197189D01*
X0412292Y0197276D01*
X0412298Y0197363D01*
X0412300Y0197450D01*
X0412300Y0202450D01*
X0412298Y0202537D01*
X0412292Y0202624D01*
X0412283Y0202711D01*
X0412270Y0202797D01*
X0412253Y0202883D01*
X0412232Y0202968D01*
X0412207Y0203051D01*
X0412179Y0203134D01*
X0412148Y0203215D01*
X0412113Y0203295D01*
X0412074Y0203373D01*
X0412032Y0203450D01*
X0411987Y0203525D01*
X0411938Y0203597D01*
X0411887Y0203668D01*
X0411832Y0203736D01*
X0411775Y0203801D01*
X0411714Y0203864D01*
X0411651Y0203925D01*
X0411586Y0203982D01*
X0411518Y0204037D01*
X0411447Y0204088D01*
X0411375Y0204137D01*
X0411300Y0204182D01*
X0411223Y0204224D01*
X0411145Y0204263D01*
X0411065Y0204298D01*
X0410984Y0204329D01*
X0410901Y0204357D01*
X0410818Y0204382D01*
X0410733Y0204403D01*
X0410647Y0204420D01*
X0410561Y0204433D01*
X0410474Y0204442D01*
X0410387Y0204448D01*
X0410300Y0204450D01*
X0397300Y0204450D01*
X0397213Y0204448D01*
X0397126Y0204442D01*
X0397039Y0204433D01*
X0396953Y0204420D01*
X0396867Y0204403D01*
X0396782Y0204382D01*
X0396699Y0204357D01*
X0396616Y0204329D01*
X0396535Y0204298D01*
X0396455Y0204263D01*
X0396377Y0204224D01*
X0396300Y0204182D01*
X0396225Y0204137D01*
X0396153Y0204088D01*
X0396082Y0204037D01*
X0396014Y0203982D01*
X0395949Y0203925D01*
X0395886Y0203864D01*
X0395825Y0203801D01*
X0395768Y0203736D01*
X0395713Y0203668D01*
X0395662Y0203597D01*
X0395613Y0203525D01*
X0395568Y0203450D01*
X0395526Y0203373D01*
X0395487Y0203295D01*
X0395452Y0203215D01*
X0395421Y0203134D01*
X0395393Y0203051D01*
X0395368Y0202968D01*
X0395347Y0202883D01*
X0395330Y0202797D01*
X0395317Y0202711D01*
X0395308Y0202624D01*
X0395302Y0202537D01*
X0395300Y0202450D01*
X0395300Y0197450D01*
X0395302Y0197363D01*
X0395308Y0197276D01*
X0395317Y0197189D01*
X0395330Y0197103D01*
X0395347Y0197017D01*
X0395368Y0196932D01*
X0395393Y0196849D01*
X0395421Y0196766D01*
X0395452Y0196685D01*
X0395487Y0196605D01*
X0395526Y0196527D01*
X0395568Y0196450D01*
X0395613Y0196375D01*
X0395662Y0196303D01*
X0395713Y0196232D01*
X0395768Y0196164D01*
X0395825Y0196099D01*
X0395886Y0196036D01*
X0395949Y0195975D01*
X0396014Y0195918D01*
X0396082Y0195863D01*
X0396153Y0195812D01*
X0396225Y0195763D01*
X0396300Y0195718D01*
X0396377Y0195676D01*
X0396455Y0195637D01*
X0396535Y0195602D01*
X0396616Y0195571D01*
X0396699Y0195543D01*
X0396782Y0195518D01*
X0396867Y0195497D01*
X0396953Y0195480D01*
X0397039Y0195467D01*
X0397126Y0195458D01*
X0397213Y0195452D01*
X0397300Y0195450D01*
X0397800Y0193700D02*
X0397798Y0193574D01*
X0397792Y0193449D01*
X0397782Y0193324D01*
X0397768Y0193199D01*
X0397751Y0193074D01*
X0397729Y0192950D01*
X0397704Y0192827D01*
X0397674Y0192705D01*
X0397641Y0192584D01*
X0397604Y0192464D01*
X0397564Y0192345D01*
X0397519Y0192228D01*
X0397471Y0192111D01*
X0397419Y0191997D01*
X0397364Y0191884D01*
X0397305Y0191773D01*
X0397243Y0191664D01*
X0397177Y0191557D01*
X0397108Y0191452D01*
X0397036Y0191349D01*
X0396961Y0191248D01*
X0396882Y0191150D01*
X0396800Y0191055D01*
X0396716Y0190962D01*
X0396628Y0190872D01*
X0396538Y0190784D01*
X0396445Y0190700D01*
X0396350Y0190618D01*
X0396252Y0190539D01*
X0396151Y0190464D01*
X0396048Y0190392D01*
X0395943Y0190323D01*
X0395836Y0190257D01*
X0395727Y0190195D01*
X0395616Y0190136D01*
X0395503Y0190081D01*
X0395389Y0190029D01*
X0395272Y0189981D01*
X0395155Y0189936D01*
X0395036Y0189896D01*
X0394916Y0189859D01*
X0394795Y0189826D01*
X0394673Y0189796D01*
X0394550Y0189771D01*
X0394426Y0189749D01*
X0394301Y0189732D01*
X0394176Y0189718D01*
X0394051Y0189708D01*
X0393926Y0189702D01*
X0393800Y0189700D01*
X0393674Y0189702D01*
X0393549Y0189708D01*
X0393424Y0189718D01*
X0393299Y0189732D01*
X0393174Y0189749D01*
X0393050Y0189771D01*
X0392927Y0189796D01*
X0392805Y0189826D01*
X0392684Y0189859D01*
X0392564Y0189896D01*
X0392445Y0189936D01*
X0392328Y0189981D01*
X0392211Y0190029D01*
X0392097Y0190081D01*
X0391984Y0190136D01*
X0391873Y0190195D01*
X0391764Y0190257D01*
X0391657Y0190323D01*
X0391552Y0190392D01*
X0391449Y0190464D01*
X0391348Y0190539D01*
X0391250Y0190618D01*
X0391155Y0190700D01*
X0391062Y0190784D01*
X0390972Y0190872D01*
X0390884Y0190962D01*
X0390800Y0191055D01*
X0390718Y0191150D01*
X0390639Y0191248D01*
X0390564Y0191349D01*
X0390492Y0191452D01*
X0390423Y0191557D01*
X0390357Y0191664D01*
X0390295Y0191773D01*
X0390236Y0191884D01*
X0390181Y0191997D01*
X0390129Y0192111D01*
X0390081Y0192228D01*
X0390036Y0192345D01*
X0389996Y0192464D01*
X0389959Y0192584D01*
X0389926Y0192705D01*
X0389896Y0192827D01*
X0389871Y0192950D01*
X0389849Y0193074D01*
X0389832Y0193199D01*
X0389818Y0193324D01*
X0389808Y0193449D01*
X0389802Y0193574D01*
X0389800Y0193700D01*
X0382300Y0193700D01*
X0382300Y0113700D01*
X0384650Y0111200D02*
X0384650Y0106200D01*
X0384652Y0106113D01*
X0384658Y0106026D01*
X0384667Y0105939D01*
X0384680Y0105853D01*
X0384697Y0105767D01*
X0384718Y0105682D01*
X0384743Y0105599D01*
X0384771Y0105516D01*
X0384802Y0105435D01*
X0384837Y0105355D01*
X0384876Y0105277D01*
X0384918Y0105200D01*
X0384963Y0105125D01*
X0385012Y0105053D01*
X0385063Y0104982D01*
X0385118Y0104914D01*
X0385175Y0104849D01*
X0385236Y0104786D01*
X0385299Y0104725D01*
X0385364Y0104668D01*
X0385432Y0104613D01*
X0385503Y0104562D01*
X0385575Y0104513D01*
X0385650Y0104468D01*
X0385727Y0104426D01*
X0385805Y0104387D01*
X0385885Y0104352D01*
X0385966Y0104321D01*
X0386049Y0104293D01*
X0386132Y0104268D01*
X0386217Y0104247D01*
X0386303Y0104230D01*
X0386389Y0104217D01*
X0386476Y0104208D01*
X0386563Y0104202D01*
X0386650Y0104200D01*
X0399650Y0104200D01*
X0399737Y0104202D01*
X0399824Y0104208D01*
X0399911Y0104217D01*
X0399997Y0104230D01*
X0400083Y0104247D01*
X0400168Y0104268D01*
X0400251Y0104293D01*
X0400334Y0104321D01*
X0400415Y0104352D01*
X0400495Y0104387D01*
X0400573Y0104426D01*
X0400650Y0104468D01*
X0400725Y0104513D01*
X0400797Y0104562D01*
X0400868Y0104613D01*
X0400936Y0104668D01*
X0401001Y0104725D01*
X0401064Y0104786D01*
X0401125Y0104849D01*
X0401182Y0104914D01*
X0401237Y0104982D01*
X0401288Y0105053D01*
X0401337Y0105125D01*
X0401382Y0105200D01*
X0401424Y0105277D01*
X0401463Y0105355D01*
X0401498Y0105435D01*
X0401529Y0105516D01*
X0401557Y0105599D01*
X0401582Y0105682D01*
X0401603Y0105767D01*
X0401620Y0105853D01*
X0401633Y0105939D01*
X0401642Y0106026D01*
X0401648Y0106113D01*
X0401650Y0106200D01*
X0401650Y0111200D01*
X0401648Y0111287D01*
X0401642Y0111374D01*
X0401633Y0111461D01*
X0401620Y0111547D01*
X0401603Y0111633D01*
X0401582Y0111718D01*
X0401557Y0111801D01*
X0401529Y0111884D01*
X0401498Y0111965D01*
X0401463Y0112045D01*
X0401424Y0112123D01*
X0401382Y0112200D01*
X0401337Y0112275D01*
X0401288Y0112347D01*
X0401237Y0112418D01*
X0401182Y0112486D01*
X0401125Y0112551D01*
X0401064Y0112614D01*
X0401001Y0112675D01*
X0400936Y0112732D01*
X0400868Y0112787D01*
X0400797Y0112838D01*
X0400725Y0112887D01*
X0400650Y0112932D01*
X0400573Y0112974D01*
X0400495Y0113013D01*
X0400415Y0113048D01*
X0400334Y0113079D01*
X0400251Y0113107D01*
X0400168Y0113132D01*
X0400083Y0113153D01*
X0399997Y0113170D01*
X0399911Y0113183D01*
X0399824Y0113192D01*
X0399737Y0113198D01*
X0399650Y0113200D01*
X0386650Y0113200D01*
X0386563Y0113198D01*
X0386476Y0113192D01*
X0386389Y0113183D01*
X0386303Y0113170D01*
X0386217Y0113153D01*
X0386132Y0113132D01*
X0386049Y0113107D01*
X0385966Y0113079D01*
X0385885Y0113048D01*
X0385805Y0113013D01*
X0385727Y0112974D01*
X0385650Y0112932D01*
X0385575Y0112887D01*
X0385503Y0112838D01*
X0385432Y0112787D01*
X0385364Y0112732D01*
X0385299Y0112675D01*
X0385236Y0112614D01*
X0385175Y0112551D01*
X0385118Y0112486D01*
X0385063Y0112418D01*
X0385012Y0112347D01*
X0384963Y0112275D01*
X0384918Y0112200D01*
X0384876Y0112123D01*
X0384837Y0112045D01*
X0384802Y0111965D01*
X0384771Y0111884D01*
X0384743Y0111801D01*
X0384718Y0111718D01*
X0384697Y0111633D01*
X0384680Y0111547D01*
X0384667Y0111461D01*
X0384658Y0111374D01*
X0384652Y0111287D01*
X0384650Y0111200D01*
X0361550Y0197450D02*
X0338550Y0197450D01*
X0338550Y0267450D01*
X0346050Y0267450D01*
X0346052Y0267324D01*
X0346058Y0267199D01*
X0346068Y0267074D01*
X0346082Y0266949D01*
X0346099Y0266824D01*
X0346121Y0266700D01*
X0346146Y0266577D01*
X0346176Y0266455D01*
X0346209Y0266334D01*
X0346246Y0266214D01*
X0346286Y0266095D01*
X0346331Y0265978D01*
X0346379Y0265861D01*
X0346431Y0265747D01*
X0346486Y0265634D01*
X0346545Y0265523D01*
X0346607Y0265414D01*
X0346673Y0265307D01*
X0346742Y0265202D01*
X0346814Y0265099D01*
X0346889Y0264998D01*
X0346968Y0264900D01*
X0347050Y0264805D01*
X0347134Y0264712D01*
X0347222Y0264622D01*
X0347312Y0264534D01*
X0347405Y0264450D01*
X0347500Y0264368D01*
X0347598Y0264289D01*
X0347699Y0264214D01*
X0347802Y0264142D01*
X0347907Y0264073D01*
X0348014Y0264007D01*
X0348123Y0263945D01*
X0348234Y0263886D01*
X0348347Y0263831D01*
X0348461Y0263779D01*
X0348578Y0263731D01*
X0348695Y0263686D01*
X0348814Y0263646D01*
X0348934Y0263609D01*
X0349055Y0263576D01*
X0349177Y0263546D01*
X0349300Y0263521D01*
X0349424Y0263499D01*
X0349549Y0263482D01*
X0349674Y0263468D01*
X0349799Y0263458D01*
X0349924Y0263452D01*
X0350050Y0263450D01*
X0350176Y0263452D01*
X0350301Y0263458D01*
X0350426Y0263468D01*
X0350551Y0263482D01*
X0350676Y0263499D01*
X0350800Y0263521D01*
X0350923Y0263546D01*
X0351045Y0263576D01*
X0351166Y0263609D01*
X0351286Y0263646D01*
X0351405Y0263686D01*
X0351522Y0263731D01*
X0351639Y0263779D01*
X0351753Y0263831D01*
X0351866Y0263886D01*
X0351977Y0263945D01*
X0352086Y0264007D01*
X0352193Y0264073D01*
X0352298Y0264142D01*
X0352401Y0264214D01*
X0352502Y0264289D01*
X0352600Y0264368D01*
X0352695Y0264450D01*
X0352788Y0264534D01*
X0352878Y0264622D01*
X0352966Y0264712D01*
X0353050Y0264805D01*
X0353132Y0264900D01*
X0353211Y0264998D01*
X0353286Y0265099D01*
X0353358Y0265202D01*
X0353427Y0265307D01*
X0353493Y0265414D01*
X0353555Y0265523D01*
X0353614Y0265634D01*
X0353669Y0265747D01*
X0353721Y0265861D01*
X0353769Y0265978D01*
X0353814Y0266095D01*
X0353854Y0266214D01*
X0353891Y0266334D01*
X0353924Y0266455D01*
X0353954Y0266577D01*
X0353979Y0266700D01*
X0354001Y0266824D01*
X0354018Y0266949D01*
X0354032Y0267074D01*
X0354042Y0267199D01*
X0354048Y0267324D01*
X0354050Y0267450D01*
X0361550Y0267450D01*
X0361550Y0197450D01*
X0382300Y0207450D02*
X0405300Y0207450D01*
X0405300Y0277450D01*
X0397800Y0277450D01*
X0397300Y0279200D02*
X0410300Y0279200D01*
X0410387Y0279202D01*
X0410474Y0279208D01*
X0410561Y0279217D01*
X0410647Y0279230D01*
X0410733Y0279247D01*
X0410818Y0279268D01*
X0410901Y0279293D01*
X0410984Y0279321D01*
X0411065Y0279352D01*
X0411145Y0279387D01*
X0411223Y0279426D01*
X0411300Y0279468D01*
X0411375Y0279513D01*
X0411447Y0279562D01*
X0411518Y0279613D01*
X0411586Y0279668D01*
X0411651Y0279725D01*
X0411714Y0279786D01*
X0411775Y0279849D01*
X0411832Y0279914D01*
X0411887Y0279982D01*
X0411938Y0280053D01*
X0411987Y0280125D01*
X0412032Y0280200D01*
X0412074Y0280277D01*
X0412113Y0280355D01*
X0412148Y0280435D01*
X0412179Y0280516D01*
X0412207Y0280599D01*
X0412232Y0280682D01*
X0412253Y0280767D01*
X0412270Y0280853D01*
X0412283Y0280939D01*
X0412292Y0281026D01*
X0412298Y0281113D01*
X0412300Y0281200D01*
X0412300Y0286200D01*
X0412298Y0286287D01*
X0412292Y0286374D01*
X0412283Y0286461D01*
X0412270Y0286547D01*
X0412253Y0286633D01*
X0412232Y0286718D01*
X0412207Y0286801D01*
X0412179Y0286884D01*
X0412148Y0286965D01*
X0412113Y0287045D01*
X0412074Y0287123D01*
X0412032Y0287200D01*
X0411987Y0287275D01*
X0411938Y0287347D01*
X0411887Y0287418D01*
X0411832Y0287486D01*
X0411775Y0287551D01*
X0411714Y0287614D01*
X0411651Y0287675D01*
X0411586Y0287732D01*
X0411518Y0287787D01*
X0411447Y0287838D01*
X0411375Y0287887D01*
X0411300Y0287932D01*
X0411223Y0287974D01*
X0411145Y0288013D01*
X0411065Y0288048D01*
X0410984Y0288079D01*
X0410901Y0288107D01*
X0410818Y0288132D01*
X0410733Y0288153D01*
X0410647Y0288170D01*
X0410561Y0288183D01*
X0410474Y0288192D01*
X0410387Y0288198D01*
X0410300Y0288200D01*
X0397300Y0288200D01*
X0397213Y0288198D01*
X0397126Y0288192D01*
X0397039Y0288183D01*
X0396953Y0288170D01*
X0396867Y0288153D01*
X0396782Y0288132D01*
X0396699Y0288107D01*
X0396616Y0288079D01*
X0396535Y0288048D01*
X0396455Y0288013D01*
X0396377Y0287974D01*
X0396300Y0287932D01*
X0396225Y0287887D01*
X0396153Y0287838D01*
X0396082Y0287787D01*
X0396014Y0287732D01*
X0395949Y0287675D01*
X0395886Y0287614D01*
X0395825Y0287551D01*
X0395768Y0287486D01*
X0395713Y0287418D01*
X0395662Y0287347D01*
X0395613Y0287275D01*
X0395568Y0287200D01*
X0395526Y0287123D01*
X0395487Y0287045D01*
X0395452Y0286965D01*
X0395421Y0286884D01*
X0395393Y0286801D01*
X0395368Y0286718D01*
X0395347Y0286633D01*
X0395330Y0286547D01*
X0395317Y0286461D01*
X0395308Y0286374D01*
X0395302Y0286287D01*
X0395300Y0286200D01*
X0395300Y0281200D01*
X0395302Y0281113D01*
X0395308Y0281026D01*
X0395317Y0280939D01*
X0395330Y0280853D01*
X0395347Y0280767D01*
X0395368Y0280682D01*
X0395393Y0280599D01*
X0395421Y0280516D01*
X0395452Y0280435D01*
X0395487Y0280355D01*
X0395526Y0280277D01*
X0395568Y0280200D01*
X0395613Y0280125D01*
X0395662Y0280053D01*
X0395713Y0279982D01*
X0395768Y0279914D01*
X0395825Y0279849D01*
X0395886Y0279786D01*
X0395949Y0279725D01*
X0396014Y0279668D01*
X0396082Y0279613D01*
X0396153Y0279562D01*
X0396225Y0279513D01*
X0396300Y0279468D01*
X0396377Y0279426D01*
X0396455Y0279387D01*
X0396535Y0279352D01*
X0396616Y0279321D01*
X0396699Y0279293D01*
X0396782Y0279268D01*
X0396867Y0279247D01*
X0396953Y0279230D01*
X0397039Y0279217D01*
X0397126Y0279208D01*
X0397213Y0279202D01*
X0397300Y0279200D01*
X0397800Y0277450D02*
X0397798Y0277324D01*
X0397792Y0277199D01*
X0397782Y0277074D01*
X0397768Y0276949D01*
X0397751Y0276824D01*
X0397729Y0276700D01*
X0397704Y0276577D01*
X0397674Y0276455D01*
X0397641Y0276334D01*
X0397604Y0276214D01*
X0397564Y0276095D01*
X0397519Y0275978D01*
X0397471Y0275861D01*
X0397419Y0275747D01*
X0397364Y0275634D01*
X0397305Y0275523D01*
X0397243Y0275414D01*
X0397177Y0275307D01*
X0397108Y0275202D01*
X0397036Y0275099D01*
X0396961Y0274998D01*
X0396882Y0274900D01*
X0396800Y0274805D01*
X0396716Y0274712D01*
X0396628Y0274622D01*
X0396538Y0274534D01*
X0396445Y0274450D01*
X0396350Y0274368D01*
X0396252Y0274289D01*
X0396151Y0274214D01*
X0396048Y0274142D01*
X0395943Y0274073D01*
X0395836Y0274007D01*
X0395727Y0273945D01*
X0395616Y0273886D01*
X0395503Y0273831D01*
X0395389Y0273779D01*
X0395272Y0273731D01*
X0395155Y0273686D01*
X0395036Y0273646D01*
X0394916Y0273609D01*
X0394795Y0273576D01*
X0394673Y0273546D01*
X0394550Y0273521D01*
X0394426Y0273499D01*
X0394301Y0273482D01*
X0394176Y0273468D01*
X0394051Y0273458D01*
X0393926Y0273452D01*
X0393800Y0273450D01*
X0393674Y0273452D01*
X0393549Y0273458D01*
X0393424Y0273468D01*
X0393299Y0273482D01*
X0393174Y0273499D01*
X0393050Y0273521D01*
X0392927Y0273546D01*
X0392805Y0273576D01*
X0392684Y0273609D01*
X0392564Y0273646D01*
X0392445Y0273686D01*
X0392328Y0273731D01*
X0392211Y0273779D01*
X0392097Y0273831D01*
X0391984Y0273886D01*
X0391873Y0273945D01*
X0391764Y0274007D01*
X0391657Y0274073D01*
X0391552Y0274142D01*
X0391449Y0274214D01*
X0391348Y0274289D01*
X0391250Y0274368D01*
X0391155Y0274450D01*
X0391062Y0274534D01*
X0390972Y0274622D01*
X0390884Y0274712D01*
X0390800Y0274805D01*
X0390718Y0274900D01*
X0390639Y0274998D01*
X0390564Y0275099D01*
X0390492Y0275202D01*
X0390423Y0275307D01*
X0390357Y0275414D01*
X0390295Y0275523D01*
X0390236Y0275634D01*
X0390181Y0275747D01*
X0390129Y0275861D01*
X0390081Y0275978D01*
X0390036Y0276095D01*
X0389996Y0276214D01*
X0389959Y0276334D01*
X0389926Y0276455D01*
X0389896Y0276577D01*
X0389871Y0276700D01*
X0389849Y0276824D01*
X0389832Y0276949D01*
X0389818Y0277074D01*
X0389808Y0277199D01*
X0389802Y0277324D01*
X0389800Y0277450D01*
X0382300Y0277450D01*
X0382300Y0207450D01*
X0317800Y0197450D02*
X0294800Y0197450D01*
X0294800Y0267450D01*
X0302300Y0267450D01*
X0302302Y0267324D01*
X0302308Y0267199D01*
X0302318Y0267074D01*
X0302332Y0266949D01*
X0302349Y0266824D01*
X0302371Y0266700D01*
X0302396Y0266577D01*
X0302426Y0266455D01*
X0302459Y0266334D01*
X0302496Y0266214D01*
X0302536Y0266095D01*
X0302581Y0265978D01*
X0302629Y0265861D01*
X0302681Y0265747D01*
X0302736Y0265634D01*
X0302795Y0265523D01*
X0302857Y0265414D01*
X0302923Y0265307D01*
X0302992Y0265202D01*
X0303064Y0265099D01*
X0303139Y0264998D01*
X0303218Y0264900D01*
X0303300Y0264805D01*
X0303384Y0264712D01*
X0303472Y0264622D01*
X0303562Y0264534D01*
X0303655Y0264450D01*
X0303750Y0264368D01*
X0303848Y0264289D01*
X0303949Y0264214D01*
X0304052Y0264142D01*
X0304157Y0264073D01*
X0304264Y0264007D01*
X0304373Y0263945D01*
X0304484Y0263886D01*
X0304597Y0263831D01*
X0304711Y0263779D01*
X0304828Y0263731D01*
X0304945Y0263686D01*
X0305064Y0263646D01*
X0305184Y0263609D01*
X0305305Y0263576D01*
X0305427Y0263546D01*
X0305550Y0263521D01*
X0305674Y0263499D01*
X0305799Y0263482D01*
X0305924Y0263468D01*
X0306049Y0263458D01*
X0306174Y0263452D01*
X0306300Y0263450D01*
X0306426Y0263452D01*
X0306551Y0263458D01*
X0306676Y0263468D01*
X0306801Y0263482D01*
X0306926Y0263499D01*
X0307050Y0263521D01*
X0307173Y0263546D01*
X0307295Y0263576D01*
X0307416Y0263609D01*
X0307536Y0263646D01*
X0307655Y0263686D01*
X0307772Y0263731D01*
X0307889Y0263779D01*
X0308003Y0263831D01*
X0308116Y0263886D01*
X0308227Y0263945D01*
X0308336Y0264007D01*
X0308443Y0264073D01*
X0308548Y0264142D01*
X0308651Y0264214D01*
X0308752Y0264289D01*
X0308850Y0264368D01*
X0308945Y0264450D01*
X0309038Y0264534D01*
X0309128Y0264622D01*
X0309216Y0264712D01*
X0309300Y0264805D01*
X0309382Y0264900D01*
X0309461Y0264998D01*
X0309536Y0265099D01*
X0309608Y0265202D01*
X0309677Y0265307D01*
X0309743Y0265414D01*
X0309805Y0265523D01*
X0309864Y0265634D01*
X0309919Y0265747D01*
X0309971Y0265861D01*
X0310019Y0265978D01*
X0310064Y0266095D01*
X0310104Y0266214D01*
X0310141Y0266334D01*
X0310174Y0266455D01*
X0310204Y0266577D01*
X0310229Y0266700D01*
X0310251Y0266824D01*
X0310268Y0266949D01*
X0310282Y0267074D01*
X0310292Y0267199D01*
X0310298Y0267324D01*
X0310300Y0267450D01*
X0317800Y0267450D01*
X0317800Y0197450D01*
X0322800Y0270400D02*
X0309800Y0270400D01*
X0309713Y0270402D01*
X0309626Y0270408D01*
X0309539Y0270417D01*
X0309453Y0270430D01*
X0309367Y0270447D01*
X0309282Y0270468D01*
X0309199Y0270493D01*
X0309116Y0270521D01*
X0309035Y0270552D01*
X0308955Y0270587D01*
X0308877Y0270626D01*
X0308800Y0270668D01*
X0308725Y0270713D01*
X0308653Y0270762D01*
X0308582Y0270813D01*
X0308514Y0270868D01*
X0308449Y0270925D01*
X0308386Y0270986D01*
X0308325Y0271049D01*
X0308268Y0271114D01*
X0308213Y0271182D01*
X0308162Y0271253D01*
X0308113Y0271325D01*
X0308068Y0271400D01*
X0308026Y0271477D01*
X0307987Y0271555D01*
X0307952Y0271635D01*
X0307921Y0271716D01*
X0307893Y0271799D01*
X0307868Y0271882D01*
X0307847Y0271967D01*
X0307830Y0272053D01*
X0307817Y0272139D01*
X0307808Y0272226D01*
X0307802Y0272313D01*
X0307800Y0272400D01*
X0307800Y0277400D01*
X0307802Y0277487D01*
X0307808Y0277574D01*
X0307817Y0277661D01*
X0307830Y0277747D01*
X0307847Y0277833D01*
X0307868Y0277918D01*
X0307893Y0278001D01*
X0307921Y0278084D01*
X0307952Y0278165D01*
X0307987Y0278245D01*
X0308026Y0278323D01*
X0308068Y0278400D01*
X0308113Y0278475D01*
X0308162Y0278547D01*
X0308213Y0278618D01*
X0308268Y0278686D01*
X0308325Y0278751D01*
X0308386Y0278814D01*
X0308449Y0278875D01*
X0308514Y0278932D01*
X0308582Y0278987D01*
X0308653Y0279038D01*
X0308725Y0279087D01*
X0308800Y0279132D01*
X0308877Y0279174D01*
X0308955Y0279213D01*
X0309035Y0279248D01*
X0309116Y0279279D01*
X0309199Y0279307D01*
X0309282Y0279332D01*
X0309367Y0279353D01*
X0309453Y0279370D01*
X0309539Y0279383D01*
X0309626Y0279392D01*
X0309713Y0279398D01*
X0309800Y0279400D01*
X0322800Y0279400D01*
X0322887Y0279398D01*
X0322974Y0279392D01*
X0323061Y0279383D01*
X0323147Y0279370D01*
X0323233Y0279353D01*
X0323318Y0279332D01*
X0323401Y0279307D01*
X0323484Y0279279D01*
X0323565Y0279248D01*
X0323645Y0279213D01*
X0323723Y0279174D01*
X0323800Y0279132D01*
X0323875Y0279087D01*
X0323947Y0279038D01*
X0324018Y0278987D01*
X0324086Y0278932D01*
X0324151Y0278875D01*
X0324214Y0278814D01*
X0324275Y0278751D01*
X0324332Y0278686D01*
X0324387Y0278618D01*
X0324438Y0278547D01*
X0324487Y0278475D01*
X0324532Y0278400D01*
X0324574Y0278323D01*
X0324613Y0278245D01*
X0324648Y0278165D01*
X0324679Y0278084D01*
X0324707Y0278001D01*
X0324732Y0277918D01*
X0324753Y0277833D01*
X0324770Y0277747D01*
X0324783Y0277661D01*
X0324792Y0277574D01*
X0324798Y0277487D01*
X0324800Y0277400D01*
X0324800Y0272400D01*
X0324798Y0272313D01*
X0324792Y0272226D01*
X0324783Y0272139D01*
X0324770Y0272053D01*
X0324753Y0271967D01*
X0324732Y0271882D01*
X0324707Y0271799D01*
X0324679Y0271716D01*
X0324648Y0271635D01*
X0324613Y0271555D01*
X0324574Y0271477D01*
X0324532Y0271400D01*
X0324487Y0271325D01*
X0324438Y0271253D01*
X0324387Y0271182D01*
X0324332Y0271114D01*
X0324275Y0271049D01*
X0324214Y0270986D01*
X0324151Y0270925D01*
X0324086Y0270868D01*
X0324018Y0270813D01*
X0323947Y0270762D01*
X0323875Y0270713D01*
X0323800Y0270668D01*
X0323723Y0270626D01*
X0323645Y0270587D01*
X0323565Y0270552D01*
X0323484Y0270521D01*
X0323401Y0270493D01*
X0323318Y0270468D01*
X0323233Y0270447D01*
X0323147Y0270430D01*
X0323061Y0270417D01*
X0322974Y0270408D01*
X0322887Y0270402D01*
X0322800Y0270400D01*
X0338550Y0281200D02*
X0361550Y0281200D01*
X0361550Y0361200D01*
X0354050Y0361200D01*
X0353550Y0362950D02*
X0366550Y0362950D01*
X0366637Y0362952D01*
X0366724Y0362958D01*
X0366811Y0362967D01*
X0366897Y0362980D01*
X0366983Y0362997D01*
X0367068Y0363018D01*
X0367151Y0363043D01*
X0367234Y0363071D01*
X0367315Y0363102D01*
X0367395Y0363137D01*
X0367473Y0363176D01*
X0367550Y0363218D01*
X0367625Y0363263D01*
X0367697Y0363312D01*
X0367768Y0363363D01*
X0367836Y0363418D01*
X0367901Y0363475D01*
X0367964Y0363536D01*
X0368025Y0363599D01*
X0368082Y0363664D01*
X0368137Y0363732D01*
X0368188Y0363803D01*
X0368237Y0363875D01*
X0368282Y0363950D01*
X0368324Y0364027D01*
X0368363Y0364105D01*
X0368398Y0364185D01*
X0368429Y0364266D01*
X0368457Y0364349D01*
X0368482Y0364432D01*
X0368503Y0364517D01*
X0368520Y0364603D01*
X0368533Y0364689D01*
X0368542Y0364776D01*
X0368548Y0364863D01*
X0368550Y0364950D01*
X0368550Y0369950D01*
X0368548Y0370037D01*
X0368542Y0370124D01*
X0368533Y0370211D01*
X0368520Y0370297D01*
X0368503Y0370383D01*
X0368482Y0370468D01*
X0368457Y0370551D01*
X0368429Y0370634D01*
X0368398Y0370715D01*
X0368363Y0370795D01*
X0368324Y0370873D01*
X0368282Y0370950D01*
X0368237Y0371025D01*
X0368188Y0371097D01*
X0368137Y0371168D01*
X0368082Y0371236D01*
X0368025Y0371301D01*
X0367964Y0371364D01*
X0367901Y0371425D01*
X0367836Y0371482D01*
X0367768Y0371537D01*
X0367697Y0371588D01*
X0367625Y0371637D01*
X0367550Y0371682D01*
X0367473Y0371724D01*
X0367395Y0371763D01*
X0367315Y0371798D01*
X0367234Y0371829D01*
X0367151Y0371857D01*
X0367068Y0371882D01*
X0366983Y0371903D01*
X0366897Y0371920D01*
X0366811Y0371933D01*
X0366724Y0371942D01*
X0366637Y0371948D01*
X0366550Y0371950D01*
X0353550Y0371950D01*
X0353463Y0371948D01*
X0353376Y0371942D01*
X0353289Y0371933D01*
X0353203Y0371920D01*
X0353117Y0371903D01*
X0353032Y0371882D01*
X0352949Y0371857D01*
X0352866Y0371829D01*
X0352785Y0371798D01*
X0352705Y0371763D01*
X0352627Y0371724D01*
X0352550Y0371682D01*
X0352475Y0371637D01*
X0352403Y0371588D01*
X0352332Y0371537D01*
X0352264Y0371482D01*
X0352199Y0371425D01*
X0352136Y0371364D01*
X0352075Y0371301D01*
X0352018Y0371236D01*
X0351963Y0371168D01*
X0351912Y0371097D01*
X0351863Y0371025D01*
X0351818Y0370950D01*
X0351776Y0370873D01*
X0351737Y0370795D01*
X0351702Y0370715D01*
X0351671Y0370634D01*
X0351643Y0370551D01*
X0351618Y0370468D01*
X0351597Y0370383D01*
X0351580Y0370297D01*
X0351567Y0370211D01*
X0351558Y0370124D01*
X0351552Y0370037D01*
X0351550Y0369950D01*
X0351550Y0364950D01*
X0351552Y0364863D01*
X0351558Y0364776D01*
X0351567Y0364689D01*
X0351580Y0364603D01*
X0351597Y0364517D01*
X0351618Y0364432D01*
X0351643Y0364349D01*
X0351671Y0364266D01*
X0351702Y0364185D01*
X0351737Y0364105D01*
X0351776Y0364027D01*
X0351818Y0363950D01*
X0351863Y0363875D01*
X0351912Y0363803D01*
X0351963Y0363732D01*
X0352018Y0363664D01*
X0352075Y0363599D01*
X0352136Y0363536D01*
X0352199Y0363475D01*
X0352264Y0363418D01*
X0352332Y0363363D01*
X0352403Y0363312D01*
X0352475Y0363263D01*
X0352550Y0363218D01*
X0352627Y0363176D01*
X0352705Y0363137D01*
X0352785Y0363102D01*
X0352866Y0363071D01*
X0352949Y0363043D01*
X0353032Y0363018D01*
X0353117Y0362997D01*
X0353203Y0362980D01*
X0353289Y0362967D01*
X0353376Y0362958D01*
X0353463Y0362952D01*
X0353550Y0362950D01*
X0354050Y0361200D02*
X0354048Y0361074D01*
X0354042Y0360949D01*
X0354032Y0360824D01*
X0354018Y0360699D01*
X0354001Y0360574D01*
X0353979Y0360450D01*
X0353954Y0360327D01*
X0353924Y0360205D01*
X0353891Y0360084D01*
X0353854Y0359964D01*
X0353814Y0359845D01*
X0353769Y0359728D01*
X0353721Y0359611D01*
X0353669Y0359497D01*
X0353614Y0359384D01*
X0353555Y0359273D01*
X0353493Y0359164D01*
X0353427Y0359057D01*
X0353358Y0358952D01*
X0353286Y0358849D01*
X0353211Y0358748D01*
X0353132Y0358650D01*
X0353050Y0358555D01*
X0352966Y0358462D01*
X0352878Y0358372D01*
X0352788Y0358284D01*
X0352695Y0358200D01*
X0352600Y0358118D01*
X0352502Y0358039D01*
X0352401Y0357964D01*
X0352298Y0357892D01*
X0352193Y0357823D01*
X0352086Y0357757D01*
X0351977Y0357695D01*
X0351866Y0357636D01*
X0351753Y0357581D01*
X0351639Y0357529D01*
X0351522Y0357481D01*
X0351405Y0357436D01*
X0351286Y0357396D01*
X0351166Y0357359D01*
X0351045Y0357326D01*
X0350923Y0357296D01*
X0350800Y0357271D01*
X0350676Y0357249D01*
X0350551Y0357232D01*
X0350426Y0357218D01*
X0350301Y0357208D01*
X0350176Y0357202D01*
X0350050Y0357200D01*
X0349924Y0357202D01*
X0349799Y0357208D01*
X0349674Y0357218D01*
X0349549Y0357232D01*
X0349424Y0357249D01*
X0349300Y0357271D01*
X0349177Y0357296D01*
X0349055Y0357326D01*
X0348934Y0357359D01*
X0348814Y0357396D01*
X0348695Y0357436D01*
X0348578Y0357481D01*
X0348461Y0357529D01*
X0348347Y0357581D01*
X0348234Y0357636D01*
X0348123Y0357695D01*
X0348014Y0357757D01*
X0347907Y0357823D01*
X0347802Y0357892D01*
X0347699Y0357964D01*
X0347598Y0358039D01*
X0347500Y0358118D01*
X0347405Y0358200D01*
X0347312Y0358284D01*
X0347222Y0358372D01*
X0347134Y0358462D01*
X0347050Y0358555D01*
X0346968Y0358650D01*
X0346889Y0358748D01*
X0346814Y0358849D01*
X0346742Y0358952D01*
X0346673Y0359057D01*
X0346607Y0359164D01*
X0346545Y0359273D01*
X0346486Y0359384D01*
X0346431Y0359497D01*
X0346379Y0359611D01*
X0346331Y0359728D01*
X0346286Y0359845D01*
X0346246Y0359964D01*
X0346209Y0360084D01*
X0346176Y0360205D01*
X0346146Y0360327D01*
X0346121Y0360450D01*
X0346099Y0360574D01*
X0346082Y0360699D01*
X0346068Y0360824D01*
X0346058Y0360949D01*
X0346052Y0361074D01*
X0346050Y0361200D01*
X0338550Y0361200D01*
X0338550Y0281200D01*
X0351550Y0276200D02*
X0351550Y0271200D01*
X0351552Y0271113D01*
X0351558Y0271026D01*
X0351567Y0270939D01*
X0351580Y0270853D01*
X0351597Y0270767D01*
X0351618Y0270682D01*
X0351643Y0270599D01*
X0351671Y0270516D01*
X0351702Y0270435D01*
X0351737Y0270355D01*
X0351776Y0270277D01*
X0351818Y0270200D01*
X0351863Y0270125D01*
X0351912Y0270053D01*
X0351963Y0269982D01*
X0352018Y0269914D01*
X0352075Y0269849D01*
X0352136Y0269786D01*
X0352199Y0269725D01*
X0352264Y0269668D01*
X0352332Y0269613D01*
X0352403Y0269562D01*
X0352475Y0269513D01*
X0352550Y0269468D01*
X0352627Y0269426D01*
X0352705Y0269387D01*
X0352785Y0269352D01*
X0352866Y0269321D01*
X0352949Y0269293D01*
X0353032Y0269268D01*
X0353117Y0269247D01*
X0353203Y0269230D01*
X0353289Y0269217D01*
X0353376Y0269208D01*
X0353463Y0269202D01*
X0353550Y0269200D01*
X0366550Y0269200D01*
X0366637Y0269202D01*
X0366724Y0269208D01*
X0366811Y0269217D01*
X0366897Y0269230D01*
X0366983Y0269247D01*
X0367068Y0269268D01*
X0367151Y0269293D01*
X0367234Y0269321D01*
X0367315Y0269352D01*
X0367395Y0269387D01*
X0367473Y0269426D01*
X0367550Y0269468D01*
X0367625Y0269513D01*
X0367697Y0269562D01*
X0367768Y0269613D01*
X0367836Y0269668D01*
X0367901Y0269725D01*
X0367964Y0269786D01*
X0368025Y0269849D01*
X0368082Y0269914D01*
X0368137Y0269982D01*
X0368188Y0270053D01*
X0368237Y0270125D01*
X0368282Y0270200D01*
X0368324Y0270277D01*
X0368363Y0270355D01*
X0368398Y0270435D01*
X0368429Y0270516D01*
X0368457Y0270599D01*
X0368482Y0270682D01*
X0368503Y0270767D01*
X0368520Y0270853D01*
X0368533Y0270939D01*
X0368542Y0271026D01*
X0368548Y0271113D01*
X0368550Y0271200D01*
X0368550Y0276200D01*
X0368548Y0276287D01*
X0368542Y0276374D01*
X0368533Y0276461D01*
X0368520Y0276547D01*
X0368503Y0276633D01*
X0368482Y0276718D01*
X0368457Y0276801D01*
X0368429Y0276884D01*
X0368398Y0276965D01*
X0368363Y0277045D01*
X0368324Y0277123D01*
X0368282Y0277200D01*
X0368237Y0277275D01*
X0368188Y0277347D01*
X0368137Y0277418D01*
X0368082Y0277486D01*
X0368025Y0277551D01*
X0367964Y0277614D01*
X0367901Y0277675D01*
X0367836Y0277732D01*
X0367768Y0277787D01*
X0367697Y0277838D01*
X0367625Y0277887D01*
X0367550Y0277932D01*
X0367473Y0277974D01*
X0367395Y0278013D01*
X0367315Y0278048D01*
X0367234Y0278079D01*
X0367151Y0278107D01*
X0367068Y0278132D01*
X0366983Y0278153D01*
X0366897Y0278170D01*
X0366811Y0278183D01*
X0366724Y0278192D01*
X0366637Y0278198D01*
X0366550Y0278200D01*
X0353550Y0278200D01*
X0353463Y0278198D01*
X0353376Y0278192D01*
X0353289Y0278183D01*
X0353203Y0278170D01*
X0353117Y0278153D01*
X0353032Y0278132D01*
X0352949Y0278107D01*
X0352866Y0278079D01*
X0352785Y0278048D01*
X0352705Y0278013D01*
X0352627Y0277974D01*
X0352550Y0277932D01*
X0352475Y0277887D01*
X0352403Y0277838D01*
X0352332Y0277787D01*
X0352264Y0277732D01*
X0352199Y0277675D01*
X0352136Y0277614D01*
X0352075Y0277551D01*
X0352018Y0277486D01*
X0351963Y0277418D01*
X0351912Y0277347D01*
X0351863Y0277275D01*
X0351818Y0277200D01*
X0351776Y0277123D01*
X0351737Y0277045D01*
X0351702Y0276965D01*
X0351671Y0276884D01*
X0351643Y0276801D01*
X0351618Y0276718D01*
X0351597Y0276633D01*
X0351580Y0276547D01*
X0351567Y0276461D01*
X0351558Y0276374D01*
X0351552Y0276287D01*
X0351550Y0276200D01*
X0382300Y0291200D02*
X0405300Y0291200D01*
X0405300Y0361200D01*
X0397800Y0361200D01*
X0397300Y0362950D02*
X0410300Y0362950D01*
X0410387Y0362952D01*
X0410474Y0362958D01*
X0410561Y0362967D01*
X0410647Y0362980D01*
X0410733Y0362997D01*
X0410818Y0363018D01*
X0410901Y0363043D01*
X0410984Y0363071D01*
X0411065Y0363102D01*
X0411145Y0363137D01*
X0411223Y0363176D01*
X0411300Y0363218D01*
X0411375Y0363263D01*
X0411447Y0363312D01*
X0411518Y0363363D01*
X0411586Y0363418D01*
X0411651Y0363475D01*
X0411714Y0363536D01*
X0411775Y0363599D01*
X0411832Y0363664D01*
X0411887Y0363732D01*
X0411938Y0363803D01*
X0411987Y0363875D01*
X0412032Y0363950D01*
X0412074Y0364027D01*
X0412113Y0364105D01*
X0412148Y0364185D01*
X0412179Y0364266D01*
X0412207Y0364349D01*
X0412232Y0364432D01*
X0412253Y0364517D01*
X0412270Y0364603D01*
X0412283Y0364689D01*
X0412292Y0364776D01*
X0412298Y0364863D01*
X0412300Y0364950D01*
X0412300Y0369950D01*
X0412298Y0370037D01*
X0412292Y0370124D01*
X0412283Y0370211D01*
X0412270Y0370297D01*
X0412253Y0370383D01*
X0412232Y0370468D01*
X0412207Y0370551D01*
X0412179Y0370634D01*
X0412148Y0370715D01*
X0412113Y0370795D01*
X0412074Y0370873D01*
X0412032Y0370950D01*
X0411987Y0371025D01*
X0411938Y0371097D01*
X0411887Y0371168D01*
X0411832Y0371236D01*
X0411775Y0371301D01*
X0411714Y0371364D01*
X0411651Y0371425D01*
X0411586Y0371482D01*
X0411518Y0371537D01*
X0411447Y0371588D01*
X0411375Y0371637D01*
X0411300Y0371682D01*
X0411223Y0371724D01*
X0411145Y0371763D01*
X0411065Y0371798D01*
X0410984Y0371829D01*
X0410901Y0371857D01*
X0410818Y0371882D01*
X0410733Y0371903D01*
X0410647Y0371920D01*
X0410561Y0371933D01*
X0410474Y0371942D01*
X0410387Y0371948D01*
X0410300Y0371950D01*
X0397300Y0371950D01*
X0397213Y0371948D01*
X0397126Y0371942D01*
X0397039Y0371933D01*
X0396953Y0371920D01*
X0396867Y0371903D01*
X0396782Y0371882D01*
X0396699Y0371857D01*
X0396616Y0371829D01*
X0396535Y0371798D01*
X0396455Y0371763D01*
X0396377Y0371724D01*
X0396300Y0371682D01*
X0396225Y0371637D01*
X0396153Y0371588D01*
X0396082Y0371537D01*
X0396014Y0371482D01*
X0395949Y0371425D01*
X0395886Y0371364D01*
X0395825Y0371301D01*
X0395768Y0371236D01*
X0395713Y0371168D01*
X0395662Y0371097D01*
X0395613Y0371025D01*
X0395568Y0370950D01*
X0395526Y0370873D01*
X0395487Y0370795D01*
X0395452Y0370715D01*
X0395421Y0370634D01*
X0395393Y0370551D01*
X0395368Y0370468D01*
X0395347Y0370383D01*
X0395330Y0370297D01*
X0395317Y0370211D01*
X0395308Y0370124D01*
X0395302Y0370037D01*
X0395300Y0369950D01*
X0395300Y0364950D01*
X0395302Y0364863D01*
X0395308Y0364776D01*
X0395317Y0364689D01*
X0395330Y0364603D01*
X0395347Y0364517D01*
X0395368Y0364432D01*
X0395393Y0364349D01*
X0395421Y0364266D01*
X0395452Y0364185D01*
X0395487Y0364105D01*
X0395526Y0364027D01*
X0395568Y0363950D01*
X0395613Y0363875D01*
X0395662Y0363803D01*
X0395713Y0363732D01*
X0395768Y0363664D01*
X0395825Y0363599D01*
X0395886Y0363536D01*
X0395949Y0363475D01*
X0396014Y0363418D01*
X0396082Y0363363D01*
X0396153Y0363312D01*
X0396225Y0363263D01*
X0396300Y0363218D01*
X0396377Y0363176D01*
X0396455Y0363137D01*
X0396535Y0363102D01*
X0396616Y0363071D01*
X0396699Y0363043D01*
X0396782Y0363018D01*
X0396867Y0362997D01*
X0396953Y0362980D01*
X0397039Y0362967D01*
X0397126Y0362958D01*
X0397213Y0362952D01*
X0397300Y0362950D01*
X0397800Y0361200D02*
X0397798Y0361074D01*
X0397792Y0360949D01*
X0397782Y0360824D01*
X0397768Y0360699D01*
X0397751Y0360574D01*
X0397729Y0360450D01*
X0397704Y0360327D01*
X0397674Y0360205D01*
X0397641Y0360084D01*
X0397604Y0359964D01*
X0397564Y0359845D01*
X0397519Y0359728D01*
X0397471Y0359611D01*
X0397419Y0359497D01*
X0397364Y0359384D01*
X0397305Y0359273D01*
X0397243Y0359164D01*
X0397177Y0359057D01*
X0397108Y0358952D01*
X0397036Y0358849D01*
X0396961Y0358748D01*
X0396882Y0358650D01*
X0396800Y0358555D01*
X0396716Y0358462D01*
X0396628Y0358372D01*
X0396538Y0358284D01*
X0396445Y0358200D01*
X0396350Y0358118D01*
X0396252Y0358039D01*
X0396151Y0357964D01*
X0396048Y0357892D01*
X0395943Y0357823D01*
X0395836Y0357757D01*
X0395727Y0357695D01*
X0395616Y0357636D01*
X0395503Y0357581D01*
X0395389Y0357529D01*
X0395272Y0357481D01*
X0395155Y0357436D01*
X0395036Y0357396D01*
X0394916Y0357359D01*
X0394795Y0357326D01*
X0394673Y0357296D01*
X0394550Y0357271D01*
X0394426Y0357249D01*
X0394301Y0357232D01*
X0394176Y0357218D01*
X0394051Y0357208D01*
X0393926Y0357202D01*
X0393800Y0357200D01*
X0393674Y0357202D01*
X0393549Y0357208D01*
X0393424Y0357218D01*
X0393299Y0357232D01*
X0393174Y0357249D01*
X0393050Y0357271D01*
X0392927Y0357296D01*
X0392805Y0357326D01*
X0392684Y0357359D01*
X0392564Y0357396D01*
X0392445Y0357436D01*
X0392328Y0357481D01*
X0392211Y0357529D01*
X0392097Y0357581D01*
X0391984Y0357636D01*
X0391873Y0357695D01*
X0391764Y0357757D01*
X0391657Y0357823D01*
X0391552Y0357892D01*
X0391449Y0357964D01*
X0391348Y0358039D01*
X0391250Y0358118D01*
X0391155Y0358200D01*
X0391062Y0358284D01*
X0390972Y0358372D01*
X0390884Y0358462D01*
X0390800Y0358555D01*
X0390718Y0358650D01*
X0390639Y0358748D01*
X0390564Y0358849D01*
X0390492Y0358952D01*
X0390423Y0359057D01*
X0390357Y0359164D01*
X0390295Y0359273D01*
X0390236Y0359384D01*
X0390181Y0359497D01*
X0390129Y0359611D01*
X0390081Y0359728D01*
X0390036Y0359845D01*
X0389996Y0359964D01*
X0389959Y0360084D01*
X0389926Y0360205D01*
X0389896Y0360327D01*
X0389871Y0360450D01*
X0389849Y0360574D01*
X0389832Y0360699D01*
X0389818Y0360824D01*
X0389808Y0360949D01*
X0389802Y0361074D01*
X0389800Y0361200D01*
X0382300Y0361200D01*
X0382300Y0291200D01*
X0317800Y0291200D02*
X0294800Y0291200D01*
X0294800Y0361200D01*
X0302300Y0361200D01*
X0302302Y0361074D01*
X0302308Y0360949D01*
X0302318Y0360824D01*
X0302332Y0360699D01*
X0302349Y0360574D01*
X0302371Y0360450D01*
X0302396Y0360327D01*
X0302426Y0360205D01*
X0302459Y0360084D01*
X0302496Y0359964D01*
X0302536Y0359845D01*
X0302581Y0359728D01*
X0302629Y0359611D01*
X0302681Y0359497D01*
X0302736Y0359384D01*
X0302795Y0359273D01*
X0302857Y0359164D01*
X0302923Y0359057D01*
X0302992Y0358952D01*
X0303064Y0358849D01*
X0303139Y0358748D01*
X0303218Y0358650D01*
X0303300Y0358555D01*
X0303384Y0358462D01*
X0303472Y0358372D01*
X0303562Y0358284D01*
X0303655Y0358200D01*
X0303750Y0358118D01*
X0303848Y0358039D01*
X0303949Y0357964D01*
X0304052Y0357892D01*
X0304157Y0357823D01*
X0304264Y0357757D01*
X0304373Y0357695D01*
X0304484Y0357636D01*
X0304597Y0357581D01*
X0304711Y0357529D01*
X0304828Y0357481D01*
X0304945Y0357436D01*
X0305064Y0357396D01*
X0305184Y0357359D01*
X0305305Y0357326D01*
X0305427Y0357296D01*
X0305550Y0357271D01*
X0305674Y0357249D01*
X0305799Y0357232D01*
X0305924Y0357218D01*
X0306049Y0357208D01*
X0306174Y0357202D01*
X0306300Y0357200D01*
X0306426Y0357202D01*
X0306551Y0357208D01*
X0306676Y0357218D01*
X0306801Y0357232D01*
X0306926Y0357249D01*
X0307050Y0357271D01*
X0307173Y0357296D01*
X0307295Y0357326D01*
X0307416Y0357359D01*
X0307536Y0357396D01*
X0307655Y0357436D01*
X0307772Y0357481D01*
X0307889Y0357529D01*
X0308003Y0357581D01*
X0308116Y0357636D01*
X0308227Y0357695D01*
X0308336Y0357757D01*
X0308443Y0357823D01*
X0308548Y0357892D01*
X0308651Y0357964D01*
X0308752Y0358039D01*
X0308850Y0358118D01*
X0308945Y0358200D01*
X0309038Y0358284D01*
X0309128Y0358372D01*
X0309216Y0358462D01*
X0309300Y0358555D01*
X0309382Y0358650D01*
X0309461Y0358748D01*
X0309536Y0358849D01*
X0309608Y0358952D01*
X0309677Y0359057D01*
X0309743Y0359164D01*
X0309805Y0359273D01*
X0309864Y0359384D01*
X0309919Y0359497D01*
X0309971Y0359611D01*
X0310019Y0359728D01*
X0310064Y0359845D01*
X0310104Y0359964D01*
X0310141Y0360084D01*
X0310174Y0360205D01*
X0310204Y0360327D01*
X0310229Y0360450D01*
X0310251Y0360574D01*
X0310268Y0360699D01*
X0310282Y0360824D01*
X0310292Y0360949D01*
X0310298Y0361074D01*
X0310300Y0361200D01*
X0317800Y0361200D01*
X0317800Y0291200D01*
X0272600Y0327600D02*
X0272600Y0332600D01*
X0272598Y0332687D01*
X0272592Y0332774D01*
X0272583Y0332861D01*
X0272570Y0332947D01*
X0272553Y0333033D01*
X0272532Y0333118D01*
X0272507Y0333201D01*
X0272479Y0333284D01*
X0272448Y0333365D01*
X0272413Y0333445D01*
X0272374Y0333523D01*
X0272332Y0333600D01*
X0272287Y0333675D01*
X0272238Y0333747D01*
X0272187Y0333818D01*
X0272132Y0333886D01*
X0272075Y0333951D01*
X0272014Y0334014D01*
X0271951Y0334075D01*
X0271886Y0334132D01*
X0271818Y0334187D01*
X0271747Y0334238D01*
X0271675Y0334287D01*
X0271600Y0334332D01*
X0271523Y0334374D01*
X0271445Y0334413D01*
X0271365Y0334448D01*
X0271284Y0334479D01*
X0271201Y0334507D01*
X0271118Y0334532D01*
X0271033Y0334553D01*
X0270947Y0334570D01*
X0270861Y0334583D01*
X0270774Y0334592D01*
X0270687Y0334598D01*
X0270600Y0334600D01*
X0257600Y0334600D01*
X0257513Y0334598D01*
X0257426Y0334592D01*
X0257339Y0334583D01*
X0257253Y0334570D01*
X0257167Y0334553D01*
X0257082Y0334532D01*
X0256999Y0334507D01*
X0256916Y0334479D01*
X0256835Y0334448D01*
X0256755Y0334413D01*
X0256677Y0334374D01*
X0256600Y0334332D01*
X0256525Y0334287D01*
X0256453Y0334238D01*
X0256382Y0334187D01*
X0256314Y0334132D01*
X0256249Y0334075D01*
X0256186Y0334014D01*
X0256125Y0333951D01*
X0256068Y0333886D01*
X0256013Y0333818D01*
X0255962Y0333747D01*
X0255913Y0333675D01*
X0255868Y0333600D01*
X0255826Y0333523D01*
X0255787Y0333445D01*
X0255752Y0333365D01*
X0255721Y0333284D01*
X0255693Y0333201D01*
X0255668Y0333118D01*
X0255647Y0333033D01*
X0255630Y0332947D01*
X0255617Y0332861D01*
X0255608Y0332774D01*
X0255602Y0332687D01*
X0255600Y0332600D01*
X0255600Y0327600D01*
X0255602Y0327513D01*
X0255608Y0327426D01*
X0255617Y0327339D01*
X0255630Y0327253D01*
X0255647Y0327167D01*
X0255668Y0327082D01*
X0255693Y0326999D01*
X0255721Y0326916D01*
X0255752Y0326835D01*
X0255787Y0326755D01*
X0255826Y0326677D01*
X0255868Y0326600D01*
X0255913Y0326525D01*
X0255962Y0326453D01*
X0256013Y0326382D01*
X0256068Y0326314D01*
X0256125Y0326249D01*
X0256186Y0326186D01*
X0256249Y0326125D01*
X0256314Y0326068D01*
X0256382Y0326013D01*
X0256453Y0325962D01*
X0256525Y0325913D01*
X0256600Y0325868D01*
X0256677Y0325826D01*
X0256755Y0325787D01*
X0256835Y0325752D01*
X0256916Y0325721D01*
X0256999Y0325693D01*
X0257082Y0325668D01*
X0257167Y0325647D01*
X0257253Y0325630D01*
X0257339Y0325617D01*
X0257426Y0325608D01*
X0257513Y0325602D01*
X0257600Y0325600D01*
X0270600Y0325600D01*
X0270687Y0325602D01*
X0270774Y0325608D01*
X0270861Y0325617D01*
X0270947Y0325630D01*
X0271033Y0325647D01*
X0271118Y0325668D01*
X0271201Y0325693D01*
X0271284Y0325721D01*
X0271365Y0325752D01*
X0271445Y0325787D01*
X0271523Y0325826D01*
X0271600Y0325868D01*
X0271675Y0325913D01*
X0271747Y0325962D01*
X0271818Y0326013D01*
X0271886Y0326068D01*
X0271951Y0326125D01*
X0272014Y0326186D01*
X0272075Y0326249D01*
X0272132Y0326314D01*
X0272187Y0326382D01*
X0272238Y0326453D01*
X0272287Y0326525D01*
X0272332Y0326600D01*
X0272374Y0326677D01*
X0272413Y0326755D01*
X0272448Y0326835D01*
X0272479Y0326916D01*
X0272507Y0326999D01*
X0272532Y0327082D01*
X0272553Y0327167D01*
X0272570Y0327253D01*
X0272583Y0327339D01*
X0272592Y0327426D01*
X0272598Y0327513D01*
X0272600Y0327600D01*
X0273600Y0335550D02*
X0271100Y0338050D01*
X0271100Y0343050D01*
X0273600Y0345550D01*
X0271100Y0348050D01*
X0271100Y0353050D01*
X0273600Y0355550D01*
X0278600Y0355550D01*
X0281100Y0353050D01*
X0281100Y0348050D01*
X0278600Y0345550D01*
X0281100Y0343050D01*
X0281100Y0338050D01*
X0278600Y0335550D01*
X0273600Y0335550D01*
X0273600Y0345550D02*
X0278600Y0345550D01*
X0252750Y0344050D02*
X0252750Y0342550D01*
X0252748Y0342490D01*
X0252743Y0342429D01*
X0252734Y0342370D01*
X0252721Y0342311D01*
X0252705Y0342252D01*
X0252685Y0342195D01*
X0252662Y0342140D01*
X0252635Y0342085D01*
X0252606Y0342033D01*
X0252573Y0341982D01*
X0252537Y0341933D01*
X0252499Y0341887D01*
X0252457Y0341843D01*
X0252413Y0341801D01*
X0252367Y0341763D01*
X0252318Y0341727D01*
X0252267Y0341694D01*
X0252215Y0341665D01*
X0252160Y0341638D01*
X0252105Y0341615D01*
X0252048Y0341595D01*
X0251989Y0341579D01*
X0251930Y0341566D01*
X0251871Y0341557D01*
X0251810Y0341552D01*
X0251750Y0341550D01*
X0245750Y0341550D01*
X0245690Y0341552D01*
X0245629Y0341557D01*
X0245570Y0341566D01*
X0245511Y0341579D01*
X0245452Y0341595D01*
X0245395Y0341615D01*
X0245340Y0341638D01*
X0245285Y0341665D01*
X0245233Y0341694D01*
X0245182Y0341727D01*
X0245133Y0341763D01*
X0245087Y0341801D01*
X0245043Y0341843D01*
X0245001Y0341887D01*
X0244963Y0341933D01*
X0244927Y0341982D01*
X0244894Y0342033D01*
X0244865Y0342085D01*
X0244838Y0342140D01*
X0244815Y0342195D01*
X0244795Y0342252D01*
X0244779Y0342311D01*
X0244766Y0342370D01*
X0244757Y0342429D01*
X0244752Y0342490D01*
X0244750Y0342550D01*
X0244750Y0344050D01*
X0245250Y0344550D01*
X0245250Y0358550D01*
X0244750Y0359050D01*
X0244750Y0360550D01*
X0244752Y0360610D01*
X0244757Y0360671D01*
X0244766Y0360730D01*
X0244779Y0360789D01*
X0244795Y0360848D01*
X0244815Y0360905D01*
X0244838Y0360960D01*
X0244865Y0361015D01*
X0244894Y0361067D01*
X0244927Y0361118D01*
X0244963Y0361167D01*
X0245001Y0361213D01*
X0245043Y0361257D01*
X0245087Y0361299D01*
X0245133Y0361337D01*
X0245182Y0361373D01*
X0245233Y0361406D01*
X0245285Y0361435D01*
X0245340Y0361462D01*
X0245395Y0361485D01*
X0245452Y0361505D01*
X0245511Y0361521D01*
X0245570Y0361534D01*
X0245629Y0361543D01*
X0245690Y0361548D01*
X0245750Y0361550D01*
X0251750Y0361550D01*
X0251810Y0361548D01*
X0251871Y0361543D01*
X0251930Y0361534D01*
X0251989Y0361521D01*
X0252048Y0361505D01*
X0252105Y0361485D01*
X0252160Y0361462D01*
X0252215Y0361435D01*
X0252267Y0361406D01*
X0252318Y0361373D01*
X0252367Y0361337D01*
X0252413Y0361299D01*
X0252457Y0361257D01*
X0252499Y0361213D01*
X0252537Y0361167D01*
X0252573Y0361118D01*
X0252606Y0361067D01*
X0252635Y0361015D01*
X0252662Y0360960D01*
X0252685Y0360905D01*
X0252705Y0360848D01*
X0252721Y0360789D01*
X0252734Y0360730D01*
X0252743Y0360671D01*
X0252748Y0360610D01*
X0252750Y0360550D01*
X0252750Y0359050D01*
X0252250Y0358550D01*
X0252250Y0344550D01*
X0252750Y0344050D01*
X0243550Y0344050D02*
X0243550Y0342550D01*
X0243548Y0342490D01*
X0243543Y0342429D01*
X0243534Y0342370D01*
X0243521Y0342311D01*
X0243505Y0342252D01*
X0243485Y0342195D01*
X0243462Y0342140D01*
X0243435Y0342085D01*
X0243406Y0342033D01*
X0243373Y0341982D01*
X0243337Y0341933D01*
X0243299Y0341887D01*
X0243257Y0341843D01*
X0243213Y0341801D01*
X0243167Y0341763D01*
X0243118Y0341727D01*
X0243067Y0341694D01*
X0243015Y0341665D01*
X0242960Y0341638D01*
X0242905Y0341615D01*
X0242848Y0341595D01*
X0242789Y0341579D01*
X0242730Y0341566D01*
X0242671Y0341557D01*
X0242610Y0341552D01*
X0242550Y0341550D01*
X0236550Y0341550D01*
X0236490Y0341552D01*
X0236429Y0341557D01*
X0236370Y0341566D01*
X0236311Y0341579D01*
X0236252Y0341595D01*
X0236195Y0341615D01*
X0236140Y0341638D01*
X0236085Y0341665D01*
X0236033Y0341694D01*
X0235982Y0341727D01*
X0235933Y0341763D01*
X0235887Y0341801D01*
X0235843Y0341843D01*
X0235801Y0341887D01*
X0235763Y0341933D01*
X0235727Y0341982D01*
X0235694Y0342033D01*
X0235665Y0342085D01*
X0235638Y0342140D01*
X0235615Y0342195D01*
X0235595Y0342252D01*
X0235579Y0342311D01*
X0235566Y0342370D01*
X0235557Y0342429D01*
X0235552Y0342490D01*
X0235550Y0342550D01*
X0235550Y0344050D01*
X0236050Y0344550D01*
X0236050Y0358550D01*
X0235550Y0359050D01*
X0235550Y0360550D01*
X0235552Y0360610D01*
X0235557Y0360671D01*
X0235566Y0360730D01*
X0235579Y0360789D01*
X0235595Y0360848D01*
X0235615Y0360905D01*
X0235638Y0360960D01*
X0235665Y0361015D01*
X0235694Y0361067D01*
X0235727Y0361118D01*
X0235763Y0361167D01*
X0235801Y0361213D01*
X0235843Y0361257D01*
X0235887Y0361299D01*
X0235933Y0361337D01*
X0235982Y0361373D01*
X0236033Y0361406D01*
X0236085Y0361435D01*
X0236140Y0361462D01*
X0236195Y0361485D01*
X0236252Y0361505D01*
X0236311Y0361521D01*
X0236370Y0361534D01*
X0236429Y0361543D01*
X0236490Y0361548D01*
X0236550Y0361550D01*
X0242550Y0361550D01*
X0242610Y0361548D01*
X0242671Y0361543D01*
X0242730Y0361534D01*
X0242789Y0361521D01*
X0242848Y0361505D01*
X0242905Y0361485D01*
X0242960Y0361462D01*
X0243015Y0361435D01*
X0243067Y0361406D01*
X0243118Y0361373D01*
X0243167Y0361337D01*
X0243213Y0361299D01*
X0243257Y0361257D01*
X0243299Y0361213D01*
X0243337Y0361167D01*
X0243373Y0361118D01*
X0243406Y0361067D01*
X0243435Y0361015D01*
X0243462Y0360960D01*
X0243485Y0360905D01*
X0243505Y0360848D01*
X0243521Y0360789D01*
X0243534Y0360730D01*
X0243543Y0360671D01*
X0243548Y0360610D01*
X0243550Y0360550D01*
X0243550Y0359050D01*
X0243050Y0358550D01*
X0243050Y0344550D01*
X0243550Y0344050D01*
X0234350Y0344050D02*
X0234350Y0342550D01*
X0234348Y0342490D01*
X0234343Y0342429D01*
X0234334Y0342370D01*
X0234321Y0342311D01*
X0234305Y0342252D01*
X0234285Y0342195D01*
X0234262Y0342140D01*
X0234235Y0342085D01*
X0234206Y0342033D01*
X0234173Y0341982D01*
X0234137Y0341933D01*
X0234099Y0341887D01*
X0234057Y0341843D01*
X0234013Y0341801D01*
X0233967Y0341763D01*
X0233918Y0341727D01*
X0233867Y0341694D01*
X0233815Y0341665D01*
X0233760Y0341638D01*
X0233705Y0341615D01*
X0233648Y0341595D01*
X0233589Y0341579D01*
X0233530Y0341566D01*
X0233471Y0341557D01*
X0233410Y0341552D01*
X0233350Y0341550D01*
X0227350Y0341550D01*
X0227290Y0341552D01*
X0227229Y0341557D01*
X0227170Y0341566D01*
X0227111Y0341579D01*
X0227052Y0341595D01*
X0226995Y0341615D01*
X0226940Y0341638D01*
X0226885Y0341665D01*
X0226833Y0341694D01*
X0226782Y0341727D01*
X0226733Y0341763D01*
X0226687Y0341801D01*
X0226643Y0341843D01*
X0226601Y0341887D01*
X0226563Y0341933D01*
X0226527Y0341982D01*
X0226494Y0342033D01*
X0226465Y0342085D01*
X0226438Y0342140D01*
X0226415Y0342195D01*
X0226395Y0342252D01*
X0226379Y0342311D01*
X0226366Y0342370D01*
X0226357Y0342429D01*
X0226352Y0342490D01*
X0226350Y0342550D01*
X0226350Y0344050D01*
X0226850Y0344550D01*
X0226850Y0358550D01*
X0226350Y0359050D01*
X0226350Y0360550D01*
X0226352Y0360610D01*
X0226357Y0360671D01*
X0226366Y0360730D01*
X0226379Y0360789D01*
X0226395Y0360848D01*
X0226415Y0360905D01*
X0226438Y0360960D01*
X0226465Y0361015D01*
X0226494Y0361067D01*
X0226527Y0361118D01*
X0226563Y0361167D01*
X0226601Y0361213D01*
X0226643Y0361257D01*
X0226687Y0361299D01*
X0226733Y0361337D01*
X0226782Y0361373D01*
X0226833Y0361406D01*
X0226885Y0361435D01*
X0226940Y0361462D01*
X0226995Y0361485D01*
X0227052Y0361505D01*
X0227111Y0361521D01*
X0227170Y0361534D01*
X0227229Y0361543D01*
X0227290Y0361548D01*
X0227350Y0361550D01*
X0233350Y0361550D01*
X0233410Y0361548D01*
X0233471Y0361543D01*
X0233530Y0361534D01*
X0233589Y0361521D01*
X0233648Y0361505D01*
X0233705Y0361485D01*
X0233760Y0361462D01*
X0233815Y0361435D01*
X0233867Y0361406D01*
X0233918Y0361373D01*
X0233967Y0361337D01*
X0234013Y0361299D01*
X0234057Y0361257D01*
X0234099Y0361213D01*
X0234137Y0361167D01*
X0234173Y0361118D01*
X0234206Y0361067D01*
X0234235Y0361015D01*
X0234262Y0360960D01*
X0234285Y0360905D01*
X0234305Y0360848D01*
X0234321Y0360789D01*
X0234334Y0360730D01*
X0234343Y0360671D01*
X0234348Y0360610D01*
X0234350Y0360550D01*
X0234350Y0359050D01*
X0233850Y0358550D01*
X0233850Y0344550D01*
X0234350Y0344050D01*
X0225050Y0344100D02*
X0225050Y0342600D01*
X0225048Y0342540D01*
X0225043Y0342479D01*
X0225034Y0342420D01*
X0225021Y0342361D01*
X0225005Y0342302D01*
X0224985Y0342245D01*
X0224962Y0342190D01*
X0224935Y0342135D01*
X0224906Y0342083D01*
X0224873Y0342032D01*
X0224837Y0341983D01*
X0224799Y0341937D01*
X0224757Y0341893D01*
X0224713Y0341851D01*
X0224667Y0341813D01*
X0224618Y0341777D01*
X0224567Y0341744D01*
X0224515Y0341715D01*
X0224460Y0341688D01*
X0224405Y0341665D01*
X0224348Y0341645D01*
X0224289Y0341629D01*
X0224230Y0341616D01*
X0224171Y0341607D01*
X0224110Y0341602D01*
X0224050Y0341600D01*
X0218050Y0341600D01*
X0217990Y0341602D01*
X0217929Y0341607D01*
X0217870Y0341616D01*
X0217811Y0341629D01*
X0217752Y0341645D01*
X0217695Y0341665D01*
X0217640Y0341688D01*
X0217585Y0341715D01*
X0217533Y0341744D01*
X0217482Y0341777D01*
X0217433Y0341813D01*
X0217387Y0341851D01*
X0217343Y0341893D01*
X0217301Y0341937D01*
X0217263Y0341983D01*
X0217227Y0342032D01*
X0217194Y0342083D01*
X0217165Y0342135D01*
X0217138Y0342190D01*
X0217115Y0342245D01*
X0217095Y0342302D01*
X0217079Y0342361D01*
X0217066Y0342420D01*
X0217057Y0342479D01*
X0217052Y0342540D01*
X0217050Y0342600D01*
X0217050Y0344100D01*
X0217550Y0344600D01*
X0217550Y0358600D01*
X0217050Y0359100D01*
X0217050Y0360600D01*
X0217052Y0360660D01*
X0217057Y0360721D01*
X0217066Y0360780D01*
X0217079Y0360839D01*
X0217095Y0360898D01*
X0217115Y0360955D01*
X0217138Y0361010D01*
X0217165Y0361065D01*
X0217194Y0361117D01*
X0217227Y0361168D01*
X0217263Y0361217D01*
X0217301Y0361263D01*
X0217343Y0361307D01*
X0217387Y0361349D01*
X0217433Y0361387D01*
X0217482Y0361423D01*
X0217533Y0361456D01*
X0217585Y0361485D01*
X0217640Y0361512D01*
X0217695Y0361535D01*
X0217752Y0361555D01*
X0217811Y0361571D01*
X0217870Y0361584D01*
X0217929Y0361593D01*
X0217990Y0361598D01*
X0218050Y0361600D01*
X0224050Y0361600D01*
X0224110Y0361598D01*
X0224171Y0361593D01*
X0224230Y0361584D01*
X0224289Y0361571D01*
X0224348Y0361555D01*
X0224405Y0361535D01*
X0224460Y0361512D01*
X0224515Y0361485D01*
X0224567Y0361456D01*
X0224618Y0361423D01*
X0224667Y0361387D01*
X0224713Y0361349D01*
X0224757Y0361307D01*
X0224799Y0361263D01*
X0224837Y0361217D01*
X0224873Y0361168D01*
X0224906Y0361117D01*
X0224935Y0361065D01*
X0224962Y0361010D01*
X0224985Y0360955D01*
X0225005Y0360898D01*
X0225021Y0360839D01*
X0225034Y0360780D01*
X0225043Y0360721D01*
X0225048Y0360660D01*
X0225050Y0360600D01*
X0225050Y0359100D01*
X0224550Y0358600D01*
X0224550Y0344600D01*
X0225050Y0344100D01*
X0206300Y0322700D02*
X0206300Y0269700D01*
X0066300Y0269700D01*
X0066300Y0292200D01*
X0066426Y0292202D01*
X0066551Y0292208D01*
X0066676Y0292218D01*
X0066801Y0292232D01*
X0066926Y0292249D01*
X0067050Y0292271D01*
X0067173Y0292296D01*
X0067295Y0292326D01*
X0067416Y0292359D01*
X0067536Y0292396D01*
X0067655Y0292436D01*
X0067772Y0292481D01*
X0067889Y0292529D01*
X0068003Y0292581D01*
X0068116Y0292636D01*
X0068227Y0292695D01*
X0068336Y0292757D01*
X0068443Y0292823D01*
X0068548Y0292892D01*
X0068651Y0292964D01*
X0068752Y0293039D01*
X0068850Y0293118D01*
X0068945Y0293200D01*
X0069038Y0293284D01*
X0069128Y0293372D01*
X0069216Y0293462D01*
X0069300Y0293555D01*
X0069382Y0293650D01*
X0069461Y0293748D01*
X0069536Y0293849D01*
X0069608Y0293952D01*
X0069677Y0294057D01*
X0069743Y0294164D01*
X0069805Y0294273D01*
X0069864Y0294384D01*
X0069919Y0294497D01*
X0069971Y0294611D01*
X0070019Y0294728D01*
X0070064Y0294845D01*
X0070104Y0294964D01*
X0070141Y0295084D01*
X0070174Y0295205D01*
X0070204Y0295327D01*
X0070229Y0295450D01*
X0070251Y0295574D01*
X0070268Y0295699D01*
X0070282Y0295824D01*
X0070292Y0295949D01*
X0070298Y0296074D01*
X0070300Y0296200D01*
X0070298Y0296326D01*
X0070292Y0296451D01*
X0070282Y0296576D01*
X0070268Y0296701D01*
X0070251Y0296826D01*
X0070229Y0296950D01*
X0070204Y0297073D01*
X0070174Y0297195D01*
X0070141Y0297316D01*
X0070104Y0297436D01*
X0070064Y0297555D01*
X0070019Y0297672D01*
X0069971Y0297789D01*
X0069919Y0297903D01*
X0069864Y0298016D01*
X0069805Y0298127D01*
X0069743Y0298236D01*
X0069677Y0298343D01*
X0069608Y0298448D01*
X0069536Y0298551D01*
X0069461Y0298652D01*
X0069382Y0298750D01*
X0069300Y0298845D01*
X0069216Y0298938D01*
X0069128Y0299028D01*
X0069038Y0299116D01*
X0068945Y0299200D01*
X0068850Y0299282D01*
X0068752Y0299361D01*
X0068651Y0299436D01*
X0068548Y0299508D01*
X0068443Y0299577D01*
X0068336Y0299643D01*
X0068227Y0299705D01*
X0068116Y0299764D01*
X0068003Y0299819D01*
X0067889Y0299871D01*
X0067772Y0299919D01*
X0067655Y0299964D01*
X0067536Y0300004D01*
X0067416Y0300041D01*
X0067295Y0300074D01*
X0067173Y0300104D01*
X0067050Y0300129D01*
X0066926Y0300151D01*
X0066801Y0300168D01*
X0066676Y0300182D01*
X0066551Y0300192D01*
X0066426Y0300198D01*
X0066300Y0300200D01*
X0066300Y0322700D01*
X0206300Y0322700D01*
X0186600Y0341600D02*
X0180600Y0341600D01*
X0180540Y0341602D01*
X0180479Y0341607D01*
X0180420Y0341616D01*
X0180361Y0341629D01*
X0180302Y0341645D01*
X0180245Y0341665D01*
X0180190Y0341688D01*
X0180135Y0341715D01*
X0180083Y0341744D01*
X0180032Y0341777D01*
X0179983Y0341813D01*
X0179937Y0341851D01*
X0179893Y0341893D01*
X0179851Y0341937D01*
X0179813Y0341983D01*
X0179777Y0342032D01*
X0179744Y0342083D01*
X0179715Y0342135D01*
X0179688Y0342190D01*
X0179665Y0342245D01*
X0179645Y0342302D01*
X0179629Y0342361D01*
X0179616Y0342420D01*
X0179607Y0342479D01*
X0179602Y0342540D01*
X0179600Y0342600D01*
X0179600Y0344100D01*
X0180100Y0344600D01*
X0180100Y0358600D01*
X0179600Y0359100D01*
X0179600Y0360600D01*
X0179602Y0360660D01*
X0179607Y0360721D01*
X0179616Y0360780D01*
X0179629Y0360839D01*
X0179645Y0360898D01*
X0179665Y0360955D01*
X0179688Y0361010D01*
X0179715Y0361065D01*
X0179744Y0361117D01*
X0179777Y0361168D01*
X0179813Y0361217D01*
X0179851Y0361263D01*
X0179893Y0361307D01*
X0179937Y0361349D01*
X0179983Y0361387D01*
X0180032Y0361423D01*
X0180083Y0361456D01*
X0180135Y0361485D01*
X0180190Y0361512D01*
X0180245Y0361535D01*
X0180302Y0361555D01*
X0180361Y0361571D01*
X0180420Y0361584D01*
X0180479Y0361593D01*
X0180540Y0361598D01*
X0180600Y0361600D01*
X0186600Y0361600D01*
X0186660Y0361598D01*
X0186721Y0361593D01*
X0186780Y0361584D01*
X0186839Y0361571D01*
X0186898Y0361555D01*
X0186955Y0361535D01*
X0187010Y0361512D01*
X0187065Y0361485D01*
X0187117Y0361456D01*
X0187168Y0361423D01*
X0187217Y0361387D01*
X0187263Y0361349D01*
X0187307Y0361307D01*
X0187349Y0361263D01*
X0187387Y0361217D01*
X0187423Y0361168D01*
X0187456Y0361117D01*
X0187485Y0361065D01*
X0187512Y0361010D01*
X0187535Y0360955D01*
X0187555Y0360898D01*
X0187571Y0360839D01*
X0187584Y0360780D01*
X0187593Y0360721D01*
X0187598Y0360660D01*
X0187600Y0360600D01*
X0187600Y0359100D01*
X0187100Y0358600D01*
X0187100Y0344600D01*
X0187600Y0344100D01*
X0187600Y0342600D01*
X0187598Y0342540D01*
X0187593Y0342479D01*
X0187584Y0342420D01*
X0187571Y0342361D01*
X0187555Y0342302D01*
X0187535Y0342245D01*
X0187512Y0342190D01*
X0187485Y0342135D01*
X0187456Y0342083D01*
X0187423Y0342032D01*
X0187387Y0341983D01*
X0187349Y0341937D01*
X0187307Y0341893D01*
X0187263Y0341851D01*
X0187217Y0341813D01*
X0187168Y0341777D01*
X0187117Y0341744D01*
X0187065Y0341715D01*
X0187010Y0341688D01*
X0186955Y0341665D01*
X0186898Y0341645D01*
X0186839Y0341629D01*
X0186780Y0341616D01*
X0186721Y0341607D01*
X0186660Y0341602D01*
X0186600Y0341600D01*
X0178300Y0338450D02*
X0178300Y0351450D01*
X0178298Y0351537D01*
X0178292Y0351624D01*
X0178283Y0351711D01*
X0178270Y0351797D01*
X0178253Y0351883D01*
X0178232Y0351968D01*
X0178207Y0352051D01*
X0178179Y0352134D01*
X0178148Y0352215D01*
X0178113Y0352295D01*
X0178074Y0352373D01*
X0178032Y0352450D01*
X0177987Y0352525D01*
X0177938Y0352597D01*
X0177887Y0352668D01*
X0177832Y0352736D01*
X0177775Y0352801D01*
X0177714Y0352864D01*
X0177651Y0352925D01*
X0177586Y0352982D01*
X0177518Y0353037D01*
X0177447Y0353088D01*
X0177375Y0353137D01*
X0177300Y0353182D01*
X0177223Y0353224D01*
X0177145Y0353263D01*
X0177065Y0353298D01*
X0176984Y0353329D01*
X0176901Y0353357D01*
X0176818Y0353382D01*
X0176733Y0353403D01*
X0176647Y0353420D01*
X0176561Y0353433D01*
X0176474Y0353442D01*
X0176387Y0353448D01*
X0176300Y0353450D01*
X0171300Y0353450D01*
X0171213Y0353448D01*
X0171126Y0353442D01*
X0171039Y0353433D01*
X0170953Y0353420D01*
X0170867Y0353403D01*
X0170782Y0353382D01*
X0170699Y0353357D01*
X0170616Y0353329D01*
X0170535Y0353298D01*
X0170455Y0353263D01*
X0170377Y0353224D01*
X0170300Y0353182D01*
X0170225Y0353137D01*
X0170153Y0353088D01*
X0170082Y0353037D01*
X0170014Y0352982D01*
X0169949Y0352925D01*
X0169886Y0352864D01*
X0169825Y0352801D01*
X0169768Y0352736D01*
X0169713Y0352668D01*
X0169662Y0352597D01*
X0169613Y0352525D01*
X0169568Y0352450D01*
X0169526Y0352373D01*
X0169487Y0352295D01*
X0169452Y0352215D01*
X0169421Y0352134D01*
X0169393Y0352051D01*
X0169368Y0351968D01*
X0169347Y0351883D01*
X0169330Y0351797D01*
X0169317Y0351711D01*
X0169308Y0351624D01*
X0169302Y0351537D01*
X0169300Y0351450D01*
X0169300Y0338450D01*
X0169302Y0338363D01*
X0169308Y0338276D01*
X0169317Y0338189D01*
X0169330Y0338103D01*
X0169347Y0338017D01*
X0169368Y0337932D01*
X0169393Y0337849D01*
X0169421Y0337766D01*
X0169452Y0337685D01*
X0169487Y0337605D01*
X0169526Y0337527D01*
X0169568Y0337450D01*
X0169613Y0337375D01*
X0169662Y0337303D01*
X0169713Y0337232D01*
X0169768Y0337164D01*
X0169825Y0337099D01*
X0169886Y0337036D01*
X0169949Y0336975D01*
X0170014Y0336918D01*
X0170082Y0336863D01*
X0170153Y0336812D01*
X0170225Y0336763D01*
X0170300Y0336718D01*
X0170377Y0336676D01*
X0170455Y0336637D01*
X0170535Y0336602D01*
X0170616Y0336571D01*
X0170699Y0336543D01*
X0170782Y0336518D01*
X0170867Y0336497D01*
X0170953Y0336480D01*
X0171039Y0336467D01*
X0171126Y0336458D01*
X0171213Y0336452D01*
X0171300Y0336450D01*
X0176300Y0336450D01*
X0176387Y0336452D01*
X0176474Y0336458D01*
X0176561Y0336467D01*
X0176647Y0336480D01*
X0176733Y0336497D01*
X0176818Y0336518D01*
X0176901Y0336543D01*
X0176984Y0336571D01*
X0177065Y0336602D01*
X0177145Y0336637D01*
X0177223Y0336676D01*
X0177300Y0336718D01*
X0177375Y0336763D01*
X0177447Y0336812D01*
X0177518Y0336863D01*
X0177586Y0336918D01*
X0177651Y0336975D01*
X0177714Y0337036D01*
X0177775Y0337099D01*
X0177832Y0337164D01*
X0177887Y0337232D01*
X0177938Y0337303D01*
X0177987Y0337375D01*
X0178032Y0337450D01*
X0178074Y0337527D01*
X0178113Y0337605D01*
X0178148Y0337685D01*
X0178179Y0337766D01*
X0178207Y0337849D01*
X0178232Y0337932D01*
X0178253Y0338017D01*
X0178270Y0338103D01*
X0178283Y0338189D01*
X0178292Y0338276D01*
X0178298Y0338363D01*
X0178300Y0338450D01*
X0166300Y0342200D02*
X0166300Y0365200D01*
X0086300Y0365200D01*
X0086300Y0357700D01*
X0083300Y0357200D02*
X0083300Y0370200D01*
X0083298Y0370287D01*
X0083292Y0370374D01*
X0083283Y0370461D01*
X0083270Y0370547D01*
X0083253Y0370633D01*
X0083232Y0370718D01*
X0083207Y0370801D01*
X0083179Y0370884D01*
X0083148Y0370965D01*
X0083113Y0371045D01*
X0083074Y0371123D01*
X0083032Y0371200D01*
X0082987Y0371275D01*
X0082938Y0371347D01*
X0082887Y0371418D01*
X0082832Y0371486D01*
X0082775Y0371551D01*
X0082714Y0371614D01*
X0082651Y0371675D01*
X0082586Y0371732D01*
X0082518Y0371787D01*
X0082447Y0371838D01*
X0082375Y0371887D01*
X0082300Y0371932D01*
X0082223Y0371974D01*
X0082145Y0372013D01*
X0082065Y0372048D01*
X0081984Y0372079D01*
X0081901Y0372107D01*
X0081818Y0372132D01*
X0081733Y0372153D01*
X0081647Y0372170D01*
X0081561Y0372183D01*
X0081474Y0372192D01*
X0081387Y0372198D01*
X0081300Y0372200D01*
X0076300Y0372200D01*
X0076213Y0372198D01*
X0076126Y0372192D01*
X0076039Y0372183D01*
X0075953Y0372170D01*
X0075867Y0372153D01*
X0075782Y0372132D01*
X0075699Y0372107D01*
X0075616Y0372079D01*
X0075535Y0372048D01*
X0075455Y0372013D01*
X0075377Y0371974D01*
X0075300Y0371932D01*
X0075225Y0371887D01*
X0075153Y0371838D01*
X0075082Y0371787D01*
X0075014Y0371732D01*
X0074949Y0371675D01*
X0074886Y0371614D01*
X0074825Y0371551D01*
X0074768Y0371486D01*
X0074713Y0371418D01*
X0074662Y0371347D01*
X0074613Y0371275D01*
X0074568Y0371200D01*
X0074526Y0371123D01*
X0074487Y0371045D01*
X0074452Y0370965D01*
X0074421Y0370884D01*
X0074393Y0370801D01*
X0074368Y0370718D01*
X0074347Y0370633D01*
X0074330Y0370547D01*
X0074317Y0370461D01*
X0074308Y0370374D01*
X0074302Y0370287D01*
X0074300Y0370200D01*
X0074300Y0357200D01*
X0074302Y0357113D01*
X0074308Y0357026D01*
X0074317Y0356939D01*
X0074330Y0356853D01*
X0074347Y0356767D01*
X0074368Y0356682D01*
X0074393Y0356599D01*
X0074421Y0356516D01*
X0074452Y0356435D01*
X0074487Y0356355D01*
X0074526Y0356277D01*
X0074568Y0356200D01*
X0074613Y0356125D01*
X0074662Y0356053D01*
X0074713Y0355982D01*
X0074768Y0355914D01*
X0074825Y0355849D01*
X0074886Y0355786D01*
X0074949Y0355725D01*
X0075014Y0355668D01*
X0075082Y0355613D01*
X0075153Y0355562D01*
X0075225Y0355513D01*
X0075300Y0355468D01*
X0075377Y0355426D01*
X0075455Y0355387D01*
X0075535Y0355352D01*
X0075616Y0355321D01*
X0075699Y0355293D01*
X0075782Y0355268D01*
X0075867Y0355247D01*
X0075953Y0355230D01*
X0076039Y0355217D01*
X0076126Y0355208D01*
X0076213Y0355202D01*
X0076300Y0355200D01*
X0081300Y0355200D01*
X0081387Y0355202D01*
X0081474Y0355208D01*
X0081561Y0355217D01*
X0081647Y0355230D01*
X0081733Y0355247D01*
X0081818Y0355268D01*
X0081901Y0355293D01*
X0081984Y0355321D01*
X0082065Y0355352D01*
X0082145Y0355387D01*
X0082223Y0355426D01*
X0082300Y0355468D01*
X0082375Y0355513D01*
X0082447Y0355562D01*
X0082518Y0355613D01*
X0082586Y0355668D01*
X0082651Y0355725D01*
X0082714Y0355786D01*
X0082775Y0355849D01*
X0082832Y0355914D01*
X0082887Y0355982D01*
X0082938Y0356053D01*
X0082987Y0356125D01*
X0083032Y0356200D01*
X0083074Y0356277D01*
X0083113Y0356355D01*
X0083148Y0356435D01*
X0083179Y0356516D01*
X0083207Y0356599D01*
X0083232Y0356682D01*
X0083253Y0356767D01*
X0083270Y0356853D01*
X0083283Y0356939D01*
X0083292Y0357026D01*
X0083298Y0357113D01*
X0083300Y0357200D01*
X0086300Y0357700D02*
X0086426Y0357698D01*
X0086551Y0357692D01*
X0086676Y0357682D01*
X0086801Y0357668D01*
X0086926Y0357651D01*
X0087050Y0357629D01*
X0087173Y0357604D01*
X0087295Y0357574D01*
X0087416Y0357541D01*
X0087536Y0357504D01*
X0087655Y0357464D01*
X0087772Y0357419D01*
X0087889Y0357371D01*
X0088003Y0357319D01*
X0088116Y0357264D01*
X0088227Y0357205D01*
X0088336Y0357143D01*
X0088443Y0357077D01*
X0088548Y0357008D01*
X0088651Y0356936D01*
X0088752Y0356861D01*
X0088850Y0356782D01*
X0088945Y0356700D01*
X0089038Y0356616D01*
X0089128Y0356528D01*
X0089216Y0356438D01*
X0089300Y0356345D01*
X0089382Y0356250D01*
X0089461Y0356152D01*
X0089536Y0356051D01*
X0089608Y0355948D01*
X0089677Y0355843D01*
X0089743Y0355736D01*
X0089805Y0355627D01*
X0089864Y0355516D01*
X0089919Y0355403D01*
X0089971Y0355289D01*
X0090019Y0355172D01*
X0090064Y0355055D01*
X0090104Y0354936D01*
X0090141Y0354816D01*
X0090174Y0354695D01*
X0090204Y0354573D01*
X0090229Y0354450D01*
X0090251Y0354326D01*
X0090268Y0354201D01*
X0090282Y0354076D01*
X0090292Y0353951D01*
X0090298Y0353826D01*
X0090300Y0353700D01*
X0090298Y0353574D01*
X0090292Y0353449D01*
X0090282Y0353324D01*
X0090268Y0353199D01*
X0090251Y0353074D01*
X0090229Y0352950D01*
X0090204Y0352827D01*
X0090174Y0352705D01*
X0090141Y0352584D01*
X0090104Y0352464D01*
X0090064Y0352345D01*
X0090019Y0352228D01*
X0089971Y0352111D01*
X0089919Y0351997D01*
X0089864Y0351884D01*
X0089805Y0351773D01*
X0089743Y0351664D01*
X0089677Y0351557D01*
X0089608Y0351452D01*
X0089536Y0351349D01*
X0089461Y0351248D01*
X0089382Y0351150D01*
X0089300Y0351055D01*
X0089216Y0350962D01*
X0089128Y0350872D01*
X0089038Y0350784D01*
X0088945Y0350700D01*
X0088850Y0350618D01*
X0088752Y0350539D01*
X0088651Y0350464D01*
X0088548Y0350392D01*
X0088443Y0350323D01*
X0088336Y0350257D01*
X0088227Y0350195D01*
X0088116Y0350136D01*
X0088003Y0350081D01*
X0087889Y0350029D01*
X0087772Y0349981D01*
X0087655Y0349936D01*
X0087536Y0349896D01*
X0087416Y0349859D01*
X0087295Y0349826D01*
X0087173Y0349796D01*
X0087050Y0349771D01*
X0086926Y0349749D01*
X0086801Y0349732D01*
X0086676Y0349718D01*
X0086551Y0349708D01*
X0086426Y0349702D01*
X0086300Y0349700D01*
X0086300Y0342200D01*
X0166300Y0342200D01*
X0092200Y0303000D02*
X0092200Y0290000D01*
X0092198Y0289913D01*
X0092192Y0289826D01*
X0092183Y0289739D01*
X0092170Y0289653D01*
X0092153Y0289567D01*
X0092132Y0289482D01*
X0092107Y0289399D01*
X0092079Y0289316D01*
X0092048Y0289235D01*
X0092013Y0289155D01*
X0091974Y0289077D01*
X0091932Y0289000D01*
X0091887Y0288925D01*
X0091838Y0288853D01*
X0091787Y0288782D01*
X0091732Y0288714D01*
X0091675Y0288649D01*
X0091614Y0288586D01*
X0091551Y0288525D01*
X0091486Y0288468D01*
X0091418Y0288413D01*
X0091347Y0288362D01*
X0091275Y0288313D01*
X0091200Y0288268D01*
X0091123Y0288226D01*
X0091045Y0288187D01*
X0090965Y0288152D01*
X0090884Y0288121D01*
X0090801Y0288093D01*
X0090718Y0288068D01*
X0090633Y0288047D01*
X0090547Y0288030D01*
X0090461Y0288017D01*
X0090374Y0288008D01*
X0090287Y0288002D01*
X0090200Y0288000D01*
X0085200Y0288000D01*
X0085113Y0288002D01*
X0085026Y0288008D01*
X0084939Y0288017D01*
X0084853Y0288030D01*
X0084767Y0288047D01*
X0084682Y0288068D01*
X0084599Y0288093D01*
X0084516Y0288121D01*
X0084435Y0288152D01*
X0084355Y0288187D01*
X0084277Y0288226D01*
X0084200Y0288268D01*
X0084125Y0288313D01*
X0084053Y0288362D01*
X0083982Y0288413D01*
X0083914Y0288468D01*
X0083849Y0288525D01*
X0083786Y0288586D01*
X0083725Y0288649D01*
X0083668Y0288714D01*
X0083613Y0288782D01*
X0083562Y0288853D01*
X0083513Y0288925D01*
X0083468Y0289000D01*
X0083426Y0289077D01*
X0083387Y0289155D01*
X0083352Y0289235D01*
X0083321Y0289316D01*
X0083293Y0289399D01*
X0083268Y0289482D01*
X0083247Y0289567D01*
X0083230Y0289653D01*
X0083217Y0289739D01*
X0083208Y0289826D01*
X0083202Y0289913D01*
X0083200Y0290000D01*
X0083200Y0303000D01*
X0083202Y0303087D01*
X0083208Y0303174D01*
X0083217Y0303261D01*
X0083230Y0303347D01*
X0083247Y0303433D01*
X0083268Y0303518D01*
X0083293Y0303601D01*
X0083321Y0303684D01*
X0083352Y0303765D01*
X0083387Y0303845D01*
X0083426Y0303923D01*
X0083468Y0304000D01*
X0083513Y0304075D01*
X0083562Y0304147D01*
X0083613Y0304218D01*
X0083668Y0304286D01*
X0083725Y0304351D01*
X0083786Y0304414D01*
X0083849Y0304475D01*
X0083914Y0304532D01*
X0083982Y0304587D01*
X0084053Y0304638D01*
X0084125Y0304687D01*
X0084200Y0304732D01*
X0084277Y0304774D01*
X0084355Y0304813D01*
X0084435Y0304848D01*
X0084516Y0304879D01*
X0084599Y0304907D01*
X0084682Y0304932D01*
X0084767Y0304953D01*
X0084853Y0304970D01*
X0084939Y0304983D01*
X0085026Y0304992D01*
X0085113Y0304998D01*
X0085200Y0305000D01*
X0090200Y0305000D01*
X0090287Y0304998D01*
X0090374Y0304992D01*
X0090461Y0304983D01*
X0090547Y0304970D01*
X0090633Y0304953D01*
X0090718Y0304932D01*
X0090801Y0304907D01*
X0090884Y0304879D01*
X0090965Y0304848D01*
X0091045Y0304813D01*
X0091123Y0304774D01*
X0091200Y0304732D01*
X0091275Y0304687D01*
X0091347Y0304638D01*
X0091418Y0304587D01*
X0091486Y0304532D01*
X0091551Y0304475D01*
X0091614Y0304414D01*
X0091675Y0304351D01*
X0091732Y0304286D01*
X0091787Y0304218D01*
X0091838Y0304147D01*
X0091887Y0304075D01*
X0091932Y0304000D01*
X0091974Y0303923D01*
X0092013Y0303845D01*
X0092048Y0303765D01*
X0092079Y0303684D01*
X0092107Y0303601D01*
X0092132Y0303518D01*
X0092153Y0303433D01*
X0092170Y0303347D01*
X0092183Y0303261D01*
X0092192Y0303174D01*
X0092198Y0303087D01*
X0092200Y0303000D01*
X0081300Y0335200D02*
X0076300Y0335200D01*
X0076213Y0335202D01*
X0076126Y0335208D01*
X0076039Y0335217D01*
X0075953Y0335230D01*
X0075867Y0335247D01*
X0075782Y0335268D01*
X0075699Y0335293D01*
X0075616Y0335321D01*
X0075535Y0335352D01*
X0075455Y0335387D01*
X0075377Y0335426D01*
X0075300Y0335468D01*
X0075225Y0335513D01*
X0075153Y0335562D01*
X0075082Y0335613D01*
X0075014Y0335668D01*
X0074949Y0335725D01*
X0074886Y0335786D01*
X0074825Y0335849D01*
X0074768Y0335914D01*
X0074713Y0335982D01*
X0074662Y0336053D01*
X0074613Y0336125D01*
X0074568Y0336200D01*
X0074526Y0336277D01*
X0074487Y0336355D01*
X0074452Y0336435D01*
X0074421Y0336516D01*
X0074393Y0336599D01*
X0074368Y0336682D01*
X0074347Y0336767D01*
X0074330Y0336853D01*
X0074317Y0336939D01*
X0074308Y0337026D01*
X0074302Y0337113D01*
X0074300Y0337200D01*
X0074300Y0350200D01*
X0074302Y0350287D01*
X0074308Y0350374D01*
X0074317Y0350461D01*
X0074330Y0350547D01*
X0074347Y0350633D01*
X0074368Y0350718D01*
X0074393Y0350801D01*
X0074421Y0350884D01*
X0074452Y0350965D01*
X0074487Y0351045D01*
X0074526Y0351123D01*
X0074568Y0351200D01*
X0074613Y0351275D01*
X0074662Y0351347D01*
X0074713Y0351418D01*
X0074768Y0351486D01*
X0074825Y0351551D01*
X0074886Y0351614D01*
X0074949Y0351675D01*
X0075014Y0351732D01*
X0075082Y0351787D01*
X0075153Y0351838D01*
X0075225Y0351887D01*
X0075300Y0351932D01*
X0075377Y0351974D01*
X0075455Y0352013D01*
X0075535Y0352048D01*
X0075616Y0352079D01*
X0075699Y0352107D01*
X0075782Y0352132D01*
X0075867Y0352153D01*
X0075953Y0352170D01*
X0076039Y0352183D01*
X0076126Y0352192D01*
X0076213Y0352198D01*
X0076300Y0352200D01*
X0081300Y0352200D01*
X0081387Y0352198D01*
X0081474Y0352192D01*
X0081561Y0352183D01*
X0081647Y0352170D01*
X0081733Y0352153D01*
X0081818Y0352132D01*
X0081901Y0352107D01*
X0081984Y0352079D01*
X0082065Y0352048D01*
X0082145Y0352013D01*
X0082223Y0351974D01*
X0082300Y0351932D01*
X0082375Y0351887D01*
X0082447Y0351838D01*
X0082518Y0351787D01*
X0082586Y0351732D01*
X0082651Y0351675D01*
X0082714Y0351614D01*
X0082775Y0351551D01*
X0082832Y0351486D01*
X0082887Y0351418D01*
X0082938Y0351347D01*
X0082987Y0351275D01*
X0083032Y0351200D01*
X0083074Y0351123D01*
X0083113Y0351045D01*
X0083148Y0350965D01*
X0083179Y0350884D01*
X0083207Y0350801D01*
X0083232Y0350718D01*
X0083253Y0350633D01*
X0083270Y0350547D01*
X0083283Y0350461D01*
X0083292Y0350374D01*
X0083298Y0350287D01*
X0083300Y0350200D01*
X0083300Y0337200D01*
X0083298Y0337113D01*
X0083292Y0337026D01*
X0083283Y0336939D01*
X0083270Y0336853D01*
X0083253Y0336767D01*
X0083232Y0336682D01*
X0083207Y0336599D01*
X0083179Y0336516D01*
X0083148Y0336435D01*
X0083113Y0336355D01*
X0083074Y0336277D01*
X0083032Y0336200D01*
X0082987Y0336125D01*
X0082938Y0336053D01*
X0082887Y0335982D01*
X0082832Y0335914D01*
X0082775Y0335849D01*
X0082714Y0335786D01*
X0082651Y0335725D01*
X0082586Y0335668D01*
X0082518Y0335613D01*
X0082447Y0335562D01*
X0082375Y0335513D01*
X0082300Y0335468D01*
X0082223Y0335426D01*
X0082145Y0335387D01*
X0082065Y0335352D01*
X0081984Y0335321D01*
X0081901Y0335293D01*
X0081818Y0335268D01*
X0081733Y0335247D01*
X0081647Y0335230D01*
X0081561Y0335217D01*
X0081474Y0335208D01*
X0081387Y0335202D01*
X0081300Y0335200D01*
X0072800Y0343300D02*
X0072800Y0344800D01*
X0072300Y0345300D01*
X0072300Y0359300D01*
X0072800Y0359800D01*
X0072800Y0361300D01*
X0072798Y0361360D01*
X0072793Y0361421D01*
X0072784Y0361480D01*
X0072771Y0361539D01*
X0072755Y0361598D01*
X0072735Y0361655D01*
X0072712Y0361710D01*
X0072685Y0361765D01*
X0072656Y0361817D01*
X0072623Y0361868D01*
X0072587Y0361917D01*
X0072549Y0361963D01*
X0072507Y0362007D01*
X0072463Y0362049D01*
X0072417Y0362087D01*
X0072368Y0362123D01*
X0072317Y0362156D01*
X0072265Y0362185D01*
X0072210Y0362212D01*
X0072155Y0362235D01*
X0072098Y0362255D01*
X0072039Y0362271D01*
X0071980Y0362284D01*
X0071921Y0362293D01*
X0071860Y0362298D01*
X0071800Y0362300D01*
X0065800Y0362300D01*
X0065740Y0362298D01*
X0065679Y0362293D01*
X0065620Y0362284D01*
X0065561Y0362271D01*
X0065502Y0362255D01*
X0065445Y0362235D01*
X0065390Y0362212D01*
X0065335Y0362185D01*
X0065283Y0362156D01*
X0065232Y0362123D01*
X0065183Y0362087D01*
X0065137Y0362049D01*
X0065093Y0362007D01*
X0065051Y0361963D01*
X0065013Y0361917D01*
X0064977Y0361868D01*
X0064944Y0361817D01*
X0064915Y0361765D01*
X0064888Y0361710D01*
X0064865Y0361655D01*
X0064845Y0361598D01*
X0064829Y0361539D01*
X0064816Y0361480D01*
X0064807Y0361421D01*
X0064802Y0361360D01*
X0064800Y0361300D01*
X0064800Y0359800D01*
X0065300Y0359300D01*
X0065300Y0345300D01*
X0064800Y0344800D01*
X0064800Y0343300D01*
X0064802Y0343240D01*
X0064807Y0343179D01*
X0064816Y0343120D01*
X0064829Y0343061D01*
X0064845Y0343002D01*
X0064865Y0342945D01*
X0064888Y0342890D01*
X0064915Y0342835D01*
X0064944Y0342783D01*
X0064977Y0342732D01*
X0065013Y0342683D01*
X0065051Y0342637D01*
X0065093Y0342593D01*
X0065137Y0342551D01*
X0065183Y0342513D01*
X0065232Y0342477D01*
X0065283Y0342444D01*
X0065335Y0342415D01*
X0065390Y0342388D01*
X0065445Y0342365D01*
X0065502Y0342345D01*
X0065561Y0342329D01*
X0065620Y0342316D01*
X0065679Y0342307D01*
X0065740Y0342302D01*
X0065800Y0342300D01*
X0071800Y0342300D01*
X0071860Y0342302D01*
X0071921Y0342307D01*
X0071980Y0342316D01*
X0072039Y0342329D01*
X0072098Y0342345D01*
X0072155Y0342365D01*
X0072210Y0342388D01*
X0072265Y0342415D01*
X0072317Y0342444D01*
X0072368Y0342477D01*
X0072417Y0342513D01*
X0072463Y0342551D01*
X0072507Y0342593D01*
X0072549Y0342637D01*
X0072587Y0342683D01*
X0072623Y0342732D01*
X0072656Y0342783D01*
X0072685Y0342835D01*
X0072712Y0342890D01*
X0072735Y0342945D01*
X0072755Y0343002D01*
X0072771Y0343061D01*
X0072784Y0343120D01*
X0072793Y0343179D01*
X0072798Y0343240D01*
X0072800Y0343300D01*
X0084000Y0232400D02*
X0089000Y0232400D01*
X0089087Y0232398D01*
X0089174Y0232392D01*
X0089261Y0232383D01*
X0089347Y0232370D01*
X0089433Y0232353D01*
X0089518Y0232332D01*
X0089601Y0232307D01*
X0089684Y0232279D01*
X0089765Y0232248D01*
X0089845Y0232213D01*
X0089923Y0232174D01*
X0090000Y0232132D01*
X0090075Y0232087D01*
X0090147Y0232038D01*
X0090218Y0231987D01*
X0090286Y0231932D01*
X0090351Y0231875D01*
X0090414Y0231814D01*
X0090475Y0231751D01*
X0090532Y0231686D01*
X0090587Y0231618D01*
X0090638Y0231547D01*
X0090687Y0231475D01*
X0090732Y0231400D01*
X0090774Y0231323D01*
X0090813Y0231245D01*
X0090848Y0231165D01*
X0090879Y0231084D01*
X0090907Y0231001D01*
X0090932Y0230918D01*
X0090953Y0230833D01*
X0090970Y0230747D01*
X0090983Y0230661D01*
X0090992Y0230574D01*
X0090998Y0230487D01*
X0091000Y0230400D01*
X0091000Y0217400D01*
X0090998Y0217313D01*
X0090992Y0217226D01*
X0090983Y0217139D01*
X0090970Y0217053D01*
X0090953Y0216967D01*
X0090932Y0216882D01*
X0090907Y0216799D01*
X0090879Y0216716D01*
X0090848Y0216635D01*
X0090813Y0216555D01*
X0090774Y0216477D01*
X0090732Y0216400D01*
X0090687Y0216325D01*
X0090638Y0216253D01*
X0090587Y0216182D01*
X0090532Y0216114D01*
X0090475Y0216049D01*
X0090414Y0215986D01*
X0090351Y0215925D01*
X0090286Y0215868D01*
X0090218Y0215813D01*
X0090147Y0215762D01*
X0090075Y0215713D01*
X0090000Y0215668D01*
X0089923Y0215626D01*
X0089845Y0215587D01*
X0089765Y0215552D01*
X0089684Y0215521D01*
X0089601Y0215493D01*
X0089518Y0215468D01*
X0089433Y0215447D01*
X0089347Y0215430D01*
X0089261Y0215417D01*
X0089174Y0215408D01*
X0089087Y0215402D01*
X0089000Y0215400D01*
X0084000Y0215400D01*
X0083913Y0215402D01*
X0083826Y0215408D01*
X0083739Y0215417D01*
X0083653Y0215430D01*
X0083567Y0215447D01*
X0083482Y0215468D01*
X0083399Y0215493D01*
X0083316Y0215521D01*
X0083235Y0215552D01*
X0083155Y0215587D01*
X0083077Y0215626D01*
X0083000Y0215668D01*
X0082925Y0215713D01*
X0082853Y0215762D01*
X0082782Y0215813D01*
X0082714Y0215868D01*
X0082649Y0215925D01*
X0082586Y0215986D01*
X0082525Y0216049D01*
X0082468Y0216114D01*
X0082413Y0216182D01*
X0082362Y0216253D01*
X0082313Y0216325D01*
X0082268Y0216400D01*
X0082226Y0216477D01*
X0082187Y0216555D01*
X0082152Y0216635D01*
X0082121Y0216716D01*
X0082093Y0216799D01*
X0082068Y0216882D01*
X0082047Y0216967D01*
X0082030Y0217053D01*
X0082017Y0217139D01*
X0082008Y0217226D01*
X0082002Y0217313D01*
X0082000Y0217400D01*
X0082000Y0230400D01*
X0082002Y0230487D01*
X0082008Y0230574D01*
X0082017Y0230661D01*
X0082030Y0230747D01*
X0082047Y0230833D01*
X0082068Y0230918D01*
X0082093Y0231001D01*
X0082121Y0231084D01*
X0082152Y0231165D01*
X0082187Y0231245D01*
X0082226Y0231323D01*
X0082268Y0231400D01*
X0082313Y0231475D01*
X0082362Y0231547D01*
X0082413Y0231618D01*
X0082468Y0231686D01*
X0082525Y0231751D01*
X0082586Y0231814D01*
X0082649Y0231875D01*
X0082714Y0231932D01*
X0082782Y0231987D01*
X0082853Y0232038D01*
X0082925Y0232087D01*
X0083000Y0232132D01*
X0083077Y0232174D01*
X0083155Y0232213D01*
X0083235Y0232248D01*
X0083316Y0232279D01*
X0083399Y0232307D01*
X0083482Y0232332D01*
X0083567Y0232353D01*
X0083653Y0232370D01*
X0083739Y0232383D01*
X0083826Y0232392D01*
X0083913Y0232398D01*
X0084000Y0232400D01*
X0307800Y0364800D02*
X0307800Y0369800D01*
X0307802Y0369887D01*
X0307808Y0369974D01*
X0307817Y0370061D01*
X0307830Y0370147D01*
X0307847Y0370233D01*
X0307868Y0370318D01*
X0307893Y0370401D01*
X0307921Y0370484D01*
X0307952Y0370565D01*
X0307987Y0370645D01*
X0308026Y0370723D01*
X0308068Y0370800D01*
X0308113Y0370875D01*
X0308162Y0370947D01*
X0308213Y0371018D01*
X0308268Y0371086D01*
X0308325Y0371151D01*
X0308386Y0371214D01*
X0308449Y0371275D01*
X0308514Y0371332D01*
X0308582Y0371387D01*
X0308653Y0371438D01*
X0308725Y0371487D01*
X0308800Y0371532D01*
X0308877Y0371574D01*
X0308955Y0371613D01*
X0309035Y0371648D01*
X0309116Y0371679D01*
X0309199Y0371707D01*
X0309282Y0371732D01*
X0309367Y0371753D01*
X0309453Y0371770D01*
X0309539Y0371783D01*
X0309626Y0371792D01*
X0309713Y0371798D01*
X0309800Y0371800D01*
X0322800Y0371800D01*
X0322887Y0371798D01*
X0322974Y0371792D01*
X0323061Y0371783D01*
X0323147Y0371770D01*
X0323233Y0371753D01*
X0323318Y0371732D01*
X0323401Y0371707D01*
X0323484Y0371679D01*
X0323565Y0371648D01*
X0323645Y0371613D01*
X0323723Y0371574D01*
X0323800Y0371532D01*
X0323875Y0371487D01*
X0323947Y0371438D01*
X0324018Y0371387D01*
X0324086Y0371332D01*
X0324151Y0371275D01*
X0324214Y0371214D01*
X0324275Y0371151D01*
X0324332Y0371086D01*
X0324387Y0371018D01*
X0324438Y0370947D01*
X0324487Y0370875D01*
X0324532Y0370800D01*
X0324574Y0370723D01*
X0324613Y0370645D01*
X0324648Y0370565D01*
X0324679Y0370484D01*
X0324707Y0370401D01*
X0324732Y0370318D01*
X0324753Y0370233D01*
X0324770Y0370147D01*
X0324783Y0370061D01*
X0324792Y0369974D01*
X0324798Y0369887D01*
X0324800Y0369800D01*
X0324800Y0364800D01*
X0324798Y0364713D01*
X0324792Y0364626D01*
X0324783Y0364539D01*
X0324770Y0364453D01*
X0324753Y0364367D01*
X0324732Y0364282D01*
X0324707Y0364199D01*
X0324679Y0364116D01*
X0324648Y0364035D01*
X0324613Y0363955D01*
X0324574Y0363877D01*
X0324532Y0363800D01*
X0324487Y0363725D01*
X0324438Y0363653D01*
X0324387Y0363582D01*
X0324332Y0363514D01*
X0324275Y0363449D01*
X0324214Y0363386D01*
X0324151Y0363325D01*
X0324086Y0363268D01*
X0324018Y0363213D01*
X0323947Y0363162D01*
X0323875Y0363113D01*
X0323800Y0363068D01*
X0323723Y0363026D01*
X0323645Y0362987D01*
X0323565Y0362952D01*
X0323484Y0362921D01*
X0323401Y0362893D01*
X0323318Y0362868D01*
X0323233Y0362847D01*
X0323147Y0362830D01*
X0323061Y0362817D01*
X0322974Y0362808D01*
X0322887Y0362802D01*
X0322800Y0362800D01*
X0309800Y0362800D01*
X0309713Y0362802D01*
X0309626Y0362808D01*
X0309539Y0362817D01*
X0309453Y0362830D01*
X0309367Y0362847D01*
X0309282Y0362868D01*
X0309199Y0362893D01*
X0309116Y0362921D01*
X0309035Y0362952D01*
X0308955Y0362987D01*
X0308877Y0363026D01*
X0308800Y0363068D01*
X0308725Y0363113D01*
X0308653Y0363162D01*
X0308582Y0363213D01*
X0308514Y0363268D01*
X0308449Y0363325D01*
X0308386Y0363386D01*
X0308325Y0363449D01*
X0308268Y0363514D01*
X0308213Y0363582D01*
X0308162Y0363653D01*
X0308113Y0363725D01*
X0308068Y0363800D01*
X0308026Y0363877D01*
X0307987Y0363955D01*
X0307952Y0364035D01*
X0307921Y0364116D01*
X0307893Y0364199D01*
X0307868Y0364282D01*
X0307847Y0364367D01*
X0307830Y0364453D01*
X0307817Y0364539D01*
X0307808Y0364626D01*
X0307802Y0364713D01*
X0307800Y0364800D01*
D14*
X0315000Y0364300D02*
X0315000Y0370300D01*
X0317500Y0370300D02*
X0317500Y0364300D01*
X0358750Y0364450D02*
X0358750Y0370450D01*
X0361250Y0370450D02*
X0361250Y0364450D01*
X0402500Y0364450D02*
X0402500Y0370450D01*
X0405000Y0370450D02*
X0405000Y0364450D01*
X0405000Y0286700D02*
X0405000Y0280700D01*
X0402500Y0280700D02*
X0402500Y0286700D01*
X0361250Y0276700D02*
X0361250Y0270700D01*
X0358750Y0270700D02*
X0358750Y0276700D01*
X0317500Y0277900D02*
X0317500Y0271900D01*
X0315000Y0271900D02*
X0315000Y0277900D01*
X0265300Y0327100D02*
X0265300Y0333100D01*
X0262800Y0333100D02*
X0262800Y0327100D01*
X0176800Y0343650D02*
X0170800Y0343650D01*
X0170800Y0346150D02*
X0176800Y0346150D01*
X0090700Y0297700D02*
X0084700Y0297700D01*
X0084700Y0295200D02*
X0090700Y0295200D01*
X0081800Y0342400D02*
X0075800Y0342400D01*
X0075800Y0344900D02*
X0081800Y0344900D01*
X0081800Y0362500D02*
X0075800Y0362500D01*
X0075800Y0365000D02*
X0081800Y0365000D01*
X0083500Y0225100D02*
X0089500Y0225100D01*
X0089500Y0222600D02*
X0083500Y0222600D01*
X0315000Y0193550D02*
X0315000Y0187550D01*
X0317500Y0187550D02*
X0317500Y0193550D01*
X0358750Y0192950D02*
X0358750Y0186950D01*
X0361250Y0186950D02*
X0361250Y0192950D01*
X0402500Y0196950D02*
X0402500Y0202950D01*
X0405000Y0202950D02*
X0405000Y0196950D01*
X0394450Y0111700D02*
X0394450Y0105700D01*
X0391950Y0105700D02*
X0391950Y0111700D01*
D15*
X0249250Y0210534D02*
X0249250Y0213103D01*
X0247966Y0214388D01*
X0246681Y0214388D01*
X0245397Y0213103D01*
X0245397Y0209250D01*
X0247966Y0209250D01*
X0249250Y0210534D01*
X0245397Y0209250D02*
X0242828Y0211819D01*
X0241543Y0214388D01*
X0241543Y0217169D02*
X0245397Y0217169D01*
X0244112Y0219738D01*
X0244112Y0221022D01*
X0245397Y0222306D01*
X0247966Y0222306D01*
X0249250Y0221022D01*
X0249250Y0218453D01*
X0247966Y0217169D01*
X0241543Y0217169D02*
X0241543Y0222306D01*
X0242828Y0225088D02*
X0241543Y0226372D01*
X0241543Y0228941D01*
X0242828Y0230225D01*
X0244112Y0230225D01*
X0249250Y0225088D01*
X0249250Y0230225D01*
X0249250Y0233006D02*
X0244112Y0238144D01*
X0242828Y0238144D01*
X0241543Y0236860D01*
X0241543Y0234291D01*
X0242828Y0233006D01*
X0249250Y0233006D02*
X0249250Y0238144D01*
X0109098Y0150711D02*
X0106529Y0153280D01*
X0109098Y0150711D02*
X0109098Y0148142D01*
X0106529Y0145573D01*
X0102464Y0145573D02*
X0102464Y0153280D01*
X0098611Y0149427D01*
X0103748Y0149427D01*
X0095829Y0151995D02*
X0094545Y0153280D01*
X0091976Y0153280D01*
X0090692Y0151995D01*
X0090692Y0146858D01*
X0091976Y0145573D01*
X0094545Y0145573D01*
X0095829Y0146858D01*
X0087911Y0146858D02*
X0087911Y0153280D01*
X0082773Y0153280D02*
X0082773Y0146858D01*
X0084057Y0145573D01*
X0086626Y0145573D01*
X0087911Y0146858D01*
X0080063Y0145573D02*
X0077494Y0148142D01*
X0077494Y0150711D01*
X0080063Y0153280D01*
X0066794Y0151995D02*
X0066794Y0150711D01*
X0061656Y0145573D01*
X0066794Y0145573D01*
X0066794Y0151995D02*
X0065510Y0153280D01*
X0062941Y0153280D01*
X0061656Y0151995D01*
X0058875Y0151995D02*
X0053738Y0146858D01*
X0055022Y0145573D01*
X0057591Y0145573D01*
X0058875Y0146858D01*
X0058875Y0151995D01*
X0057591Y0153280D01*
X0055022Y0153280D01*
X0053738Y0151995D01*
X0053738Y0146858D01*
X0050956Y0146858D02*
X0050956Y0149427D01*
X0049672Y0150711D01*
X0048388Y0150711D01*
X0045819Y0149427D01*
X0045819Y0153280D01*
X0050956Y0153280D01*
X0050956Y0146858D02*
X0049672Y0145573D01*
X0047103Y0145573D01*
X0045819Y0146858D01*
X0043038Y0146858D02*
X0043038Y0148142D01*
X0041753Y0149427D01*
X0037900Y0149427D01*
X0037900Y0146858D01*
X0039184Y0145573D01*
X0041753Y0145573D01*
X0043038Y0146858D01*
X0040469Y0151995D02*
X0037900Y0149427D01*
X0040469Y0151995D02*
X0043038Y0153280D01*
X0042738Y0062307D02*
X0040169Y0061022D01*
X0037600Y0058453D01*
X0041453Y0058453D01*
X0042738Y0057169D01*
X0042738Y0055884D01*
X0041453Y0054600D01*
X0038884Y0054600D01*
X0037600Y0055884D01*
X0037600Y0058453D01*
X0045519Y0058453D02*
X0048088Y0059738D01*
X0049372Y0059738D01*
X0050656Y0058453D01*
X0050656Y0055884D01*
X0049372Y0054600D01*
X0046803Y0054600D01*
X0045519Y0055884D01*
X0045519Y0058453D02*
X0045519Y0062307D01*
X0050656Y0062307D01*
X0053438Y0061022D02*
X0054722Y0062307D01*
X0057291Y0062307D01*
X0058575Y0061022D01*
X0058575Y0059738D01*
X0053438Y0054600D01*
X0058575Y0054600D01*
X0061356Y0054600D02*
X0066494Y0059738D01*
X0066494Y0061022D01*
X0065210Y0062307D01*
X0062641Y0062307D01*
X0061356Y0061022D01*
X0061356Y0054600D02*
X0066494Y0054600D01*
X0077194Y0057169D02*
X0077194Y0059738D01*
X0079763Y0062307D01*
X0082473Y0062307D02*
X0082473Y0055884D01*
X0083757Y0054600D01*
X0086326Y0054600D01*
X0087611Y0055884D01*
X0087611Y0062307D01*
X0090392Y0061022D02*
X0090392Y0055884D01*
X0091676Y0054600D01*
X0094245Y0054600D01*
X0095529Y0055884D01*
X0098311Y0055884D02*
X0099595Y0054600D01*
X0102164Y0054600D01*
X0103448Y0055884D01*
X0103448Y0057169D01*
X0102164Y0058453D01*
X0100879Y0058453D01*
X0102164Y0058453D02*
X0103448Y0059738D01*
X0103448Y0061022D01*
X0102164Y0062307D01*
X0099595Y0062307D01*
X0098311Y0061022D01*
X0095529Y0061022D02*
X0094245Y0062307D01*
X0091676Y0062307D01*
X0090392Y0061022D01*
X0079763Y0054600D02*
X0077194Y0057169D01*
X0106229Y0054600D02*
X0108798Y0057169D01*
X0108798Y0059738D01*
X0106229Y0062307D01*
D16*
X0122268Y0225950D02*
X0124903Y0225950D01*
X0126221Y0227268D01*
X0126221Y0228586D01*
X0124903Y0229903D01*
X0120950Y0229903D01*
X0120950Y0227268D01*
X0122268Y0225950D01*
X0120950Y0229903D02*
X0123586Y0232539D01*
X0126221Y0233857D01*
X0128869Y0232539D02*
X0130187Y0233857D01*
X0132822Y0233857D01*
X0134140Y0232539D01*
X0134140Y0231221D01*
X0128869Y0225950D01*
X0134140Y0225950D01*
X0136788Y0227268D02*
X0138105Y0225950D01*
X0140741Y0225950D01*
X0142059Y0227268D01*
X0142059Y0228586D01*
X0140741Y0229903D01*
X0136788Y0229903D01*
X0136788Y0227268D01*
X0136788Y0229903D02*
X0139423Y0232539D01*
X0142059Y0233857D01*
X0144706Y0229903D02*
X0149977Y0229903D01*
X0148660Y0225950D02*
X0148660Y0233857D01*
X0144706Y0229903D01*
X0142906Y0294250D02*
X0148177Y0299521D01*
X0148177Y0300839D01*
X0146860Y0302157D01*
X0144224Y0302157D01*
X0142906Y0300839D01*
X0140259Y0300839D02*
X0138941Y0302157D01*
X0136305Y0302157D01*
X0134988Y0300839D01*
X0134988Y0295568D01*
X0136305Y0294250D01*
X0138941Y0294250D01*
X0140259Y0295568D01*
X0142906Y0294250D02*
X0148177Y0294250D01*
X0150825Y0295568D02*
X0152143Y0294250D01*
X0154778Y0294250D01*
X0156096Y0295568D01*
X0156096Y0298203D01*
X0154778Y0299521D01*
X0153461Y0299521D01*
X0150825Y0298203D01*
X0150825Y0302157D01*
X0156096Y0302157D01*
X0158744Y0298203D02*
X0162697Y0298203D01*
X0164015Y0296886D01*
X0164015Y0295568D01*
X0162697Y0294250D01*
X0160062Y0294250D01*
X0158744Y0295568D01*
X0158744Y0298203D01*
X0161379Y0300839D01*
X0164015Y0302157D01*
X0132340Y0302157D02*
X0132340Y0300839D01*
X0127069Y0295568D01*
X0127069Y0294250D01*
X0124421Y0294250D02*
X0119150Y0294250D01*
X0124421Y0299521D01*
X0124421Y0300839D01*
X0123103Y0302157D01*
X0120468Y0302157D01*
X0119150Y0300839D01*
X0127069Y0302157D02*
X0132340Y0302157D01*
D17*
X0183600Y0340850D03*
X0183600Y0362350D03*
X0221050Y0362350D03*
X0230350Y0362300D03*
X0239550Y0362300D03*
X0248750Y0362300D03*
X0248750Y0340800D03*
X0239550Y0340800D03*
X0230350Y0340800D03*
X0221050Y0340850D03*
X0068800Y0341550D03*
X0068800Y0363050D03*
M02*
