%
M48
M72
T01C0.0118
T02C0.0320
T03C0.0400
T04C0.1575
%
T01
X8450Y6260
X11630Y4495
X11650Y3490
X16630Y5470
X18130Y6610
X20770Y7990
X20890Y8890
X19630Y12970
X19630Y13810
X18610Y13810
X18610Y12970
X17650Y12970
X17650Y13810
X16630Y12970
X15610Y12970
X15430Y13450
X14530Y12970
X14650Y12490
X13570Y12370
X11890Y12430
X11530Y12730
X10630Y12490
X10510Y13210
X10030Y13930
X9550Y13690
X8770Y14230
X8770Y13090
X7330Y14230
X6970Y15850
X8110Y15850
X9070Y15850
X10150Y15850
X11110Y15850
X12070Y15550
X12190Y15970
X12310Y16330
X13090Y15550
X14110Y15550
X14110Y16270
X14530Y16330
X14950Y15550
X15430Y15730
X15850Y16270
X17530Y17530
X18130Y18370
X15850Y18490
X12850Y18910
X13630Y20890
X13870Y22390
X13330Y22390
X12970Y22390
X12430Y22390
X10870Y22390
X10390Y22390
X9370Y22390
X8650Y20770
X8950Y18910
X9310Y18670
X8110Y18550
X5110Y15850
X3670Y15850
X3610Y14410
X4510Y13690
X5290Y14410
X4570Y12490
X1390Y13690
X1390Y15670
X6670Y22390
X8110Y24670
X8470Y28150
X10090Y29590
X11110Y29590
X12250Y29590
X13090Y29590
X14230Y29590
X15010Y29590
X16210Y29590
X17170Y29590
X18130Y29590
X19150Y29590
X20110Y29590
X20830Y29590
X20830Y31090
X20110Y31090
X19150Y31090
X18130Y31090
X17170Y31090
X16210Y31090
X15010Y31090
X14230Y31090
X13090Y31090
X12190Y31090
X11110Y31090
X10090Y31090
X10090Y31930
X10030Y33250
X11110Y33250
X12130Y33250
X13150Y33250
X12550Y32170
X8470Y31930
X8470Y31090
X7150Y30130
X6430Y31930
X6430Y32470
X6610Y28090
X12190Y24310
X14410Y22390
X15130Y22390
X15850Y22390
X16390Y22390
X16870Y22390
X17410Y22390
X17890Y22390
X18370Y22390
X19090Y22390
X20110Y22390
X20110Y23770
X20650Y25570
X23470Y27010
X24850Y26830
X25210Y26530
X24790Y26230
X25270Y25990
X24370Y24190
X28450Y22090
X31150Y21250
X31330Y22210
X31570Y22930
X31030Y23770
X31030Y24790
X32710Y26230
X34450Y25630
X34090Y23230
X35290Y23230
X35230Y22150
X35830Y21430
X34870Y21250
X33010Y21430
X33010Y22090
X30370Y19090
X28810Y18910
X30190Y17290
X29950Y16270
X30010Y15850
X30130Y14830
X30730Y14830
X31330Y14830
X31390Y13810
X30970Y13630
X30430Y13270
X30550Y12790
X30010Y12790
X28390Y12910
X28390Y13510
X26770Y12970
X24430Y13450
X23710Y13630
X23530Y13090
X23410Y14710
X22210Y14890
X22210Y14470
X20890Y14050
X20130Y15970
X20950Y17830
X22210Y19390
X23470Y19030
X24490Y19390
X25030Y19450
X24370Y20710
X24370Y17590
X24370Y16690
X23350Y16510
X23410Y15610
X24370Y15490
X24370Y14710
X23410Y17590
X20110Y20890
X19210Y21010
X18850Y20650
X14110Y14470
X13090Y14470
X12010Y14470
X10990Y14170
X21880Y2620
X20890Y1870
X34210Y12430
X34990Y12910
X35470Y11590
X37510Y12370
X37570Y13390
X39310Y12190
X39790Y12790
X39970Y14290
X39970Y15130
X38530Y16390
X40210Y17350
X37210Y17830
X35590Y17290
X34150Y17290
X34150Y16450
X34150Y15610
X35410Y15370
X35410Y14830
X32950Y18310
X31270Y17770
X31030Y16510
X28330Y15730
X37210Y23230
X39910Y23410
X34450Y30790
X34450Y31450
X35590Y31450
X36970Y31930
X38710Y32590
X39250Y32590
X40210Y32530
X31390Y30670
X30790Y33610
X30130Y34150
X29770Y35110
X28630Y31930
X25630Y28450
X23950Y29050
X23470Y30190
T02
X1130Y1870
X2130Y1870
X3130Y1870
X4130Y1870
X5130Y1870
X6130Y1870
X7130Y1870
X8130Y1870
X9130Y1870
X10130Y1870
X11130Y1870
X12130Y1870
X13130Y1870
X14130Y1870
X15130Y1870
X16130Y1870
X17130Y1870
X18130Y1870
X19130Y1870
X20130Y1870
X20130Y2875
X19130Y2875
X18130Y2875
X17130Y2875
X16130Y2875
X15130Y2875
X14130Y2875
X13130Y2875
X12130Y2875
X11130Y2875
X10130Y2875
X9130Y2875
X8130Y2875
X7130Y2875
X6130Y2875
X5130Y2875
X4130Y2875
X3130Y2875
X2130Y2875
X1130Y2875
X1130Y7870
X2130Y7870
X3130Y7870
X4130Y7870
X5130Y7870
X6130Y7870
X7130Y7870
X8130Y7870
X9130Y7870
X10130Y7870
X11130Y7870
X12130Y7870
X13130Y7870
X14130Y7870
X15130Y7870
X16130Y7870
X17130Y7870
X18130Y7870
X19130Y7870
X20130Y7870
X20130Y8875
X19130Y8875
X18130Y8875
X17130Y8875
X16130Y8875
X15130Y8875
X14130Y8875
X13130Y8875
X12130Y8875
X11130Y8875
X10130Y8875
X9130Y8875
X8130Y8875
X7130Y8875
X6130Y8875
X5130Y8875
X4130Y8875
X3130Y8875
X2130Y8875
X1130Y8875
X1130Y10853
X2130Y10853
X3130Y10853
X4130Y10853
X5130Y10853
X6130Y10853
X7130Y10853
X8130Y10853
X9130Y10853
X10130Y10853
X11130Y10853
X12130Y10853
X13130Y10853
X14130Y10853
X15130Y10853
X16130Y10853
X17130Y10853
X18130Y10853
X19130Y10853
X20130Y10853
X20130Y11887
X19130Y11887
X18130Y11887
X17130Y11887
X16130Y11887
X15130Y11887
X14130Y11887
X13130Y11887
X12130Y11887
X11130Y11887
X10130Y11887
X9130Y11887
X8130Y11887
X7130Y11887
X6130Y11887
X5130Y11887
X4130Y11887
X3130Y11887
X2130Y11887
X1130Y11887
X1130Y16853
X2130Y16853
X3130Y16853
X4130Y16853
X5130Y16853
X6130Y16853
X7130Y16853
X8130Y16853
X9130Y16853
X10130Y16853
X11130Y16853
X12130Y16853
X13130Y16853
X14130Y16853
X15130Y16853
X16130Y16853
X17130Y16853
X18130Y16853
X19130Y16853
X20130Y16853
X20130Y17887
X19130Y17887
X18130Y17887
X17130Y17887
X16130Y17887
X15130Y17887
X14130Y17887
X13130Y17887
X12130Y17887
X11130Y17887
X10130Y17887
X9130Y17887
X8130Y17887
X7130Y17887
X6130Y17887
X5130Y17887
X4130Y17887
X3130Y17887
X2130Y17887
X1130Y17887
X7130Y19370
X8130Y19370
X9130Y19370
X10130Y19370
X11130Y19370
X12130Y19370
X13130Y19370
X14130Y19370
X15130Y19370
X16130Y19370
X17130Y19370
X18130Y19370
X19130Y19370
X20130Y19370
X21630Y19620
X21630Y18620
X21630Y17620
X21630Y16620
X21630Y15620
X21630Y14620
X21630Y13620
X21630Y12620
X27630Y12620
X27630Y13620
X27630Y14620
X27630Y15620
X27630Y16620
X27630Y17620
X27630Y18620
X27630Y19620
X27630Y20620
X27630Y21620
X27630Y22620
X27630Y23620
X27630Y24620
X27630Y25620
X27630Y26620
X27630Y27620
X27630Y28620
X27630Y29620
X27630Y30620
X27630Y31620
X29130Y31620
X29130Y30620
X29130Y29620
X31130Y27490
X32130Y27490
X32130Y26245
X32130Y25245
X32130Y24245
X32130Y23245
X32130Y22245
X32130Y21245
X32130Y20245
X32130Y19055
X31130Y19055
X32130Y17870
X32130Y16870
X32130Y15870
X32130Y14870
X32130Y13870
X32130Y12870
X32130Y11870
X33505Y11870
X33505Y12870
X33505Y13870
X33505Y14870
X33505Y15870
X33505Y16870
X33505Y17870
X35505Y18995
X36505Y18995
X36505Y17870
X36505Y16870
X36505Y15870
X36505Y14870
X36505Y13870
X36505Y12870
X36505Y11870
X37880Y11870
X37880Y12870
X37880Y13870
X37880Y14870
X37880Y15870
X37880Y16870
X37880Y17870
X37880Y18870
X36505Y20245
X36505Y21245
X36505Y22245
X36505Y23245
X36505Y24245
X36505Y25245
X36505Y26245
X36505Y27370
X35505Y27370
X36505Y28620
X36505Y29620
X36505Y30620
X36505Y31620
X36505Y32620
X36505Y33620
X36505Y34620
X36505Y35620
X36505Y36745
X35505Y36745
X33505Y35620
X33505Y34620
X33505Y33620
X33505Y32620
X33505Y31620
X33505Y30620
X33505Y29620
X33505Y28620
X32130Y29620
X32130Y30620
X32130Y31620
X32130Y32620
X32130Y33620
X32130Y34620
X32130Y35620
X32130Y36730
X31130Y36730
X29130Y35620
X29130Y34620
X29130Y33620
X29130Y32620
X26910Y33010
X25910Y33010
X24875Y33655
X23955Y33655
X23035Y33655
X22105Y33660
X20130Y32620
X19130Y32620
X18130Y32620
X17130Y32620
X16130Y32620
X15130Y32620
X14130Y32620
X13130Y32620
X12130Y32620
X11130Y32620
X10130Y32620
X9130Y32620
X8130Y32620
X7130Y32620
X6880Y33730
X7880Y33870
X7880Y34870
X7880Y35870
X7880Y36870
X6880Y36730
X9130Y36870
X10130Y36870
X11130Y36870
X12130Y36870
X13130Y36870
X14130Y36870
X15130Y36870
X16130Y36870
X18360Y36660
X17380Y34995
X17380Y33995
X18360Y33660
X16130Y33870
X15130Y33870
X14130Y33870
X13130Y33870
X12130Y33870
X11130Y33870
X10130Y33870
X9130Y33870
X8770Y30150
X8770Y29150
X9130Y26620
X8130Y26620
X7130Y26620
X7130Y25370
X8130Y25370
X9130Y25370
X10130Y25370
X11130Y25370
X12130Y25370
X13130Y25370
X14130Y25370
X15130Y25370
X16130Y25370
X17130Y25370
X18130Y25370
X19130Y25370
X20130Y25370
X20130Y26620
X19130Y26620
X18130Y26620
X17130Y26620
X16130Y26620
X15130Y26620
X14130Y26620
X13130Y26620
X12130Y26620
X11130Y26620
X10130Y26620
X8650Y22890
X8650Y21890
X21630Y21620
X21630Y22620
X21630Y23620
X21630Y24620
X21630Y25620
X21630Y26620
X21630Y27620
X21630Y28620
X21630Y29620
X21630Y30620
X21630Y31620
X22105Y36660
X23035Y36655
X23955Y36655
X24875Y36655
X29130Y26245
X29130Y25245
X29130Y24245
X29130Y23245
X29130Y22245
X29130Y21245
X29130Y20245
X29130Y17870
X29130Y16870
X29130Y15870
X29130Y14870
X29130Y13870
X29130Y12870
X29130Y11870
X33505Y20245
X33505Y21245
X33505Y22245
X33505Y23245
X33505Y24245
X33505Y25245
X33505Y26245
X37880Y26245
X37880Y25245
X37880Y24245
X37880Y23245
X37880Y22245
X37880Y21245
X39880Y19995
X40880Y19995
X40880Y18870
X40880Y17870
X40880Y16870
X40880Y15870
X40880Y14870
X40880Y13870
X40880Y12870
X40880Y11870
X39815Y10870
X38815Y10870
X40880Y21245
X40880Y22245
X40880Y23245
X40880Y24245
X40880Y25245
X40880Y26245
X40880Y27245
X40880Y28370
X39880Y28370
X40880Y29620
X40880Y30620
X40880Y31620
X40880Y32620
X40880Y33620
X40880Y34620
X40880Y35620
X40880Y36745
X39880Y36745
X37880Y35620
X37880Y34620
X37880Y33620
X37880Y32620
X37880Y31620
X37880Y30620
X37880Y29620
X37880Y27245
X21630Y20620
T03
X24590Y10870
X25590Y10870
X26590Y10870
X27590Y10870
X28590Y10870
X30630Y10870
X31630Y10870
X32630Y10870
X34650Y10870
X35650Y10870
X23505Y8495
X23505Y7495
X23505Y6495
X23505Y5495
X23505Y4495
X23505Y3495
X23505Y2495
X22505Y2495
X22505Y3495
X22505Y4495
X22505Y5495
X22505Y6495
X22505Y7495
X22505Y8495
X20105Y930
X19105Y930
X18105Y930
X17105Y930
X16105Y930
X15105Y930
X14105Y930
X13105Y930
X12105Y930
X11105Y930
X10105Y930
X9105Y930
X27610Y34055
X27610Y35055
T04
X42790Y36311
X42790Y11470
M30
